<svg xmlns="http://www.w3.org/2000/svg" xmlns:xlink="http://www.w3.org/1999/xlink" xmlns:lucid="lucid" width="2072" height="903.4"><g transform="translate(71.46666666666658 -1011.6015625)" lucid:page-tab-id="0_0"><path d="M-500 1000h3000v1000H-500z" fill="#fff"/><path d="M-70.47 1110a6 6 0 0 1 6-6h2058a6 6 0 0 1 6 6v798a6 6 0 0 1-6 6h-2058a6 6 0 0 1-6-6z" stroke="#3a414a" stroke-width="2" fill="#fff"/><path d="M-70.47 1017.6a6 6 0 0 1 6-6h794.24a6 6 0 0 1 6 6v68.4a6 6 0 0 1-6 6H-64.47a6 6 0 0 1-6-6z" fill="#3a414a"/><use xlink:href="#a" transform="matrix(1,0,0,1,-54.46666666666658,1027.6015625) translate(0 39.05078125)"/><use xlink:href="#b" transform="matrix(1,0,0,1,-54.46666666666658,1027.6015625) translate(49.58984375 39.05078125)"/><use xlink:href="#c" transform="matrix(1,0,0,1,-54.46666666666658,1027.6015625) translate(165.41015625 39.05078125)"/><use xlink:href="#d" transform="matrix(1,0,0,1,-54.46666666666658,1027.6015625) translate(196.66015625 39.05078125)"/><use xlink:href="#e" transform="matrix(1,0,0,1,-54.46666666666658,1027.6015625) translate(374.74609375 39.05078125)"/><use xlink:href="#f" transform="matrix(1,0,0,1,-54.46666666666658,1027.6015625) translate(542.734375 39.05078125)"/><path d="M9.53 1190a6 6 0 0 1 6-6h1898a6 6 0 0 1 6 6v638a6 6 0 0 1-6 6h-1898a6 6 0 0 1-6-6z" stroke="#fc9432" stroke-width="2" fill-opacity="0"/><path d="M9.53 1140.5a6 6 0 0 1 6-6h349.44a6 6 0 0 1 6 6v25.5a6 6 0 0 1-6 6H15.53a6 6 0 0 1-6-6z" fill="#fc9432"/><use xlink:href="#g" transform="matrix(1,0,0,1,17.533333333333417,1142.4895833333333) translate(0 17.46701388888889)"/><use xlink:href="#h" transform="matrix(1,0,0,1,17.533333333333417,1142.4895833333333) translate(22.039930555555557 17.46701388888889)"/><use xlink:href="#i" transform="matrix(1,0,0,1,17.533333333333417,1142.4895833333333) translate(73.515625 17.46701388888889)"/><use xlink:href="#j" transform="matrix(1,0,0,1,17.533333333333417,1142.4895833333333) translate(87.40451388888889 17.46701388888889)"/><use xlink:href="#k" transform="matrix(1,0,0,1,17.533333333333417,1142.4895833333333) translate(166.55381944444446 17.46701388888889)"/><use xlink:href="#l" transform="matrix(1,0,0,1,17.533333333333417,1142.4895833333333) translate(241.2152777777778 17.46701388888889)"/><path d="M779.53 1634h70v120h-70z" fill="#29aae1"/><path d="M805.08 1717.4h37.87v2.16h-37.87zm-.28 6h38.57v3.48H804.8zm.14 7.56h38.57v3.48h-38.56zM828.46 1692.37v-.05a4.7 4.7 0 0 1 4.7-4.7 4.7 4.7 0 0 1 4.68 4.7 4.7 4.7 0 0 1-4.7 4.7 4.7 4.7 0 0 1-4.68-4.7v-.05" fill="#fff"/><path d="M830.14 1692.35v-.03a2.87 2.87 0 0 1 2.87-2.87 2.87 2.87 0 0 1 2.88 2.87 2.87 2.87 0 0 1-2.87 2.87 2.87 2.87 0 0 1-2.86-2.88v-.03" fill="#54bbe7"/><use xlink:href="#m" transform="matrix(1,0,0,1,749.5333333333334,1754) translate(23.74565972222223 21.55251736111112)"/><use xlink:href="#n" transform="matrix(1,0,0,1,749.5333333333334,1754) translate(25.275607638888893 53.81814236111112)"/><use xlink:href="#o" transform="matrix(1,0,0,1,749.5333333333334,1754) translate(25.009765625000007 86.08376736111111)"/><use xlink:href="#p" transform="matrix(1,0,0,1,749.5333333333334,1754) translate(2.5054253472222285 118.34939236111111)"/><use xlink:href="#q" transform="matrix(1,0,0,1,749.5333333333334,1754) translate(60.35047743055556 118.34939236111111)"/><use xlink:href="#r" transform="matrix(1,0,0,1,749.5333333333334,1754) translate(81.30316840277777 118.34939236111111)"/><use xlink:href="#s" transform="matrix(1,0,0,1,749.5333333333334,1754) translate(30.27777777777778 150.61501736111111)"/><path d="M496.33 1289h36.45c6.8 0 6.8 0 6.8 4.8v110.4c0 4.8 0 4.8-6.8 4.8h-36.45c-6.8 0-6.8 0-6.8-4.8v-110.4c0-4.8 0-4.8 6.8-4.8z" fill="#29aae1"/><path d="M497.78 1294.04h34v27.24h-34z" fill="#fff"/><path d="M499.73 1295.12h29.65v25.2h-29.65z" fill="#54bbe7"/><path d="M515.78 1313.12c0 2.04-2.6 3.72-5.85 3.72-3.2 0-5.8-1.68-5.8-3.72s2.6-3.72 5.8-3.72c3.25 0 5.85 1.68 5.85 3.72zM524.53 1314.8c0 1.2-1.45 2.04-3.15 2.04-1.75 0-3.2-.84-3.2-2.04 0-1.08 1.45-2.04 3.2-2.04 1.7 0 3.15.96 3.15 2.04zM504.13 1299.92h10.8v7.08h-10.8z" fill="#fff"/><path d="M514.28 1303.04h8.3v3.12h-8.3zM525.98 1364.72h1.95c2.4 0 2.4 0 2.4 1.8v28.2c0 1.68 0 1.68-2.4 1.68h-1.95c-2.45 0-2.45 0-2.45-1.68v-28.2c0-1.8 0-1.8 2.45-1.8z" fill="#fff"/><path d="M526.98 1367.6c1.7 0 1.7 0 1.7 1.2v24.48c0 1.2 0 1.2-1.7 1.2s-1.7 0-1.7-1.2v-24.48c0-1.2 0-1.2 1.7-1.2z" fill="#54bbe7"/><use xlink:href="#m" transform="matrix(1,0,0,1,459.5333333333334,1409) translate(13.745659722222229 21.88845486111112)"/><use xlink:href="#t" transform="matrix(1,0,0,1,459.5333333333334,1409) translate(13.984375 54.15407986111112)"/><use xlink:href="#u" transform="matrix(1,0,0,1,459.5333333333334,1409) translate(11.488715277777779 86.41970486111111)"/><use xlink:href="#v" transform="matrix(1,0,0,1,459.5333333333334,1409) translate(12.2265625 118.68532986111111)"/><use xlink:href="#w" transform="matrix(1,0,0,1,459.5333333333334,1409) translate(15.009765625000007 150.95095486111111)"/><use xlink:href="#x" transform="matrix(1,0,0,1,459.5333333333334,1409) translate(12.552083333333329 183.21657986111111)"/><use xlink:href="#y" transform="matrix(1,0,0,1,459.5333333333334,1409) translate(30.303819444444446 215.48220486111111)"/><use xlink:href="#z" transform="matrix(1,0,0,1,459.5333333333334,1409) translate(7.712673611111107 247.74782986111111)"/><use xlink:href="#A" transform="matrix(1,0,0,1,459.5333333333334,1409) translate(10.083550347222214 280.01345486111114)"/><use xlink:href="#B" transform="matrix(1,0,0,1,459.5333333333334,1409) translate(5.857204861111114 312.27907986111114)"/><path d="M811.83 1289l-72.3 117.84 150 .84-77.7-118.68z" fill="none"/><path d="M807.78 1406.84c-36.9-.24-67.2-.48-67.2-.6-.15-.12 70.95-116.16 71.25-116.04.15 0 50.4 76.44 74.85 113.88l2.25 3.36-7.05-.12c-3.75 0-37.2-.24-74.1-.48z" fill="#29aae1"/><path d="M778.38 1344.92l68.85-.48-32.1 61.44-36.75-60.96z" fill="none"/><path d="M841.38 1363.52c0 18.72-12.75 33.84-28.65 33.84-15.75 0-28.5-15.12-28.5-33.84 0-18.72 12.75-33.84 28.5-33.84 15.9 0 28.65 15.12 28.65 33.84z" fill="#fff"/><path d="M793.98 1375.64l-19.95-33.48 37.35-.24c20.55-.24 37.5-.24 37.65-.24 0 0-34.65 67.2-34.8 67.44-.15 0-9.15-15-20.25-33.48z" fill="#fff"/><path d="M838.23 1363.28c0 15.24-11.4 27.48-25.5 27.48-13.95 0-25.35-12.24-25.35-27.48 0-15.12 11.4-27.48 25.35-27.48 14.1 0 25.5 12.36 25.5 27.48z" fill="#54bbe7"/><path d="M834.33 1363.28c0 13.08-9.6 23.52-21.3 23.52-11.85 0-21.45-10.44-21.45-23.52 0-12.96 9.6-23.52 21.45-23.52 11.7 0 21.3 10.56 21.3 23.52z" fill="#fff"/><path d="M788.73 1360.16h49.5v3.72h-49.5z" fill="#54bbe7"/><path d="M811.23 1337.48h4.35v52.2h-4.35z" fill="#54bbe7"/><path d="M793.83 1375.4h40.65v.84h-40.65zM790.38 1351.4h41.1v.84h-41.1z" fill="#54bbe7"/><use xlink:href="#C" transform="matrix(1,0,0,1,709.5333333333334,1409) translate(19.860026041666686 21.55251736111112)"/><use xlink:href="#D" transform="matrix(1,0,0,1,709.5333333333334,1409) translate(47.40993923611113 21.55251736111112)"/><use xlink:href="#n" transform="matrix(1,0,0,1,709.5333333333334,1409) translate(65.27560763888889 53.81814236111112)"/><use xlink:href="#E" transform="matrix(1,0,0,1,709.5333333333334,1409) translate(9.698350694444457 86.08376736111111)"/><use xlink:href="#F" transform="matrix(1,0,0,1,709.5333333333334,1409) translate(91.21961805555556 86.08376736111111)"/><use xlink:href="#G" transform="matrix(1,0,0,1,709.5333333333334,1409) translate(29.51171875 118.34939236111111)"/><use xlink:href="#H" transform="matrix(1,0,0,1,709.5333333333334,1409) translate(114.25564236111111 118.34939236111111)"/><use xlink:href="#I" transform="matrix(1,0,0,1,709.5333333333334,1409) translate(11.759982638888886 150.61501736111111)"/><use xlink:href="#J" transform="matrix(1,0,0,1,709.5333333333334,1409) translate(153.52430555555554 150.61501736111111)"/><path d="M1096.33 1289h36.45c6.8 0 6.8 0 6.8 4.8v110.4c0 4.8 0 4.8-6.8 4.8h-36.45c-6.8 0-6.8 0-6.8-4.8v-110.4c0-4.8 0-4.8 6.8-4.8z" fill="#29aae1"/><path d="M1097.78 1294.04h34v27.24h-34z" fill="#fff"/><path d="M1099.73 1295.12h29.65v25.2h-29.65z" fill="#54bbe7"/><path d="M1115.78 1313.12c0 2.04-2.6 3.72-5.85 3.72-3.2 0-5.8-1.68-5.8-3.72s2.6-3.72 5.8-3.72c3.25 0 5.85 1.68 5.85 3.72zM1124.53 1314.8c0 1.2-1.45 2.04-3.15 2.04-1.75 0-3.2-.84-3.2-2.04 0-1.08 1.45-2.04 3.2-2.04 1.7 0 3.15.96 3.15 2.04zM1104.13 1299.92h10.8v7.08h-10.8z" fill="#fff"/><path d="M1114.28 1303.04h8.3v3.12h-8.3zM1125.98 1364.72h1.95c2.4 0 2.4 0 2.4 1.8v28.2c0 1.68 0 1.68-2.4 1.68h-1.95c-2.45 0-2.45 0-2.45-1.68v-28.2c0-1.8 0-1.8 2.45-1.8z" fill="#fff"/><path d="M1126.98 1367.6c1.7 0 1.7 0 1.7 1.2v24.48c0 1.2 0 1.2-1.7 1.2s-1.7 0-1.7-1.2v-24.48c0-1.2 0-1.2 1.7-1.2z" fill="#54bbe7"/><use xlink:href="#K" transform="matrix(1,0,0,1,1059.5333333333333,1409) translate(2.2873263888888857 21.91970486111112)"/><use xlink:href="#L" transform="matrix(1,0,0,1,1059.5333333333333,1409) translate(77.13541666666667 21.91970486111112)"/><use xlink:href="#M" transform="matrix(1,0,0,1,1059.5333333333333,1409) translate(-1.8630642361111072 54.18532986111112)"/><use xlink:href="#N" transform="matrix(1,0,0,1,1059.5333333333333,1409) translate(-10.033637152777771 86.45095486111111)"/><use xlink:href="#q" transform="matrix(1,0,0,1,1059.5333333333333,1409) translate(2.0160590277777715 118.71657986111111)"/><use xlink:href="#O" transform="matrix(1,0,0,1,1059.5333333333333,1409) translate(22.968749999999993 118.71657986111111)"/><use xlink:href="#P" transform="matrix(1,0,0,1,1059.5333333333333,1409) translate(19.084201388888893 150.98220486111111)"/><use xlink:href="#Q" transform="matrix(1,0,0,1,1059.5333333333333,1409) translate(12.459852430555557 183.24782986111111)"/><path d="M1380.63 1278.8h20.5v106.07h-20.5zM1402.73 1279.13l16-7.82v105.92l-16 7.82v-105.9zM1362.73 1272.67l16 5.78v106.08l-16-5.78v-106.08z" fill="#29aae1"/><path d="M1363.03 1265.87l13-.5s.4 3.73 3 4.07c2.7.5 11.8 5.44 19.5 1.7 7.6-3.74 8.3-5.27 8.3-5.27l11.7-.34-.1 4.42-15.1 7.48h-23.6l-16.7-5.78v-5.78zM1361.43 1377.05l-.2-8s-14.6 1.2-19.9 10.38c-5.3 9.18 36.7 18.02 47.7 18.02 10.9 0 40.8-6.12 44.2-10.54 3.4-4.4 4.5-4.4 5.3-5.26.7-.85.7-4.76-2.7-6.12-3.4-1.36-16.2-5.78-16.2-5.78l-.4 8.84-15.5 8.84-24.6-1.02-17.4-6.97-.3-2.38z" fill="gray"/><path d="M1391.73 1398.8l27.4-5.1v36.56l-27.4 5.27v-36.72zM1361.43 1393.7l27.4 5.1v36.73l-27.4-5.1v-36.72zM1420.63 1393.37l18.3-15.3v36.72l-18.3 15.3v-36.73zM1340.33 1380.45l19.5 12.75v36.72l-19.5-12.75v-36.72z" fill="#29aae1"/><use xlink:href="#R" transform="matrix(1,0,0,1,1309.5333333333333,1434) translate(10.333116319444443 21.55251736111112)"/><use xlink:href="#S" transform="matrix(1,0,0,1,1309.5333333333333,1434) translate(61.787109375 21.55251736111112)"/><use xlink:href="#T" transform="matrix(1,0,0,1,1309.5333333333333,1434) translate(14.884982638888886 53.81814236111112)"/><use xlink:href="#U" transform="matrix(1,0,0,1,1309.5333333333333,1434) translate(97.29600694444443 53.81814236111112)"/><use xlink:href="#V" transform="matrix(1,0,0,1,1309.5333333333333,1434) translate(111.55381944444443 53.81814236111112)"/><use xlink:href="#W" transform="matrix(1,0,0,1,1309.5333333333333,1434) translate(45.87456597222222 86.08376736111111)"/><use xlink:href="#X" transform="matrix(1,0,0,1,1309.5333333333333,1434) translate(13.213975694444457 118.34939236111111)"/><use xlink:href="#Y" transform="matrix(1,0,0,1,1309.5333333333333,1434) translate(132.08333333333331 118.34939236111111)"/><use xlink:href="#Z" transform="matrix(1,0,0,1,1309.5333333333333,1434) translate(56.681857638888886 150.61501736111111)"/><path d="M1639.53 1282.5a6 6 0 0 1 6-6h188a6 6 0 0 1 6 6v133a6 6 0 0 1-6 6h-188a6 6 0 0 1-6-6z" fill="none"/><path d="M1639.53 1276.5h46.8v17.84h-46.8zm50.8 0h46.6v17.84h-46.6zm51.4 0h46.6v17.84h-46.6zm50.8 0h46.8v17.84h-46.8zm-152.6 21.03h22.8v18.56h-22.8zm27.6 0h46.8v17.83h-46.8zm52.2 0h46.6v17.83h-46.6zm52.4 0h46.8v17.83h-46.8zm50.6 0h16.2v18.56h-16.2zm-183.2 22.18h46.8v17.7h-46.8zm50.8 0h46.8v17.7h-46.8zm51.4 0h46.8v17.7h-46.8zm51 0h46.8v17.7h-46.8zm-152.8 21.33h22.8v18.56h-22.8zm27.6 0h46.8v17.83h-46.8zm52.2 0h46.8v17.83h-46.8zm52.6 0h46.6v17.83h-46.6zm50.6 0h16.2v18.56h-16.2zm-183.4 21.45h46.8v17.84h-46.8zm50.8 0h46.8v17.84h-46.8zm51.4 0h46.8v17.84h-46.8zm51 0h46.8v17.84h-46.8zm-152.8 19.87h22.8v18.56h-22.8zm27.6 0h46.8v17.84l-46.8-.02zm52.2 0h46.8v17.84l-46.8-.02zm52.6 0h46.6v17.84l-46.6-.02zm50.6 0h16.2v18.56h-16.2zm-183.4 21.46h46.8v17.85h-46.8zm50.8 0h46.8v17.85h-46.8zm51.4 0h46.8v17.85h-46.8zm51 0h46.8v17.85h-46.8z" fill="#29aae1"/><use xlink:href="#aa" transform="matrix(1,0,0,1,1609.5333333333333,1421.5) translate(29.294704861111114 21.55251736111112)"/><use xlink:href="#ab" transform="matrix(1,0,0,1,1609.5333333333333,1421.5) translate(103.00347222222221 21.55251736111112)"/><use xlink:href="#ac" transform="matrix(1,0,0,1,1609.5333333333333,1421.5) translate(123.56553819444443 21.55251736111112)"/><use xlink:href="#ad" transform="matrix(1,0,0,1,1609.5333333333333,1421.5) translate(67.14735243055557 53.81814236111112)"/><use xlink:href="#ae" transform="matrix(1,0,0,1,1609.5333333333333,1421.5) translate(8.331163194444457 86.08376736111111)"/><use xlink:href="#af" transform="matrix(1,0,0,1,1609.5333333333333,1421.5) translate(146.89453125 86.08376736111111)"/><use xlink:href="#ag" transform="matrix(1,0,0,1,1609.5333333333333,1421.5) translate(50.58919270833334 118.34939236111111)"/><use xlink:href="#q" transform="matrix(1,0,0,1,1609.5333333333333,1421.5) translate(136.396484375 118.34939236111111)"/><use xlink:href="#ah" transform="matrix(1,0,0,1,1609.5333333333333,1421.5) translate(157.34917534722223 118.34939236111111)"/><use xlink:href="#ai" transform="matrix(1,0,0,1,1609.5333333333333,1421.5) translate(79.59309895833334 150.61501736111111)"/><path d="M233.33 1348.32c0 20.57-19.6 37.06-43.6 37.06s-43.6-16.5-43.6-37.06c0-20.4 19.6-37.06 43.6-37.06s43.6 16.66 43.6 37.06z" fill="#29aae1"/><path d="M228.13 1348.15c0 18.02-17.2 32.64-38.2 32.64-21.2 0-38.2-14.63-38.2-32.65 0-17.85 17-32.47 38.2-32.47 21 0 38.2 14.62 38.2 32.47z" fill="#fff"/><path d="M198.33 1271.48c0 4.08-4 7.3-8.8 7.3-4.8 0-8.6-3.22-8.6-7.3s3.8-7.48 8.6-7.48 8.8 3.4 8.8 7.48zM197.53 1426.7c0 4.07-3.8 7.3-8.6 7.3s-8.8-3.23-8.8-7.3c0-4.26 4-7.5 8.8-7.5 4.8 0 8.6 3.24 8.6 7.5zM106.93 1349.68c0 4.25-3.8 7.48-8.6 7.48-5 0-8.8-3.23-8.8-7.48 0-4.08 3.8-7.3 8.8-7.3 4.8 0 8.6 3.22 8.6 7.3zM289.53 1351.2c0 4.1-3.8 7.5-8.6 7.5s-8.8-3.4-8.8-7.5c0-4.07 4-7.47 8.8-7.47 4.8 0 8.6 3.4 8.6 7.48zM126.93 1290.18c0 4.08-4 7.48-8.8 7.48-4.8 0-8.6-3.4-8.6-7.48s3.8-7.48 8.6-7.48 8.8 3.4 8.8 7.48zM268.73 1411.73c0 4.08-3.8 7.48-8.6 7.48s-8.8-3.4-8.8-7.47c0-4.08 4-7.3 8.8-7.3 4.8 0 8.6 3.22 8.6 7.3zM270.53 1290.35c0 4.25-4 7.48-8.8 7.48-4.8 0-8.6-3.23-8.6-7.48 0-4.08 3.8-7.3 8.6-7.3s8.8 3.22 8.8 7.3zM131.73 1412.07c0 4.08-3.8 7.48-8.6 7.48s-8.8-3.4-8.8-7.48 4-7.48 8.8-7.48c4.8 0 8.6 3.4 8.6 7.47z" fill="#29aae1"/><path d="M186.73 1279.8h6.4v29.6h-6.4zM185.93 1387.6h6.4v29.57h-6.4zM234.93 1353.76l.2-5.44 34.8.34-.2 5.44-34.8-.34zM109.53 1347.3h34.8v5.44h-34.8zM249.93 1296.47l6 3.74-26.6 25.5-6-3.9 26.6-25.33zM155.73 1376.88l6 3.74-26.6 25.5-6-3.9 26.6-25.34zM158.13 1318.4l-4.8 4.93-28.2-24.14 4.8-4.94 28.2 24.14zM253.73 1402.04l-4.8 4.93-28.2-24.14 4.8-4.93 28.2 24.14z" fill="#54bbe7"/><use xlink:href="#aj" transform="matrix(1,0,0,1,59.53333333333342,1434) translate(8.879123263888886 21.685329861111114)"/><use xlink:href="#ak" transform="matrix(1,0,0,1,59.53333333333342,1434) translate(107.81575520833334 21.685329861111114)"/><use xlink:href="#al" transform="matrix(1,0,0,1,59.53333333333342,1434) translate(199.08094618055557 21.685329861111114)"/><use xlink:href="#am" transform="matrix(1,0,0,1,59.53333333333342,1434) translate(17.635633680555543 53.950954861111114)"/><use xlink:href="#an" transform="matrix(1,0,0,1,59.53333333333342,1434) translate(102.37955729166666 53.950954861111114)"/><use xlink:href="#ao" transform="matrix(1,0,0,1,59.53333333333342,1434) translate(129.8318142361111 53.950954861111114)"/><use xlink:href="#ap" transform="matrix(1,0,0,1,59.53333333333342,1434) translate(221.162109375 53.950954861111114)"/><use xlink:href="#aq" transform="matrix(1,0,0,1,59.53333333333342,1434) translate(21.2109375 86.21657986111111)"/><use xlink:href="#an" transform="matrix(1,0,0,1,59.53333333333342,1434) translate(124.88932291666667 86.21657986111111)"/><use xlink:href="#ar" transform="matrix(1,0,0,1,59.53333333333342,1434) translate(152.34157986111111 86.21657986111111)"/><use xlink:href="#as" transform="matrix(1,0,0,1,59.53333333333342,1434) translate(90.75303819444444 118.48220486111111)"/><path d="M811.5 1632h-3.94v-69.9h3.95z" stroke="#3a414a" stroke-width=".05" fill="#3a414a"/><path d="M811.5 1634h-3.94v-2.05h3.95z" fill="#3a414a"/><path stroke="#3a414a" stroke-width=".05" fill="#3a414a"/><path fill="#3a414a"/><path d="M810.86 1411.03h-2.66l1.33-4.1z" stroke="#3a414a" stroke-width=".05" fill="#3a414a"/><path d="M865.63 1369h201.17" stroke="#3a414a" stroke-width="4" fill="none"/><path d="M865.68 1370.97h-.75l-2.6-3.94h3.35z" stroke="#3a414a" stroke-width=".05" fill="#3a414a"/><path d="M1083.06 1369l-14.26 4.63v-9.27z" stroke="#3a414a" stroke-width="4" fill="#3a414a"/><path d="M1141.58 1349h198.4" stroke="#3a414a" stroke-width="4" fill="none"/><path d="M1141.63 1350.97h-2.05v-3.94h2.06z" stroke="#3a414a" stroke-width=".05" fill="#3a414a"/><path d="M1356.26 1349l-14.27 4.63v-9.27z" stroke="#3a414a" stroke-width="4" fill="#3a414a"/><path d="M1318.87 1485.97H911.75v-3.94h407.12zm72.64-49.94h-3.94v-36.62h3.95z" stroke="#3a414a" stroke-width=".05" fill="#3a414a"/><path d="M1391.5 1399.47h-2.67v-.66l-1.27-.23v-1.2l1.47.08 2.48-.17z" fill="#3a414a"/><path stroke="#3a414a" stroke-width=".05" fill="#3a414a"/><path fill="#3a414a"/><path d="M840.8 1411.03h-2.53l1.26-3.9zM801.5 1611.26h-3.94v-49.17h3.95zm0-200.23h-3.94v-2.26h3.95z" stroke="#3a414a" stroke-width=".05" fill="#3a414a"/><path d="M801.5 1406.8v2.02h-3.94v-2.07z" fill="#3a414a"/><path stroke="#3a414a" stroke-width=".05" fill="#3a414a"/><path d="M799.53 1627.53l-4.63-14.27h9.27z" fill="#3a414a"/><path d="M799.53 1633.92l-7.35-22.63h14.7zm-1.9-18.68l1.9 5.9 1.92-5.9zM1616.86 1535.97h-705.1v-3.94h705.1zM831.5 1411.03h-3.94v-2.05h3.95z" stroke="#3a414a" stroke-width=".05" fill="#3a414a"/><path d="M831.5 1407v2.03h-3.94v-2.06z" fill="#3a414a"/><path stroke="#3a414a" stroke-width=".05" fill="#3a414a"/><path fill="#3a414a"/><path d="M1706.78 1423.53h-1.16l.58-1.8z" stroke="#3a414a" stroke-width=".05" fill="#3a414a"/><path d="M1637.53 1329h-196.06" stroke="#3a414a" stroke-width="4" fill="none"/><path d="M1639.53 1330.97h-2.05v-3.94h2.05z" stroke="#3a414a" stroke-width=".05" fill="#3a414a"/><path d="M1425.2 1329l14.27-4.63v9.27z" stroke="#3a414a" stroke-width="4" fill="#3a414a"/><path d="M1420.73 1369h196.07" stroke="#3a414a" stroke-width="4" fill="none"/><path d="M1420.8 1370.15l-1.17-.4-.05 1.22h-.85v-3.94h2.06z" stroke="#3a414a" stroke-width=".05" fill="#3a414a"/><path d="M1633.06 1369l-14.26 4.63v-9.27z" stroke="#3a414a" stroke-width="4" fill="#3a414a"/><path d="M821.5 1577.92l.06.7.15.62.25.6.33.52.4.48.5.4.53.34.6.24.6.15.7.06h941.2l.7-.06.6-.15.6-.24.53-.33.48-.4.42-.5.33-.52.24-.6.14-.6.05-.7v-4.34h3.94v4.48l-.1 1.17-.28 1.22-.48 1.15-.66 1.07-.8.94-.96.82-1.07.65-1.17.5-1.2.28-1.2.1H825.47l-1.18-.1-1.2-.3-1.17-.47-1.06-.64-.95-.82-.82-.95-.66-1.08-.48-1.15-.3-1.22-.08-1.17v-16h3.95z" stroke="#3a414a" stroke-width=".05" fill="#3a414a"/><path d="M1774.84 1423.53h-3.95v-1.88h3.94z" fill="#3a414a"/><path stroke="#3a414a" stroke-width=".05" fill="#3a414a"/><path fill="#3a414a"/><path d="M820.84 1411.03h-2.62l1.3-4.03z" stroke="#3a414a" stroke-width=".05" fill="#3a414a"/><path d="M541.58 1329h223.65" stroke="#3a414a" stroke-width="4" fill="none"/><path d="M541.63 1330.97h-2.05v-3.94h2.05z" stroke="#3a414a" stroke-width=".05" fill="#3a414a"/><path d="M781.5 1329l-14.27 4.63v-9.27z" stroke="#3a414a" stroke-width="4" fill="#3a414a"/><path d="M761.4 1369H562.33" stroke="#3a414a" stroke-width="4" fill="none"/><path d="M762.2 1370.97h-.84v-3.94h3.26z" stroke="#3a414a" stroke-width=".05" fill="#3a414a"/><path d="M546.05 1369l14.27-4.63v9.27z" stroke="#3a414a" stroke-width="4" fill="#3a414a"/><path d="M1087.53 1329H860.1" stroke="#3a414a" stroke-width="4" fill="none"/><path d="M1089.53 1330.97h-2.05v-3.94h2.05z" stroke="#3a414a" stroke-width=".05" fill="#3a414a"/><path d="M843.82 1329l14.27-4.63v9.27z" stroke="#3a414a" stroke-width="4" fill="#3a414a"/><path d="M291 1349h175.8" stroke="#3a414a" stroke-width="4" fill="none"/><path d="M291.05 1350.97h-1.53l-.04-.6-.9-2.6-.67-.74h3.15z" stroke="#3a414a" stroke-width=".05" fill="#3a414a"/><path d="M483.06 1349l-14.26 4.63v-9.27z" stroke="#3a414a" stroke-width="4" fill="#3a414a"/><path d="M224.87 1324.34h32a6 6 0 0 0 6-6v-75a6 6 0 0 1 6-6h839.66a6 6 0 0 1 6 6v22.92" stroke="#3a414a" stroke-width="4" fill="none"/><path d="M224.92 1322.83v3.48h-.23l-1.26-1.44-2.72-2.5h3.47z" stroke="#3a414a" stroke-width=".05" fill="#3a414a"/><path d="M1114.53 1282.53l-4.63-14.27h9.27z" stroke="#3a414a" stroke-width="4" fill="#3a414a"/><path d="M156.2 1314.74v-98.07a6 6 0 0 1 6-6h1221.33a6 6 0 0 1 6 6v32.27" stroke="#3a414a" stroke-width="4" fill="none"/><path d="M158.18 1319.74h-1.36l1.3-1.34-3.9-3.35v-.36h3.96z" stroke="#3a414a" stroke-width=".05" fill="#3a414a"/><path d="M1389.53 1265.2l-4.63-14.26h9.27z" stroke="#3a414a" stroke-width="4" fill="#3a414a"/><path d="M718.23 1535.97H312.6v-3.94h405.63zm-526.72-99.8h-3.94v-.2h3.95z" stroke="#3a414a" stroke-width=".05" fill="#3a414a"/><path d="M191.5 1436.02h-3.94v-2.23l1.37.2 1-.05 1.58-.4z" fill="#3a414a"/><path stroke="#3a414a" stroke-width=".05" fill="#3a414a"/><path fill="#3a414a"/><path d="M790.92 1411.03h-2.77l1.38-4.27z" stroke="#3a414a" stroke-width=".05" fill="#3a414a"/><defs><path fill="#fff" d="M52 0l541-1490h220L1361 0h-200l-149-416H398L254 0H52zm404-582h497c-103-290-145-390-251-756-108 377-145 460-246 756" id="at"/><path fill="#fff" d="M370-1490V0H180v-1490h190" id="au"/><g id="a"><use transform="matrix(0.01953125,0,0,0.01953125,0,0)" xlink:href="#at"/><use transform="matrix(0.01953125,0,0,0.01953125,27.59765625,0)" xlink:href="#au"/></g><path fill="#fff" d="M180 0v-1490h190v1322h690V0H180" id="av"/><path fill="#fff" d="M471 26C259 26 90-98 90-318c0-256 228-303 435-329 202-27 287-16 287-108 0-139-79-219-234-219-161 0-248 86-283 164l-173-57c86-203 278-265 451-265 150 0 419 46 419 395V0H815v-152h-12C765-73 660 26 471 26zm31-159c199 0 310-134 310-271v-155c-30 35-226 55-295 64-131 17-246 59-246 186 0 116 97 176 231 176" id="aw"/><path fill="#fff" d="M140 405l46-156c120 36 205 19 263-150l32-93L54-1118h197c107 313 237 620 324 950 87-331 219-637 326-950h196L606 167c-68 178-176 259-334 259-64 0-113-12-132-21" id="ax"/><path fill="#fff" d="M628 24c-324 0-524-230-524-574 0-343 198-582 503-582 237 0 487 146 487 559v75H286c9 234 145 362 343 362 132 0 231-58 273-172l174 48C1024-91 857 24 628 24zM287-650h624c-17-190-120-322-304-322-192 0-309 151-320 322" id="ay"/><path fill="#fff" d="M158 0v-1118h174v172h12c41-113 157-188 290-188 26 0 70 2 91 3v181c-11-2-60-10-108-10-161 0-279 109-279 260V0H158" id="az"/><g id="b"><use transform="matrix(0.01953125,0,0,0.01953125,0,0)" xlink:href="#av"/><use transform="matrix(0.01953125,0,0,0.01953125,22.6171875,0)" xlink:href="#aw"/><use transform="matrix(0.01953125,0,0,0.01953125,44.4921875,0)" xlink:href="#ax"/><use transform="matrix(0.01953125,0,0,0.01953125,66.19140625,0)" xlink:href="#ay"/><use transform="matrix(0.01953125,0,0,0.01953125,89.51171875,0)" xlink:href="#az"/></g><path fill="#fff" d="M1024-719v166H0v-166h1024" id="aA"/><use transform="matrix(0.01953125,0,0,0.01953125,0,0)" xlink:href="#aA" id="c"/><path fill="#fff" d="M577 24c-279 0-473-224-473-580 0-354 195-576 474-576 218 0 287 134 324 193h14v-551h180V0H922v-173h-20C865-111 790 24 577 24zm27-161c203 0 314-172 314-421 0-247-108-413-314-413-212 0-317 181-317 413 0 235 108 421 317 421" id="aB"/><path fill="#fff" d="M158 418v-1536h174v179h20c37-59 106-193 324-193 279 0 474 222 474 576 0 356-194 580-473 580-213 0-288-135-325-197h-14v591H158zm492-555c209 0 317-186 317-421 0-232-105-413-317-413-206 0-314 166-314 413 0 249 111 421 314 421" id="aC"/><path fill="#fff" d="M598-1118v154H368v674c0 100 37 144 132 144 23 0 62-6 92-12L629-6c-37 13-88 20-134 20-193 0-307-107-307-290v-688H20v-154h168v-266h180v266h230" id="aD"/><path fill="#fff" d="M158 0v-1118h180V0H158zm91-1301c-68 0-125-53-125-119s57-119 125-119c69 0 126 53 126 119s-57 119-126 119" id="aE"/><path fill="#fff" d="M481 0L54-1118h197c107 314 236 620 325 951 87-331 217-637 324-951h197L670 0H481" id="aF"/><g id="d"><use transform="matrix(0.01953125,0,0,0.01953125,0,0)" xlink:href="#at"/><use transform="matrix(0.01953125,0,0,0.01953125,27.59765625,0)" xlink:href="#aB"/><use transform="matrix(0.01953125,0,0,0.01953125,52.08984375,0)" xlink:href="#aw"/><use transform="matrix(0.01953125,0,0,0.01953125,74.55078125,0)" xlink:href="#aC"/><use transform="matrix(0.01953125,0,0,0.01953125,99.04296875,0)" xlink:href="#aD"/><use transform="matrix(0.01953125,0,0,0.01953125,112.12890625,0)" xlink:href="#aE"/><use transform="matrix(0.01953125,0,0,0.01953125,121.81640625,0)" xlink:href="#aF"/><use transform="matrix(0.01953125,0,0,0.01953125,143.515625,0)" xlink:href="#ay"/></g><path fill="#fff" d="M98-1322v-168h1126v168H757V0H567v-1322H98" id="aG"/><path fill="#fff" d="M537 14c-226 0-379-139-379-422v-710h180v695c0 172 97 275 253 275 160 0 281-109 281-300v-670h181V0H879v-209C806-46 684 14 537 14" id="aH"/><path fill="#fff" d="M613 24c-304 0-509-231-509-576 0-350 205-580 509-580 305 0 511 230 511 580 0 345-206 576-511 576zm0-161c226 0 329-195 329-415 0-222-103-419-329-419-223 0-326 196-326 419 0 220 103 415 326 415" id="aI"/><path fill="#fff" d="M338-670V0H158v-1118h173l1 207c72-158 192-221 342-221 226 0 378 139 378 422V0H872v-695c0-172-96-275-252-275-161 0-282 109-282 300" id="aJ"/><path fill="#fff" d="M611 442c-248 0-391-105-460-228l146-94c47 65 117 165 314 165 178 0 307-82 307-266v-224h-17C863-141 792-18 576-18c-268 0-472-195-472-546 0-346 197-568 476-568 216 0 288 133 326 193h17v-179h175V29c0 289-215 413-487 413zm-5-620c203 0 314-146 314-390 0-237-108-403-314-403-213 0-319 180-319 403 0 230 109 390 319 390" id="aK"/><g id="e"><use transform="matrix(0.01953125,0,0,0.01953125,0,0)" xlink:href="#aG"/><use transform="matrix(0.01953125,0,0,0.01953125,22.87109375,0)" xlink:href="#aH"/><use transform="matrix(0.01953125,0,0,0.01953125,46.5234375,0)" xlink:href="#aD"/><use transform="matrix(0.01953125,0,0,0.01953125,59.21875,0)" xlink:href="#aI"/><use transform="matrix(0.01953125,0,0,0.01953125,83.203125,0)" xlink:href="#az"/><use transform="matrix(0.01953125,0,0,0.01953125,98.88671875,0)" xlink:href="#aE"/><use transform="matrix(0.01953125,0,0,0.01953125,108.57421875,0)" xlink:href="#aJ"/><use transform="matrix(0.01953125,0,0,0.01953125,132.20703125,0)" xlink:href="#aK"/></g><path fill="#fff" d="M613 24c-304 0-509-231-509-576 0-350 205-580 509-580 216 0 392 114 453 309l-173 49c-33-115-133-197-280-197-223 0-326 196-326 419 0 220 103 415 326 415 150 0 252-85 285-206l172 49C1010-95 832 24 613 24" id="aL"/><path fill="#fff" d="M338-670V0H158v-1490h180v566c73-149 190-208 336-208 226 0 379 139 379 422V0H872v-695c0-172-96-275-252-275-161 0-282 109-282 300" id="aM"/><g id="f"><use transform="matrix(0.01953125,0,0,0.01953125,0,0)" xlink:href="#at"/><use transform="matrix(0.01953125,0,0,0.01953125,27.59765625,0)" xlink:href="#az"/><use transform="matrix(0.01953125,0,0,0.01953125,41.9921875,0)" xlink:href="#aL"/><use transform="matrix(0.01953125,0,0,0.01953125,64.84375,0)" xlink:href="#aM"/><use transform="matrix(0.01953125,0,0,0.01953125,88.49609375,0)" xlink:href="#aE"/><use transform="matrix(0.01953125,0,0,0.01953125,98.18359375,0)" xlink:href="#aD"/><use transform="matrix(0.01953125,0,0,0.01953125,110.87890625,0)" xlink:href="#ay"/><use transform="matrix(0.01953125,0,0,0.01953125,134.19921875,0)" xlink:href="#aL"/><use transform="matrix(0.01953125,0,0,0.01953125,157.05078125,0)" xlink:href="#aD"/><use transform="matrix(0.01953125,0,0,0.01953125,170.13671875,0)" xlink:href="#aH"/><use transform="matrix(0.01953125,0,0,0.01953125,193.7890625,0)" xlink:href="#az"/><use transform="matrix(0.01953125,0,0,0.01953125,208.18359375,0)" xlink:href="#ay"/></g><path d="M52 0l541-1490h220L1361 0h-200l-149-416H398L254 0H52zm404-582h497c-103-290-145-390-251-756-108 377-145 460-246 756" id="aN"/><path d="M370-1490V0H180v-1490h190" id="aO"/><g id="g"><use transform="matrix(0.008680555555555556,0,0,0.008680555555555556,0,0)" xlink:href="#aN"/><use transform="matrix(0.008680555555555556,0,0,0.008680555555555556,12.265625,0)" xlink:href="#aO"/></g><path d="M180 0v-1490h190v1322h690V0H180" id="aP"/><path d="M471 26C259 26 90-98 90-318c0-256 228-303 435-329 202-27 287-16 287-108 0-139-79-219-234-219-161 0-248 86-283 164l-173-57c86-203 278-265 451-265 150 0 419 46 419 395V0H815v-152h-12C765-73 660 26 471 26zm31-159c199 0 310-134 310-271v-155c-30 35-226 55-295 64-131 17-246 59-246 186 0 116 97 176 231 176" id="aQ"/><path d="M140 405l46-156c120 36 205 19 263-150l32-93L54-1118h197c107 313 237 620 324 950 87-331 219-637 326-950h196L606 167c-68 178-176 259-334 259-64 0-113-12-132-21" id="aR"/><path d="M628 24c-324 0-524-230-524-574 0-343 198-582 503-582 237 0 487 146 487 559v75H286c9 234 145 362 343 362 132 0 231-58 273-172l174 48C1024-91 857 24 628 24zM287-650h624c-17-190-120-322-304-322-192 0-309 151-320 322" id="aS"/><path d="M158 0v-1118h174v172h12c41-113 157-188 290-188 26 0 70 2 91 3v181c-11-2-60-10-108-10-161 0-279 109-279 260V0H158" id="aT"/><g id="h"><use transform="matrix(0.008680555555555556,0,0,0.008680555555555556,0,0)" xlink:href="#aP"/><use transform="matrix(0.008680555555555556,0,0,0.008680555555555556,10.052083333333334,0)" xlink:href="#aQ"/><use transform="matrix(0.008680555555555556,0,0,0.008680555555555556,19.774305555555557,0)" xlink:href="#aR"/><use transform="matrix(0.008680555555555556,0,0,0.008680555555555556,29.41840277777778,0)" xlink:href="#aS"/><use transform="matrix(0.008680555555555556,0,0,0.008680555555555556,39.782986111111114,0)" xlink:href="#aT"/></g><path d="M1024-719v166H0v-166h1024" id="aU"/><use transform="matrix(0.008680555555555556,0,0,0.008680555555555556,0,0)" xlink:href="#aU" id="i"/><path d="M577 24c-279 0-473-224-473-580 0-354 195-576 474-576 218 0 287 134 324 193h14v-551h180V0H922v-173h-20C865-111 790 24 577 24zm27-161c203 0 314-172 314-421 0-247-108-413-314-413-212 0-317 181-317 413 0 235 108 421 317 421" id="aV"/><path d="M158 418v-1536h174v179h20c37-59 106-193 324-193 279 0 474 222 474 576 0 356-194 580-473 580-213 0-288-135-325-197h-14v591H158zm492-555c209 0 317-186 317-421 0-232-105-413-317-413-206 0-314 166-314 413 0 249 111 421 314 421" id="aW"/><path d="M598-1118v154H368v674c0 100 37 144 132 144 23 0 62-6 92-12L629-6c-37 13-88 20-134 20-193 0-307-107-307-290v-688H20v-154h168v-266h180v266h230" id="aX"/><path d="M158 0v-1118h180V0H158zm91-1301c-68 0-125-53-125-119s57-119 125-119c69 0 126 53 126 119s-57 119-126 119" id="aY"/><path d="M481 0L54-1118h197c107 314 236 620 325 951 87-331 217-637 324-951h197L670 0H481" id="aZ"/><g id="j"><use transform="matrix(0.008680555555555556,0,0,0.008680555555555556,0,0)" xlink:href="#aN"/><use transform="matrix(0.008680555555555556,0,0,0.008680555555555556,12.265625,0)" xlink:href="#aV"/><use transform="matrix(0.008680555555555556,0,0,0.008680555555555556,23.151041666666668,0)" xlink:href="#aQ"/><use transform="matrix(0.008680555555555556,0,0,0.008680555555555556,33.13368055555556,0)" xlink:href="#aW"/><use transform="matrix(0.008680555555555556,0,0,0.008680555555555556,44.01909722222223,0)" xlink:href="#aX"/><use transform="matrix(0.008680555555555556,0,0,0.008680555555555556,49.83506944444445,0)" xlink:href="#aY"/><use transform="matrix(0.008680555555555556,0,0,0.008680555555555556,54.14062500000001,0)" xlink:href="#aZ"/><use transform="matrix(0.008680555555555556,0,0,0.008680555555555556,63.78472222222223,0)" xlink:href="#aS"/></g><path d="M98-1322v-168h1126v168H757V0H567v-1322H98" id="ba"/><path d="M537 14c-226 0-379-139-379-422v-710h180v695c0 172 97 275 253 275 160 0 281-109 281-300v-670h181V0H879v-209C806-46 684 14 537 14" id="bb"/><path d="M613 24c-304 0-509-231-509-576 0-350 205-580 509-580 305 0 511 230 511 580 0 345-206 576-511 576zm0-161c226 0 329-195 329-415 0-222-103-419-329-419-223 0-326 196-326 419 0 220 103 415 326 415" id="bc"/><path d="M338-670V0H158v-1118h173l1 207c72-158 192-221 342-221 226 0 378 139 378 422V0H872v-695c0-172-96-275-252-275-161 0-282 109-282 300" id="bd"/><path d="M611 442c-248 0-391-105-460-228l146-94c47 65 117 165 314 165 178 0 307-82 307-266v-224h-17C863-141 792-18 576-18c-268 0-472-195-472-546 0-346 197-568 476-568 216 0 288 133 326 193h17v-179h175V29c0 289-215 413-487 413zm-5-620c203 0 314-146 314-390 0-237-108-403-314-403-213 0-319 180-319 403 0 230 109 390 319 390" id="be"/><g id="k"><use transform="matrix(0.008680555555555556,0,0,0.008680555555555556,0,0)" xlink:href="#ba"/><use transform="matrix(0.008680555555555556,0,0,0.008680555555555556,10.164930555555555,0)" xlink:href="#bb"/><use transform="matrix(0.008680555555555556,0,0,0.008680555555555556,20.677083333333336,0)" xlink:href="#aX"/><use transform="matrix(0.008680555555555556,0,0,0.008680555555555556,26.319444444444446,0)" xlink:href="#bc"/><use transform="matrix(0.008680555555555556,0,0,0.008680555555555556,36.97916666666667,0)" xlink:href="#aT"/><use transform="matrix(0.008680555555555556,0,0,0.008680555555555556,43.949652777777786,0)" xlink:href="#aY"/><use transform="matrix(0.008680555555555556,0,0,0.008680555555555556,48.25520833333334,0)" xlink:href="#bd"/><use transform="matrix(0.008680555555555556,0,0,0.008680555555555556,58.758680555555564,0)" xlink:href="#be"/></g><path d="M218-607c0-325 108-727 258-974h175c-155 315-250 682-250 974 0 265 78 531 250 886H476C306-10 218-315 218-607" id="bf"/><path d="M180 0v-1490h510c348 0 508 209 508 474 0 266-160 477-507 477H370V0H180zm190-706h312c236 0 327-133 327-310 0-176-91-307-329-307H370v617" id="bg"/><path d="M613 24c-304 0-509-231-509-576 0-350 205-580 509-580 216 0 392 114 453 309l-173 49c-33-115-133-197-280-197-223 0-326 196-326 419 0 220 103 415 326 415 150 0 252-85 285-206l172 49C1010-95 832 24 613 24" id="bh"/><path d="M96 279C273-86 346-350 346-607c0-292-95-659-250-974h175c150 246 258 650 258 974 0 297-91 602-258 886H96" id="bi"/><g id="l"><use transform="matrix(0.008680555555555556,0,0,0.008680555555555556,0,0)" xlink:href="#bf"/><use transform="matrix(0.008680555555555556,0,0,0.008680555555555556,6.484375,0)" xlink:href="#bg"/><use transform="matrix(0.008680555555555556,0,0,0.008680555555555556,17.838541666666668,0)" xlink:href="#aT"/><use transform="matrix(0.008680555555555556,0,0,0.008680555555555556,24.236111111111118,0)" xlink:href="#bc"/><use transform="matrix(0.008680555555555556,0,0,0.008680555555555556,34.895833333333336,0)" xlink:href="#aV"/><use transform="matrix(0.008680555555555556,0,0,0.008680555555555556,45.78125,0)" xlink:href="#bb"/><use transform="matrix(0.008680555555555556,0,0,0.008680555555555556,56.29340277777778,0)" xlink:href="#bh"/><use transform="matrix(0.008680555555555556,0,0,0.008680555555555556,66.44965277777777,0)" xlink:href="#aX"/><use transform="matrix(0.008680555555555556,0,0,0.008680555555555556,72.265625,0)" xlink:href="#aY"/><use transform="matrix(0.008680555555555556,0,0,0.008680555555555556,76.57118055555556,0)" xlink:href="#bc"/><use transform="matrix(0.008680555555555556,0,0,0.008680555555555556,87.23090277777779,0)" xlink:href="#bd"/><use transform="matrix(0.008680555555555556,0,0,0.008680555555555556,97.73437500000001,0)" xlink:href="#bi"/></g><path d="M657 26c-323 0-524-166-541-416h195c15 169 171 246 346 246 202 0 356-106 356-265 5-203-294-238-475-293-239-73-380-191-380-389 0-252 224-419 512-419 294 0 499 171 508 396H992c-17-145-151-228-328-228-193 0-321 102-321 242 0 156 175 211 284 241l149 41c160 44 422 134 422 412 0 244-197 432-541 432" id="bj"/><path d="M538 24C308 24 148-78 108-271l171-41c32 123 123 178 257 178 156 0 256-77 256-169 0-77-54-128-164-154l-186-44c-203-48-300-148-300-305 0-192 176-326 414-326 230 0 351 112 402 269l-163 42c-31-80-94-158-238-158-133 0-233 69-233 162 0 83 57 129 188 160l169 40c203 48 298 149 298 302 0 196-179 339-441 339" id="bk"/><g id="m"><use transform="matrix(0.010850694444444444,0,0,0.010850694444444444,0,0)" xlink:href="#bj"/><use transform="matrix(0.010850694444444444,0,0,0.010850694444444444,14.2578125,0)" xlink:href="#aS"/><use transform="matrix(0.010850694444444444,0,0,0.010850694444444444,27.213541666666664,0)" xlink:href="#bk"/><use transform="matrix(0.010850694444444444,0,0,0.010850694444444444,38.94314236111111,0)" xlink:href="#bk"/><use transform="matrix(0.010850694444444444,0,0,0.010850694444444444,50.67274305555556,0)" xlink:href="#aY"/><use transform="matrix(0.010850694444444444,0,0,0.010850694444444444,56.054687499999986,0)" xlink:href="#bc"/><use transform="matrix(0.010850694444444444,0,0,0.010850694444444444,69.37934027777777,0)" xlink:href="#bd"/></g><g id="n"><use transform="matrix(0.010850694444444444,0,0,0.010850694444444444,0,0)" xlink:href="#bj"/><use transform="matrix(0.010850694444444444,0,0,0.010850694444444444,14.2578125,0)" xlink:href="#aS"/><use transform="matrix(0.010850694444444444,0,0,0.010850694444444444,27.213541666666664,0)" xlink:href="#aT"/><use transform="matrix(0.010850694444444444,0,0,0.010850694444444444,35.92664930555555,0)" xlink:href="#aZ"/><use transform="matrix(0.010850694444444444,0,0,0.010850694444444444,48.41579861111111,0)" xlink:href="#aY"/><use transform="matrix(0.010850694444444444,0,0,0.010850694444444444,53.79774305555556,0)" xlink:href="#bh"/><use transform="matrix(0.010850694444444444,0,0,0.010850694444444444,66.49305555555554,0)" xlink:href="#aS"/></g><g id="o"><use transform="matrix(0.010850694444444444,0,0,0.010850694444444444,0,0)" xlink:href="#bk"/><use transform="matrix(0.010850694444444444,0,0,0.010850694444444444,11.729600694444445,0)" xlink:href="#aS"/><use transform="matrix(0.010850694444444444,0,0,0.010850694444444444,24.68532986111111,0)" xlink:href="#bk"/><use transform="matrix(0.010850694444444444,0,0,0.010850694444444444,36.41493055555556,0)" xlink:href="#bk"/><use transform="matrix(0.010850694444444444,0,0,0.010850694444444444,48.14453125,0)" xlink:href="#aY"/><use transform="matrix(0.010850694444444444,0,0,0.010850694444444444,53.52647569444444,0)" xlink:href="#bc"/><use transform="matrix(0.010850694444444444,0,0,0.010850694444444444,66.85112847222221,0)" xlink:href="#bd"/></g><g id="p"><use transform="matrix(0.010850694444444444,0,0,0.010850694444444444,0,0)" xlink:href="#bk"/><use transform="matrix(0.010850694444444444,0,0,0.010850694444444444,11.729600694444445,0)" xlink:href="#aX"/><use transform="matrix(0.010850694444444444,0,0,0.010850694444444444,19.108072916666668,0)" xlink:href="#aQ"/><use transform="matrix(0.010850694444444444,0,0,0.010850694444444444,31.586371527777775,0)" xlink:href="#aX"/><use transform="matrix(0.010850694444444444,0,0,0.010850694444444444,38.639322916666664,0)" xlink:href="#aS"/></g><path d="M593-100v-404H195v-159h398v-403h169v403h398v159H762v404H593" id="bl"/><use transform="matrix(0.010850694444444444,0,0,0.010850694444444444,0,0)" xlink:href="#bl" id="q"/><g id="r"><use transform="matrix(0.010850694444444444,0,0,0.010850694444444444,0,0)" xlink:href="#bb"/><use transform="matrix(0.010850694444444444,0,0,0.010850694444444444,13.140190972222221,0)" xlink:href="#bk"/><use transform="matrix(0.010850694444444444,0,0,0.010850694444444444,24.869791666666664,0)" xlink:href="#aS"/><use transform="matrix(0.010850694444444444,0,0,0.010850694444444444,37.82552083333333,0)" xlink:href="#aT"/></g><g id="s"><use transform="matrix(0.010850694444444444,0,0,0.010850694444444444,0,0)" xlink:href="#aS"/><use transform="matrix(0.010850694444444444,0,0,0.010850694444444444,12.52170138888889,0)" xlink:href="#aZ"/><use transform="matrix(0.010850694444444444,0,0,0.010850694444444444,24.576822916666664,0)" xlink:href="#aS"/><use transform="matrix(0.010850694444444444,0,0,0.010850694444444444,37.53255208333333,0)" xlink:href="#bd"/><use transform="matrix(0.010850694444444444,0,0,0.010850694444444444,50.66189236111111,0)" xlink:href="#aX"/><use transform="matrix(0.010850694444444444,0,0,0.010850694444444444,57.71484375,0)" xlink:href="#bk"/></g><path d="M783 20c-382 0-661-292-661-764 0-473 279-766 661-766 302 0 548 182 601 489h-190c-42-204-217-313-411-313-268 0-476 208-476 590 0 381 209 588 476 588 195 0 369-110 411-313h190c-52 303-296 489-601 489" id="bm"/><path d="M65 0l393-574-370-544h210c88 136 192 297 267 435 67-142 176-302 264-435h206L661-564 1053 0H844c-94-144-206-310-287-458C484-308 366-142 273 0H65" id="bn"/><g id="t"><use transform="matrix(0.010850694444444444,0,0,0.010850694444444444,0,0)" xlink:href="#bm"/><use transform="matrix(0.010850694444444444,0,0,0.010850694444444444,16.23263888888889,0)" xlink:href="#bc"/><use transform="matrix(0.010850694444444444,0,0,0.010850694444444444,29.557291666666664,0)" xlink:href="#bd"/><use transform="matrix(0.010850694444444444,0,0,0.010850694444444444,42.68663194444444,0)" xlink:href="#aX"/><use transform="matrix(0.010850694444444444,0,0,0.010850694444444444,49.73958333333333,0)" xlink:href="#aS"/><use transform="matrix(0.010850694444444444,0,0,0.010850694444444444,62.19618055555555,0)" xlink:href="#bn"/><use transform="matrix(0.010850694444444444,0,0,0.010850694444444444,74.76128472222223,0)" xlink:href="#aX"/></g><path d="M180 0v-1490h270l367 940c28 72 75 218 110 339 35-117 81-264 110-339l362-940h271V0h-187c2-448-5-837 7-1287-157 497-311 829-483 1287H842C666-458 514-784 354-1284c12 438 5 843 7 1284H180" id="bo"/><path d="M158 0v-1118h175l1 205c55-151 181-225 313-225 147 0 245 90 285 228 53-141 190-228 352-228 194 0 352 125 352 384V0h-181v-749c0-161-105-225-225-225-151 0-243 103-243 244V0H807v-767c0-124-93-207-219-207-131 0-250 92-250 270V0H158" id="bp"/><g id="u"><use transform="matrix(0.010850694444444444,0,0,0.010850694444444444,0,0)" xlink:href="#bo"/><use transform="matrix(0.010850694444444444,0,0,0.010850694444444444,20.07378472222222,0)" xlink:href="#aS"/><use transform="matrix(0.010850694444444444,0,0,0.010850694444444444,33.029513888888886,0)" xlink:href="#bp"/><use transform="matrix(0.010850694444444444,0,0,0.010850694444444444,52.49565972222221,0)" xlink:href="#bc"/><use transform="matrix(0.010850694444444444,0,0,0.010850694444444444,65.82031249999999,0)" xlink:href="#aT"/><use transform="matrix(0.010850694444444444,0,0,0.010850694444444444,74.53342013888889,0)" xlink:href="#aR"/></g><g id="v"><use transform="matrix(0.010850694444444444,0,0,0.010850694444444444,0,0)" xlink:href="#bc"/><use transform="matrix(0.010850694444444444,0,0,0.010850694444444444,13.324652777777777,0)" xlink:href="#bd"/><use transform="matrix(0.010850694444444444,0,0,0.010850694444444444,26.453993055555554,0)" xlink:href="#be"/><use transform="matrix(0.010850694444444444,0,0,0.010850694444444444,40.08246527777777,0)" xlink:href="#bc"/><use transform="matrix(0.010850694444444444,0,0,0.010850694444444444,53.40711805555556,0)" xlink:href="#aY"/><use transform="matrix(0.010850694444444444,0,0,0.010850694444444444,58.789062499999986,0)" xlink:href="#bd"/><use transform="matrix(0.010850694444444444,0,0,0.010850694444444444,71.91840277777777,0)" xlink:href="#be"/></g><g id="w"><use transform="matrix(0.010850694444444444,0,0,0.010850694444444444,0,0)" xlink:href="#bk"/><use transform="matrix(0.010850694444444444,0,0,0.010850694444444444,11.729600694444445,0)" xlink:href="#aS"/><use transform="matrix(0.010850694444444444,0,0,0.010850694444444444,24.68532986111111,0)" xlink:href="#bk"/><use transform="matrix(0.010850694444444444,0,0,0.010850694444444444,36.41493055555556,0)" xlink:href="#bk"/><use transform="matrix(0.010850694444444444,0,0,0.010850694444444444,48.14453125,0)" xlink:href="#aY"/><use transform="matrix(0.010850694444444444,0,0,0.010850694444444444,53.52647569444444,0)" xlink:href="#bc"/><use transform="matrix(0.010850694444444444,0,0,0.010850694444444444,66.85112847222221,0)" xlink:href="#bd"/></g><path d="M128 359l88-567h206L266 359H128" id="bq"/><g id="x"><use transform="matrix(0.010850694444444444,0,0,0.010850694444444444,0,0)" xlink:href="#bh"/><use transform="matrix(0.010850694444444444,0,0,0.010850694444444444,12.6953125,0)" xlink:href="#bc"/><use transform="matrix(0.010850694444444444,0,0,0.010850694444444444,26.01996527777778,0)" xlink:href="#bd"/><use transform="matrix(0.010850694444444444,0,0,0.010850694444444444,39.14930555555556,0)" xlink:href="#aX"/><use transform="matrix(0.010850694444444444,0,0,0.010850694444444444,46.20225694444445,0)" xlink:href="#aS"/><use transform="matrix(0.010850694444444444,0,0,0.010850694444444444,58.65885416666667,0)" xlink:href="#bn"/><use transform="matrix(0.010850694444444444,0,0,0.010850694444444444,71.22395833333334,0)" xlink:href="#aX"/><use transform="matrix(0.010850694444444444,0,0,0.010850694444444444,78.49392361111111,0)" xlink:href="#bq"/></g><g id="y"><use transform="matrix(0.010850694444444444,0,0,0.010850694444444444,0,0)" xlink:href="#aW"/><use transform="matrix(0.010850694444444444,0,0,0.010850694444444444,13.606770833333332,0)" xlink:href="#aT"/><use transform="matrix(0.010850694444444444,0,0,0.010850694444444444,22.31987847222222,0)" xlink:href="#aY"/><use transform="matrix(0.010850694444444444,0,0,0.010850694444444444,27.701822916666664,0)" xlink:href="#bc"/><use transform="matrix(0.010850694444444444,0,0,0.010850694444444444,41.02647569444444,0)" xlink:href="#aT"/></g><path d="M409 0L70-1118h191c89 329 165 560 243 925 75-353 154-601 240-925h192c85 325 161 564 235 922 77-354 157-598 244-922h191L1267 0h-179c-86-307-176-590-250-913C763-588 675-308 588 0H409" id="br"/><g id="z"><use transform="matrix(0.010850694444444444,0,0,0.010850694444444444,0,0)" xlink:href="#aQ"/><use transform="matrix(0.010850694444444444,0,0,0.010850694444444444,12.47829861111111,0)" xlink:href="#bd"/><use transform="matrix(0.010850694444444444,0,0,0.010850694444444444,25.60763888888889,0)" xlink:href="#bk"/><use transform="matrix(0.010850694444444444,0,0,0.010850694444444444,37.33723958333333,0)" xlink:href="#br"/><use transform="matrix(0.010850694444444444,0,0,0.010850694444444444,55.12152777777778,0)" xlink:href="#aS"/><use transform="matrix(0.010850694444444444,0,0,0.010850694444444444,68.07725694444444,0)" xlink:href="#aT"/><use transform="matrix(0.010850694444444444,0,0,0.010850694444444444,76.44314236111111,0)" xlink:href="#bk"/><use transform="matrix(0.010850694444444444,0,0,0.010850694444444444,88.17274305555556,0)" xlink:href="#bq"/></g><g id="A"><use transform="matrix(0.010850694444444444,0,0,0.010850694444444444,0,0)" xlink:href="#aQ"/><use transform="matrix(0.010850694444444444,0,0,0.010850694444444444,12.47829861111111,0)" xlink:href="#aV"/><use transform="matrix(0.010850694444444444,0,0,0.010850694444444444,26.085069444444443,0)" xlink:href="#aQ"/><use transform="matrix(0.010850694444444444,0,0,0.010850694444444444,38.56336805555556,0)" xlink:href="#aW"/><use transform="matrix(0.010850694444444444,0,0,0.010850694444444444,52.170138888888886,0)" xlink:href="#aX"/><use transform="matrix(0.010850694444444444,0,0,0.010850694444444444,59.440104166666664,0)" xlink:href="#aY"/><use transform="matrix(0.010850694444444444,0,0,0.010850694444444444,64.82204861111111,0)" xlink:href="#aZ"/><use transform="matrix(0.010850694444444444,0,0,0.010850694444444444,76.8771701388889,0)" xlink:href="#aS"/></g><path d="M678-1118v154H420V0H240v-964H20v-154h220v-149c0-194 155-293 318-293 85 0 141 18 168 30l-50 154c-19-6-47-17-97-17-111 0-159 58-159 166v109h258" id="bs"/><path d="M677 24c-213 0-288-135-325-197h-20V0H158v-1490h180v551h14c37-59 106-193 324-193 279 0 474 222 474 576 0 356-194 580-473 580zm-27-161c209 0 317-186 317-421 0-232-105-413-317-413-206 0-314 166-314 413 0 249 111 421 314 421" id="bt"/><path d="M158 0v-1490h180v865h22l478-493h223L593-638 1096 0H865L456-523 338-412V0H158" id="bu"/><g id="B"><use transform="matrix(0.010850694444444444,0,0,0.010850694444444444,0,0)" xlink:href="#bs"/><use transform="matrix(0.010850694444444444,0,0,0.010850694444444444,7.573784722222222,0)" xlink:href="#aS"/><use transform="matrix(0.010850694444444444,0,0,0.010850694444444444,20.52951388888889,0)" xlink:href="#aS"/><use transform="matrix(0.010850694444444444,0,0,0.010850694444444444,33.48524305555556,0)" xlink:href="#aV"/><use transform="matrix(0.010850694444444444,0,0,0.010850694444444444,47.092013888888886,0)" xlink:href="#bt"/><use transform="matrix(0.010850694444444444,0,0,0.010850694444444444,60.9157986111111,0)" xlink:href="#aQ"/><use transform="matrix(0.010850694444444444,0,0,0.010850694444444444,73.39409722222221,0)" xlink:href="#bh"/><use transform="matrix(0.010850694444444444,0,0,0.010850694444444444,86.08940972222221,0)" xlink:href="#bu"/></g><g id="C"><use transform="matrix(0.010850694444444444,0,0,0.010850694444444444,0,0)" xlink:href="#aN"/><use transform="matrix(0.010850694444444444,0,0,0.010850694444444444,15.33203125,0)" xlink:href="#aO"/></g><path d="M784 20c-382 0-662-292-662-764 0-473 280-766 662-766s660 293 660 766c0 472-278 764-660 764zm0-176c266 0 475-207 475-588 0-383-209-590-475-590-268 0-477 208-477 590 0 380 209 588 477 588" id="bv"/><path d="M338-670V0H158v-1490h180v566c73-149 190-208 336-208 226 0 379 139 379 422V0H872v-695c0-172-96-275-252-275-161 0-282 109-282 300" id="bw"/><g id="D"><use transform="matrix(0.010850694444444444,0,0,0.010850694444444444,0,0)" xlink:href="#bv"/><use transform="matrix(0.010850694444444444,0,0,0.010850694444444444,16.9921875,0)" xlink:href="#aT"/><use transform="matrix(0.010850694444444444,0,0,0.010850694444444444,24.989149305555554,0)" xlink:href="#bh"/><use transform="matrix(0.010850694444444444,0,0,0.010850694444444444,37.68446180555556,0)" xlink:href="#bw"/><use transform="matrix(0.010850694444444444,0,0,0.010850694444444444,50.82465277777778,0)" xlink:href="#aS"/><use transform="matrix(0.010850694444444444,0,0,0.010850694444444444,63.78038194444444,0)" xlink:href="#bk"/><use transform="matrix(0.010850694444444444,0,0,0.010850694444444444,75.50998263888889,0)" xlink:href="#aX"/><use transform="matrix(0.010850694444444444,0,0,0.010850694444444444,82.77994791666666,0)" xlink:href="#aT"/><use transform="matrix(0.010850694444444444,0,0,0.010850694444444444,91.14583333333333,0)" xlink:href="#aQ"/><use transform="matrix(0.010850694444444444,0,0,0.010850694444444444,103.62413194444444,0)" xlink:href="#aX"/><use transform="matrix(0.010850694444444444,0,0,0.010850694444444444,110.89409722222221,0)" xlink:href="#aY"/><use transform="matrix(0.010850694444444444,0,0,0.010850694444444444,116.27604166666666,0)" xlink:href="#bc"/><use transform="matrix(0.010850694444444444,0,0,0.010850694444444444,129.60069444444443,0)" xlink:href="#bd"/></g><g id="E"><use transform="matrix(0.010850694444444444,0,0,0.010850694444444444,0,0)" xlink:href="#aW"/><use transform="matrix(0.010850694444444444,0,0,0.010850694444444444,13.606770833333332,0)" xlink:href="#aT"/><use transform="matrix(0.010850694444444444,0,0,0.010850694444444444,21.603732638888886,0)" xlink:href="#bc"/><use transform="matrix(0.010850694444444444,0,0,0.010850694444444444,34.928385416666664,0)" xlink:href="#bp"/><use transform="matrix(0.010850694444444444,0,0,0.010850694444444444,54.39453125,0)" xlink:href="#aW"/><use transform="matrix(0.010850694444444444,0,0,0.010850694444444444,68.00130208333333,0)" xlink:href="#aX"/></g><path d="M338-1490V0H158v-1490h180" id="bx"/><g id="F"><use transform="matrix(0.010850694444444444,0,0,0.010850694444444444,0,0)" xlink:href="#aX"/><use transform="matrix(0.010850694444444444,0,0,0.010850694444444444,7.052951388888888,0)" xlink:href="#aS"/><use transform="matrix(0.010850694444444444,0,0,0.010850694444444444,20.008680555555554,0)" xlink:href="#bp"/><use transform="matrix(0.010850694444444444,0,0,0.010850694444444444,39.474826388888886,0)" xlink:href="#aW"/><use transform="matrix(0.010850694444444444,0,0,0.010850694444444444,53.08159722222221,0)" xlink:href="#bx"/><use transform="matrix(0.010850694444444444,0,0,0.010850694444444444,58.46354166666666,0)" xlink:href="#aQ"/><use transform="matrix(0.010850694444444444,0,0,0.010850694444444444,70.94184027777777,0)" xlink:href="#aX"/><use transform="matrix(0.010850694444444444,0,0,0.010850694444444444,77.99479166666666,0)" xlink:href="#aS"/><use transform="matrix(0.010850694444444444,0,0,0.010850694444444444,90.95052083333333,0)" xlink:href="#bk"/><use transform="matrix(0.010850694444444444,0,0,0.010850694444444444,102.68012152777777,0)" xlink:href="#bq"/></g><g id="G"><use transform="matrix(0.010850694444444444,0,0,0.010850694444444444,0,0)" xlink:href="#bh"/><use transform="matrix(0.010850694444444444,0,0,0.010850694444444444,12.6953125,0)" xlink:href="#bc"/><use transform="matrix(0.010850694444444444,0,0,0.010850694444444444,26.01996527777778,0)" xlink:href="#bd"/><use transform="matrix(0.010850694444444444,0,0,0.010850694444444444,39.14930555555556,0)" xlink:href="#aX"/><use transform="matrix(0.010850694444444444,0,0,0.010850694444444444,46.20225694444445,0)" xlink:href="#aS"/><use transform="matrix(0.010850694444444444,0,0,0.010850694444444444,58.65885416666667,0)" xlink:href="#bn"/><use transform="matrix(0.010850694444444444,0,0,0.010850694444444444,71.22395833333334,0)" xlink:href="#aX"/></g><g id="H"><use transform="matrix(0.010850694444444444,0,0,0.010850694444444444,0,0)" xlink:href="#bp"/><use transform="matrix(0.010850694444444444,0,0,0.010850694444444444,19.466145833333332,0)" xlink:href="#be"/><use transform="matrix(0.010850694444444444,0,0,0.010850694444444444,33.09461805555556,0)" xlink:href="#bp"/><use transform="matrix(0.010850694444444444,0,0,0.010850694444444444,52.560763888888886,0)" xlink:href="#aX"/><use transform="matrix(0.010850694444444444,0,0,0.010850694444444444,59.830729166666664,0)" xlink:href="#bq"/></g><g id="I"><use transform="matrix(0.010850694444444444,0,0,0.010850694444444444,0,0)" xlink:href="#bh"/><use transform="matrix(0.010850694444444444,0,0,0.010850694444444444,12.6953125,0)" xlink:href="#bc"/><use transform="matrix(0.010850694444444444,0,0,0.010850694444444444,26.01996527777778,0)" xlink:href="#bd"/><use transform="matrix(0.010850694444444444,0,0,0.010850694444444444,38.82378472222222,0)" xlink:href="#aZ"/><use transform="matrix(0.010850694444444444,0,0,0.010850694444444444,50.87890625,0)" xlink:href="#aS"/><use transform="matrix(0.010850694444444444,0,0,0.010850694444444444,63.834635416666664,0)" xlink:href="#aT"/><use transform="matrix(0.010850694444444444,0,0,0.010850694444444444,72.20052083333333,0)" xlink:href="#bk"/><use transform="matrix(0.010850694444444444,0,0,0.010850694444444444,83.93012152777777,0)" xlink:href="#aQ"/><use transform="matrix(0.010850694444444444,0,0,0.010850694444444444,96.40842013888889,0)" xlink:href="#aX"/><use transform="matrix(0.010850694444444444,0,0,0.010850694444444444,103.67838541666666,0)" xlink:href="#aY"/><use transform="matrix(0.010850694444444444,0,0,0.010850694444444444,109.06032986111111,0)" xlink:href="#bc"/><use transform="matrix(0.010850694444444444,0,0,0.010850694444444444,122.38498263888887,0)" xlink:href="#bd"/></g><g id="J"><use transform="matrix(0.010850694444444444,0,0,0.010850694444444444,0,0)" xlink:href="#bs"/><use transform="matrix(0.010850694444444444,0,0,0.010850694444444444,8.22482638888889,0)" xlink:href="#bx"/><use transform="matrix(0.010850694444444444,0,0,0.010850694444444444,13.606770833333332,0)" xlink:href="#bc"/><use transform="matrix(0.010850694444444444,0,0,0.010850694444444444,26.529947916666664,0)" xlink:href="#br"/></g><path d="M600 0L52-1490h200c166 485 304 806 458 1336 156-533 285-846 449-1336h202L819 0H600" id="by"/><g id="K"><use transform="matrix(0.010850694444444444,0,0,0.010850694444444444,0,0)" xlink:href="#by"/><use transform="matrix(0.010850694444444444,0,0,0.010850694444444444,14.20355902777778,0)" xlink:href="#aS"/><use transform="matrix(0.010850694444444444,0,0,0.010850694444444444,27.159288194444443,0)" xlink:href="#bh"/><use transform="matrix(0.010850694444444444,0,0,0.010850694444444444,39.85460069444444,0)" xlink:href="#aX"/><use transform="matrix(0.010850694444444444,0,0,0.010850694444444444,46.90755208333333,0)" xlink:href="#bc"/><use transform="matrix(0.010850694444444444,0,0,0.010850694444444444,60.23220486111112,0)" xlink:href="#aT"/></g><path d="M645 0H180v-1490h484c435 0 692 280 692 742 0 466-257 748-711 748zM370-168h263c363 0 539-218 539-580 0-358-176-574-521-574H370v1154" id="bz"/><path d="M180 0v-1490h528c311 0 458 177 458 395 0 191-114 278-244 313v14c139 9 302 137 302 371 0 225-148 397-499 397H180zm190-168h350c232 0 321-102 321-231 0-149-120-277-311-277H370v508zm0-668h328c160 0 286-101 286-255 0-129-87-231-280-231H370v486" id="bA"/><g id="L"><use transform="matrix(0.010850694444444444,0,0,0.010850694444444444,0,0)" xlink:href="#bz"/><use transform="matrix(0.010850694444444444,0,0,0.010850694444444444,16.03732638888889,0)" xlink:href="#bA"/></g><g id="M"><use transform="matrix(0.010850694444444444,0,0,0.010850694444444444,0,0)" xlink:href="#bf"/><use transform="matrix(0.010850694444444444,0,0,0.010850694444444444,8.10546875,0)" xlink:href="#bg"/><use transform="matrix(0.010850694444444444,0,0,0.010850694444444444,22.298177083333332,0)" xlink:href="#aY"/><use transform="matrix(0.010850694444444444,0,0,0.010850694444444444,27.68012152777778,0)" xlink:href="#bd"/><use transform="matrix(0.010850694444444444,0,0,0.010850694444444444,40.80946180555556,0)" xlink:href="#aS"/><use transform="matrix(0.010850694444444444,0,0,0.010850694444444444,53.76519097222222,0)" xlink:href="#bh"/><use transform="matrix(0.010850694444444444,0,0,0.010850694444444444,66.46050347222223,0)" xlink:href="#bc"/><use transform="matrix(0.010850694444444444,0,0,0.010850694444444444,79.78515625,0)" xlink:href="#bd"/><use transform="matrix(0.010850694444444444,0,0,0.010850694444444444,92.91449652777777,0)" xlink:href="#aS"/><use transform="matrix(0.010850694444444444,0,0,0.010850694444444444,105.62065972222221,0)" xlink:href="#bi"/></g><g id="N"><use transform="matrix(0.010850694444444444,0,0,0.010850694444444444,0,0)" xlink:href="#aS"/><use transform="matrix(0.010850694444444444,0,0,0.010850694444444444,12.955729166666666,0)" xlink:href="#bp"/><use transform="matrix(0.010850694444444444,0,0,0.010850694444444444,32.421875,0)" xlink:href="#bt"/><use transform="matrix(0.010850694444444444,0,0,0.010850694444444444,46.02864583333333,0)" xlink:href="#aS"/><use transform="matrix(0.010850694444444444,0,0,0.010850694444444444,58.984374999999986,0)" xlink:href="#aV"/><use transform="matrix(0.010850694444444444,0,0,0.010850694444444444,72.59114583333333,0)" xlink:href="#aV"/><use transform="matrix(0.010850694444444444,0,0,0.010850694444444444,86.19791666666666,0)" xlink:href="#aY"/><use transform="matrix(0.010850694444444444,0,0,0.010850694444444444,91.57986111111111,0)" xlink:href="#bd"/><use transform="matrix(0.010850694444444444,0,0,0.010850694444444444,104.70920138888887,0)" xlink:href="#be"/><use transform="matrix(0.010850694444444444,0,0,0.010850694444444444,118.33767361111109,0)" xlink:href="#bk"/></g><g id="O"><use transform="matrix(0.010850694444444444,0,0,0.010850694444444444,0,0)" xlink:href="#bx"/><use transform="matrix(0.010850694444444444,0,0,0.010850694444444444,5.381944444444445,0)" xlink:href="#aS"/><use transform="matrix(0.010850694444444444,0,0,0.010850694444444444,18.5546875,0)" xlink:href="#aQ"/><use transform="matrix(0.010850694444444444,0,0,0.010850694444444444,31.03298611111111,0)" xlink:href="#aT"/><use transform="matrix(0.010850694444444444,0,0,0.010850694444444444,39.74609375,0)" xlink:href="#bd"/><use transform="matrix(0.010850694444444444,0,0,0.010850694444444444,52.87543402777778,0)" xlink:href="#aY"/><use transform="matrix(0.010850694444444444,0,0,0.010850694444444444,58.25737847222222,0)" xlink:href="#bd"/><use transform="matrix(0.010850694444444444,0,0,0.010850694444444444,71.38671875,0)" xlink:href="#be"/></g><g id="P"><use transform="matrix(0.010850694444444444,0,0,0.010850694444444444,0,0)" xlink:href="#bw"/><use transform="matrix(0.010850694444444444,0,0,0.010850694444444444,13.140190972222221,0)" xlink:href="#aY"/><use transform="matrix(0.010850694444444444,0,0,0.010850694444444444,18.522135416666664,0)" xlink:href="#bk"/><use transform="matrix(0.010850694444444444,0,0,0.010850694444444444,30.251736111111104,0)" xlink:href="#aX"/><use transform="matrix(0.010850694444444444,0,0,0.010850694444444444,37.30468749999999,0)" xlink:href="#bc"/><use transform="matrix(0.010850694444444444,0,0,0.010850694444444444,50.62934027777778,0)" xlink:href="#aT"/><use transform="matrix(0.010850694444444444,0,0,0.010850694444444444,59.34244791666666,0)" xlink:href="#aR"/></g><g id="Q"><use transform="matrix(0.010850694444444444,0,0,0.010850694444444444,0,0)" xlink:href="#aT"/><use transform="matrix(0.010850694444444444,0,0,0.010850694444444444,7.996961805555555,0)" xlink:href="#aS"/><use transform="matrix(0.010850694444444444,0,0,0.010850694444444444,20.95269097222222,0)" xlink:href="#aX"/><use transform="matrix(0.010850694444444444,0,0,0.010850694444444444,28.22265625,0)" xlink:href="#aT"/><use transform="matrix(0.010850694444444444,0,0,0.010850694444444444,36.935763888888886,0)" xlink:href="#aY"/><use transform="matrix(0.010850694444444444,0,0,0.010850694444444444,42.31770833333333,0)" xlink:href="#aS"/><use transform="matrix(0.010850694444444444,0,0,0.010850694444444444,54.83940972222221,0)" xlink:href="#aZ"/><use transform="matrix(0.010850694444444444,0,0,0.010850694444444444,67.22005208333333,0)" xlink:href="#aQ"/><use transform="matrix(0.010850694444444444,0,0,0.010850694444444444,79.69835069444444,0)" xlink:href="#bx"/></g><g id="R"><use transform="matrix(0.010850694444444444,0,0,0.010850694444444444,0,0)" xlink:href="#aP"/><use transform="matrix(0.010850694444444444,0,0,0.010850694444444444,12.565104166666666,0)" xlink:href="#aP"/><use transform="matrix(0.010850694444444444,0,0,0.010850694444444444,25.130208333333332,0)" xlink:href="#bo"/></g><g id="S"><use transform="matrix(0.010850694444444444,0,0,0.010850694444444444,0,0)" xlink:href="#bg"/><use transform="matrix(0.010850694444444444,0,0,0.010850694444444444,14.192708333333332,0)" xlink:href="#aT"/><use transform="matrix(0.010850694444444444,0,0,0.010850694444444444,22.189670138888886,0)" xlink:href="#bc"/><use transform="matrix(0.010850694444444444,0,0,0.010850694444444444,35.080295138888886,0)" xlink:href="#aZ"/><use transform="matrix(0.010850694444444444,0,0,0.010850694444444444,47.56944444444444,0)" xlink:href="#aY"/><use transform="matrix(0.010850694444444444,0,0,0.010850694444444444,52.951388888888886,0)" xlink:href="#aV"/><use transform="matrix(0.010850694444444444,0,0,0.010850694444444444,66.55815972222221,0)" xlink:href="#aS"/><use transform="matrix(0.010850694444444444,0,0,0.010850694444444444,79.51388888888889,0)" xlink:href="#aT"/></g><path d="M789 20c-398 0-667-293-667-764 0-473 273-766 655-766 315 0 558 198 612 487h-196c-61-191-204-311-415-311-262 0-471 207-471 590 0 380 208 588 482 588 249 0 420-165 425-427H828v-166h572v163c0 370-256 606-611 606" id="bB"/><path d="M798-719v166H144v-166h654" id="bC"/><path d="M120-303v-155l652-1032h231v1020h202v167h-202V0H821v-303H120zm702-167v-782h-12L323-482v12h499" id="bD"/><g id="T"><use transform="matrix(0.010850694444444444,0,0,0.010850694444444444,0,0)" xlink:href="#bf"/><use transform="matrix(0.010850694444444444,0,0,0.010850694444444444,8.10546875,0)" xlink:href="#bB"/><use transform="matrix(0.010850694444444444,0,0,0.010850694444444444,24.68532986111111,0)" xlink:href="#bg"/><use transform="matrix(0.010850694444444444,0,0,0.010850694444444444,38.87803819444444,0)" xlink:href="#ba"/><use transform="matrix(0.010850694444444444,0,0,0.010850694444444444,51.584201388888886,0)" xlink:href="#bC"/><use transform="matrix(0.010850694444444444,0,0,0.010850694444444444,61.80555555555555,0)" xlink:href="#bD"/></g><path d="M692-1560L212 224H46l480-1784h166" id="bE"/><use transform="matrix(0.010850694444444444,0,0,0.010850694444444444,0,0)" xlink:href="#bE" id="U"/><g id="V"><use transform="matrix(0.010850694444444444,0,0,0.010850694444444444,0,0)" xlink:href="#aQ"/><use transform="matrix(0.010850694444444444,0,0,0.010850694444444444,12.47829861111111,0)" xlink:href="#bx"/><use transform="matrix(0.010850694444444444,0,0,0.010850694444444444,18.18576388888889,0)" xlink:href="#aX"/><use transform="matrix(0.010850694444444444,0,0,0.010850694444444444,25.455729166666664,0)" xlink:href="#bi"/></g><g id="W"><use transform="matrix(0.010850694444444444,0,0,0.010850694444444444,0,0)" xlink:href="#bx"/><use transform="matrix(0.010850694444444444,0,0,0.010850694444444444,5.381944444444445,0)" xlink:href="#aS"/><use transform="matrix(0.010850694444444444,0,0,0.010850694444444444,18.33767361111111,0)" xlink:href="#bk"/><use transform="matrix(0.010850694444444444,0,0,0.010850694444444444,30.06727430555556,0)" xlink:href="#bk"/><use transform="matrix(0.010850694444444444,0,0,0.010850694444444444,41.796875,0)" xlink:href="#bc"/><use transform="matrix(0.010850694444444444,0,0,0.010850694444444444,55.12152777777778,0)" xlink:href="#bd"/></g><g id="X"><use transform="matrix(0.010850694444444444,0,0,0.010850694444444444,0,0)" xlink:href="#be"/><use transform="matrix(0.010850694444444444,0,0,0.010850694444444444,13.628472222222221,0)" xlink:href="#aS"/><use transform="matrix(0.010850694444444444,0,0,0.010850694444444444,26.58420138888889,0)" xlink:href="#bd"/><use transform="matrix(0.010850694444444444,0,0,0.010850694444444444,39.713541666666664,0)" xlink:href="#aS"/><use transform="matrix(0.010850694444444444,0,0,0.010850694444444444,52.66927083333333,0)" xlink:href="#aT"/><use transform="matrix(0.010850694444444444,0,0,0.010850694444444444,61.035156249999986,0)" xlink:href="#aQ"/><use transform="matrix(0.010850694444444444,0,0,0.010850694444444444,73.5134548611111,0)" xlink:href="#aX"/><use transform="matrix(0.010850694444444444,0,0,0.010850694444444444,80.78342013888887,0)" xlink:href="#aY"/><use transform="matrix(0.010850694444444444,0,0,0.010850694444444444,86.16536458333331,0)" xlink:href="#bc"/><use transform="matrix(0.010850694444444444,0,0,0.010850694444444444,99.49001736111109,0)" xlink:href="#bd"/></g><use transform="matrix(0.010850694444444444,0,0,0.010850694444444444,0,0)" xlink:href="#bl" id="Y"/><path d="M784 20c-382 0-662-292-662-764 0-473 280-766 662-766s660 293 660 766c0 282-99 499-260 629l192 255h-198L1049-33C969 2 880 20 784 20zm-62-486h198l156 205c112-98 183-261 183-483 0-383-209-590-475-590-268 0-477 208-477 590 0 380 209 588 477 588 54 0 106-9 154-25" id="bF"/><path d="M580 20c-295 0-476-179-476-409 0-189 123-290 294-416-104-125-173-226-173-362 0-197 144-337 365-337 224 0 362 144 362 321 0 185-174 312-306 405l319 387c38-75 61-165 61-267h173c0 208-62 332-120 406L1287 0h-217L967-124C868-27 716 20 580 20zm279-273L507-675l-51 38c-123 91-167 162-167 254 0 147 113 246 278 246 107 0 210-41 292-116zM538-908l97-72c54-40 136-101 136-206 0-95-68-163-176-163-113 0-189 74-189 181 0 90 53 164 132 260" id="bG"/><g id="Z"><use transform="matrix(0.010850694444444444,0,0,0.010850694444444444,0,0)" xlink:href="#bF"/><use transform="matrix(0.010850694444444444,0,0,0.010850694444444444,16.9921875,0)" xlink:href="#bG"/><use transform="matrix(0.010850694444444444,0,0,0.010850694444444444,31.30425347222222,0)" xlink:href="#aN"/></g><g id="aa"><use transform="matrix(0.010850694444444444,0,0,0.010850694444444444,0,0)" xlink:href="#bj"/><use transform="matrix(0.010850694444444444,0,0,0.010850694444444444,14.2578125,0)" xlink:href="#aQ"/><use transform="matrix(0.010850694444444444,0,0,0.010850694444444444,26.73611111111111,0)" xlink:href="#bs"/><use transform="matrix(0.010850694444444444,0,0,0.010850694444444444,34.30989583333333,0)" xlink:href="#aS"/><use transform="matrix(0.010850694444444444,0,0,0.010850694444444444,47.265624999999986,0)" xlink:href="#aX"/><use transform="matrix(0.010850694444444444,0,0,0.010850694444444444,54.96961805555556,0)" xlink:href="#aR"/></g><use transform="matrix(0.010850694444444444,0,0,0.010850694444444444,0,0)" xlink:href="#bG" id="ab"/><g id="ac"><use transform="matrix(0.010850694444444444,0,0,0.010850694444444444,0,0)" xlink:href="#bB"/><use transform="matrix(0.010850694444444444,0,0,0.010850694444444444,16.57986111111111,0)" xlink:href="#bb"/><use transform="matrix(0.010850694444444444,0,0,0.010850694444444444,29.720052083333332,0)" xlink:href="#aQ"/><use transform="matrix(0.010850694444444444,0,0,0.010850694444444444,42.19835069444444,0)" xlink:href="#aT"/><use transform="matrix(0.010850694444444444,0,0,0.010850694444444444,50.195312499999986,0)" xlink:href="#aV"/><use transform="matrix(0.010850694444444444,0,0,0.010850694444444444,63.80208333333333,0)" xlink:href="#aT"/><use transform="matrix(0.010850694444444444,0,0,0.010850694444444444,72.16796875,0)" xlink:href="#aQ"/><use transform="matrix(0.010850694444444444,0,0,0.010850694444444444,84.64626736111111,0)" xlink:href="#aY"/><use transform="matrix(0.010850694444444444,0,0,0.010850694444444444,90.02821180555556,0)" xlink:href="#bx"/><use transform="matrix(0.010850694444444444,0,0,0.010850694444444444,95.41015625,0)" xlink:href="#bk"/></g><g id="ad"><use transform="matrix(0.010850694444444444,0,0,0.010850694444444444,0,0)" xlink:href="#bp"/><use transform="matrix(0.010850694444444444,0,0,0.010850694444444444,19.466145833333332,0)" xlink:href="#bc"/><use transform="matrix(0.010850694444444444,0,0,0.010850694444444444,32.79079861111111,0)" xlink:href="#aV"/><use transform="matrix(0.010850694444444444,0,0,0.010850694444444444,46.39756944444444,0)" xlink:href="#aS"/><use transform="matrix(0.010850694444444444,0,0,0.010850694444444444,59.35329861111111,0)" xlink:href="#aT"/><use transform="matrix(0.010850694444444444,0,0,0.010850694444444444,67.71918402777777,0)" xlink:href="#aQ"/><use transform="matrix(0.010850694444444444,0,0,0.010850694444444444,80.19748263888889,0)" xlink:href="#aX"/><use transform="matrix(0.010850694444444444,0,0,0.010850694444444444,87.46744791666666,0)" xlink:href="#aY"/><use transform="matrix(0.010850694444444444,0,0,0.010850694444444444,92.84939236111111,0)" xlink:href="#bc"/><use transform="matrix(0.010850694444444444,0,0,0.010850694444444444,106.17404513888887,0)" xlink:href="#bd"/><use transform="matrix(0.010850694444444444,0,0,0.010850694444444444,119.30338541666664,0)" xlink:href="#bq"/></g><g id="ae"><use transform="matrix(0.010850694444444444,0,0,0.010850694444444444,0,0)" xlink:href="#bw"/><use transform="matrix(0.010850694444444444,0,0,0.010850694444444444,13.140190972222221,0)" xlink:href="#aQ"/><use transform="matrix(0.010850694444444444,0,0,0.010850694444444444,25.618489583333332,0)" xlink:href="#bx"/><use transform="matrix(0.010850694444444444,0,0,0.010850694444444444,31.000434027777775,0)" xlink:href="#bx"/><use transform="matrix(0.010850694444444444,0,0,0.010850694444444444,36.38237847222222,0)" xlink:href="#bb"/><use transform="matrix(0.010850694444444444,0,0,0.010850694444444444,49.52256944444444,0)" xlink:href="#bh"/><use transform="matrix(0.010850694444444444,0,0,0.010850694444444444,62.21788194444444,0)" xlink:href="#aY"/><use transform="matrix(0.010850694444444444,0,0,0.010850694444444444,67.59982638888889,0)" xlink:href="#bd"/><use transform="matrix(0.010850694444444444,0,0,0.010850694444444444,80.72916666666666,0)" xlink:href="#aQ"/><use transform="matrix(0.010850694444444444,0,0,0.010850694444444444,93.20746527777777,0)" xlink:href="#aX"/><use transform="matrix(0.010850694444444444,0,0,0.010850694444444444,100.47743055555556,0)" xlink:href="#aY"/><use transform="matrix(0.010850694444444444,0,0,0.010850694444444444,105.85937499999997,0)" xlink:href="#bc"/><use transform="matrix(0.010850694444444444,0,0,0.010850694444444444,119.18402777777776,0)" xlink:href="#bd"/></g><g id="af"><use transform="matrix(0.010850694444444444,0,0,0.010850694444444444,0,0)" xlink:href="#aV"/><use transform="matrix(0.010850694444444444,0,0,0.010850694444444444,13.606770833333332,0)" xlink:href="#aS"/><use transform="matrix(0.010850694444444444,0,0,0.010850694444444444,26.5625,0)" xlink:href="#aX"/><use transform="matrix(0.010850694444444444,0,0,0.010850694444444444,33.615451388888886,0)" xlink:href="#aS"/><use transform="matrix(0.010850694444444444,0,0,0.010850694444444444,46.57118055555556,0)" xlink:href="#bh"/><use transform="matrix(0.010850694444444444,0,0,0.010850694444444444,59.26649305555555,0)" xlink:href="#aX"/><use transform="matrix(0.010850694444444444,0,0,0.010850694444444444,66.53645833333333,0)" xlink:href="#aY"/><use transform="matrix(0.010850694444444444,0,0,0.010850694444444444,71.91840277777777,0)" xlink:href="#bc"/><use transform="matrix(0.010850694444444444,0,0,0.010850694444444444,85.24305555555554,0)" xlink:href="#bd"/><use transform="matrix(0.010850694444444444,0,0,0.010850694444444444,98.37239583333331,0)" xlink:href="#bq"/></g><g id="ag"><use transform="matrix(0.010850694444444444,0,0,0.010850694444444444,0,0)" xlink:href="#bh"/><use transform="matrix(0.010850694444444444,0,0,0.010850694444444444,12.6953125,0)" xlink:href="#bc"/><use transform="matrix(0.010850694444444444,0,0,0.010850694444444444,26.01996527777778,0)" xlink:href="#bd"/><use transform="matrix(0.010850694444444444,0,0,0.010850694444444444,39.14930555555556,0)" xlink:href="#aX"/><use transform="matrix(0.010850694444444444,0,0,0.010850694444444444,46.20225694444445,0)" xlink:href="#aS"/><use transform="matrix(0.010850694444444444,0,0,0.010850694444444444,59.15798611111112,0)" xlink:href="#bd"/><use transform="matrix(0.010850694444444444,0,0,0.010850694444444444,72.28732638888889,0)" xlink:href="#aX"/></g><g id="ah"><use transform="matrix(0.010850694444444444,0,0,0.010850694444444444,0,0)" xlink:href="#aX"/><use transform="matrix(0.010850694444444444,0,0,0.010850694444444444,7.052951388888888,0)" xlink:href="#bc"/><use transform="matrix(0.010850694444444444,0,0,0.010850694444444444,20.377604166666664,0)" xlink:href="#aW"/><use transform="matrix(0.010850694444444444,0,0,0.010850694444444444,33.984375,0)" xlink:href="#aY"/><use transform="matrix(0.010850694444444444,0,0,0.010850694444444444,39.36631944444444,0)" xlink:href="#bh"/></g><g id="ai"><use transform="matrix(0.010850694444444444,0,0,0.010850694444444444,0,0)" xlink:href="#aZ"/><use transform="matrix(0.010850694444444444,0,0,0.010850694444444444,12.38064236111111,0)" xlink:href="#aQ"/><use transform="matrix(0.010850694444444444,0,0,0.010850694444444444,24.85894097222222,0)" xlink:href="#bx"/><use transform="matrix(0.010850694444444444,0,0,0.010850694444444444,30.240885416666664,0)" xlink:href="#aY"/><use transform="matrix(0.010850694444444444,0,0,0.010850694444444444,35.62282986111111,0)" xlink:href="#aV"/><use transform="matrix(0.010850694444444444,0,0,0.010850694444444444,49.22960069444444,0)" xlink:href="#aQ"/><use transform="matrix(0.010850694444444444,0,0,0.010850694444444444,61.70789930555555,0)" xlink:href="#aX"/><use transform="matrix(0.010850694444444444,0,0,0.010850694444444444,68.97786458333333,0)" xlink:href="#aY"/><use transform="matrix(0.010850694444444444,0,0,0.010850694444444444,74.35980902777777,0)" xlink:href="#bc"/><use transform="matrix(0.010850694444444444,0,0,0.010850694444444444,87.68446180555554,0)" xlink:href="#bd"/></g><g id="aj"><use transform="matrix(0.010850694444444444,0,0,0.010850694444444444,0,0)" xlink:href="#aN"/><use transform="matrix(0.010850694444444444,0,0,0.010850694444444444,15.33203125,0)" xlink:href="#aV"/><use transform="matrix(0.010850694444444444,0,0,0.010850694444444444,28.938802083333332,0)" xlink:href="#aQ"/><use transform="matrix(0.010850694444444444,0,0,0.010850694444444444,41.41710069444444,0)" xlink:href="#aW"/><use transform="matrix(0.010850694444444444,0,0,0.010850694444444444,55.02387152777778,0)" xlink:href="#aX"/><use transform="matrix(0.010850694444444444,0,0,0.010850694444444444,62.29383680555555,0)" xlink:href="#aY"/><use transform="matrix(0.010850694444444444,0,0,0.010850694444444444,67.67578125,0)" xlink:href="#aZ"/><use transform="matrix(0.010850694444444444,0,0,0.010850694444444444,79.73090277777779,0)" xlink:href="#aS"/></g><g id="ak"><use transform="matrix(0.010850694444444444,0,0,0.010850694444444444,0,0)" xlink:href="#bx"/><use transform="matrix(0.010850694444444444,0,0,0.010850694444444444,5.381944444444445,0)" xlink:href="#aS"/><use transform="matrix(0.010850694444444444,0,0,0.010850694444444444,18.5546875,0)" xlink:href="#aQ"/><use transform="matrix(0.010850694444444444,0,0,0.010850694444444444,31.03298611111111,0)" xlink:href="#aT"/><use transform="matrix(0.010850694444444444,0,0,0.010850694444444444,39.74609375,0)" xlink:href="#bd"/><use transform="matrix(0.010850694444444444,0,0,0.010850694444444444,52.87543402777778,0)" xlink:href="#aY"/><use transform="matrix(0.010850694444444444,0,0,0.010850694444444444,58.25737847222222,0)" xlink:href="#bd"/><use transform="matrix(0.010850694444444444,0,0,0.010850694444444444,71.38671875,0)" xlink:href="#be"/></g><path d="M295 13c-75 0-135-60-135-135s60-135 135-135 135 60 135 135S370 13 295 13zm0-809c-75 0-135-60-135-135s60-135 135-135 135 60 135 135-60 135-135 135" id="bH"/><g id="al"><use transform="matrix(0.010850694444444444,0,0,0.010850694444444444,0,0)" xlink:href="#bx"/><use transform="matrix(0.010850694444444444,0,0,0.010850694444444444,5.381944444444445,0)" xlink:href="#bc"/><use transform="matrix(0.010850694444444444,0,0,0.010850694444444444,18.70659722222222,0)" xlink:href="#bc"/><use transform="matrix(0.010850694444444444,0,0,0.010850694444444444,32.03125,0)" xlink:href="#aW"/><use transform="matrix(0.010850694444444444,0,0,0.010850694444444444,45.63802083333333,0)" xlink:href="#bH"/></g><g id="am"><use transform="matrix(0.010850694444444444,0,0,0.010850694444444444,0,0)" xlink:href="#bh"/><use transform="matrix(0.010850694444444444,0,0,0.010850694444444444,12.6953125,0)" xlink:href="#bc"/><use transform="matrix(0.010850694444444444,0,0,0.010850694444444444,26.01996527777778,0)" xlink:href="#bd"/><use transform="matrix(0.010850694444444444,0,0,0.010850694444444444,39.14930555555556,0)" xlink:href="#aX"/><use transform="matrix(0.010850694444444444,0,0,0.010850694444444444,46.20225694444445,0)" xlink:href="#aS"/><use transform="matrix(0.010850694444444444,0,0,0.010850694444444444,58.65885416666667,0)" xlink:href="#bn"/><use transform="matrix(0.010850694444444444,0,0,0.010850694444444444,71.22395833333334,0)" xlink:href="#aX"/></g><path d="M1100 0L984-116c165-167 335-338 528-481-76 15-153 28-230 28H256v-166h1026c77 0 154 13 230 28-192-142-364-314-528-481l116-116 652 652" id="bI"/><use transform="matrix(0.010850694444444444,0,0,0.010850694444444444,0,0)" xlink:href="#bI" id="an"/><g id="ao"><use transform="matrix(0.010850694444444444,0,0,0.010850694444444444,0,0)" xlink:href="#aT"/><use transform="matrix(0.010850694444444444,0,0,0.010850694444444444,7.996961805555555,0)" xlink:href="#aS"/><use transform="matrix(0.010850694444444444,0,0,0.010850694444444444,20.95269097222222,0)" xlink:href="#aX"/><use transform="matrix(0.010850694444444444,0,0,0.010850694444444444,28.22265625,0)" xlink:href="#aT"/><use transform="matrix(0.010850694444444444,0,0,0.010850694444444444,36.935763888888886,0)" xlink:href="#aY"/><use transform="matrix(0.010850694444444444,0,0,0.010850694444444444,42.31770833333333,0)" xlink:href="#aS"/><use transform="matrix(0.010850694444444444,0,0,0.010850694444444444,54.83940972222221,0)" xlink:href="#aZ"/><use transform="matrix(0.010850694444444444,0,0,0.010850694444444444,67.22005208333333,0)" xlink:href="#aQ"/><use transform="matrix(0.010850694444444444,0,0,0.010850694444444444,79.69835069444444,0)" xlink:href="#bx"/></g><use transform="matrix(0.010850694444444444,0,0,0.010850694444444444,0,0)" xlink:href="#bI" id="ap"/><g id="aq"><use transform="matrix(0.010850694444444444,0,0,0.010850694444444444,0,0)" xlink:href="#aT"/><use transform="matrix(0.010850694444444444,0,0,0.010850694444444444,7.996961805555555,0)" xlink:href="#aS"/><use transform="matrix(0.010850694444444444,0,0,0.010850694444444444,20.95269097222222,0)" xlink:href="#bk"/><use transform="matrix(0.010850694444444444,0,0,0.010850694444444444,32.682291666666664,0)" xlink:href="#aW"/><use transform="matrix(0.010850694444444444,0,0,0.010850694444444444,46.2890625,0)" xlink:href="#bc"/><use transform="matrix(0.010850694444444444,0,0,0.010850694444444444,59.61371527777778,0)" xlink:href="#bd"/><use transform="matrix(0.010850694444444444,0,0,0.010850694444444444,72.74305555555556,0)" xlink:href="#bk"/><use transform="matrix(0.010850694444444444,0,0,0.010850694444444444,84.47265625,0)" xlink:href="#aS"/></g><g id="ar"><use transform="matrix(0.010850694444444444,0,0,0.010850694444444444,0,0)" xlink:href="#bb"/><use transform="matrix(0.010850694444444444,0,0,0.010850694444444444,13.140190972222221,0)" xlink:href="#aW"/><use transform="matrix(0.010850694444444444,0,0,0.010850694444444444,26.746961805555554,0)" xlink:href="#aV"/><use transform="matrix(0.010850694444444444,0,0,0.010850694444444444,40.353732638888886,0)" xlink:href="#aQ"/><use transform="matrix(0.010850694444444444,0,0,0.010850694444444444,52.83203125,0)" xlink:href="#aX"/><use transform="matrix(0.010850694444444444,0,0,0.010850694444444444,59.8849826388889,0)" xlink:href="#aS"/><use transform="matrix(0.010850694444444444,0,0,0.010850694444444444,72.84071180555556,0)" xlink:href="#aV"/></g><g id="as"><use transform="matrix(0.010850694444444444,0,0,0.010850694444444444,0,0)" xlink:href="#bh"/><use transform="matrix(0.010850694444444444,0,0,0.010850694444444444,12.6953125,0)" xlink:href="#bc"/><use transform="matrix(0.010850694444444444,0,0,0.010850694444444444,26.01996527777778,0)" xlink:href="#bd"/><use transform="matrix(0.010850694444444444,0,0,0.010850694444444444,39.14930555555556,0)" xlink:href="#aX"/><use transform="matrix(0.010850694444444444,0,0,0.010850694444444444,46.20225694444445,0)" xlink:href="#aS"/><use transform="matrix(0.010850694444444444,0,0,0.010850694444444444,58.65885416666667,0)" xlink:href="#bn"/><use transform="matrix(0.010850694444444444,0,0,0.010850694444444444,71.22395833333334,0)" xlink:href="#aX"/></g></defs></g></svg>