<svg xmlns="http://www.w3.org/2000/svg" xmlns:xlink="http://www.w3.org/1999/xlink" xmlns:lucid="lucid" width="1930" height="2363.4"><g transform="translate(40.46666666666658 2816.3984375)" lucid:page-tab-id="0_0"><path d="M-500-3000h2500V0H-500z" fill="#fff"/><path d="M-39.47-2718a6 6 0 0 1 6-6h1916a6 6 0 0 1 6 6v2258a6 6 0 0 1-6 6h-1916a6 6 0 0 1-6-6z" stroke="#3a414a" stroke-width="2" fill="#fff"/><path d="M-39.47-2810.4a6 6 0 0 1 6-6H721.2a6 6 0 0 1 6 6v68.4a6 6 0 0 1-6 6H-33.47a6 6 0 0 1-6-6z" fill="#3a414a"/><use xlink:href="#a" transform="matrix(1,0,0,1,-23.466666666666583,-2800.3984375) translate(0 39.05078125)"/><use xlink:href="#b" transform="matrix(1,0,0,1,-23.466666666666583,-2800.3984375) translate(178.0859375 39.05078125)"/><use xlink:href="#c" transform="matrix(1,0,0,1,-23.466666666666583,-2800.3984375) translate(346.07421875 39.05078125)"/><use xlink:href="#d" transform="matrix(1,0,0,1,-23.466666666666583,-2800.3984375) translate(395.6640625 39.05078125)"/><use xlink:href="#e" transform="matrix(1,0,0,1,-23.466666666666583,-2800.3984375) translate(503.1640625 39.05078125)"/><path d="M40.53-1764h280v1230h-280z" fill="#fff" fill-opacity="0"/><path d="M58.03-1764H69.7m11.67 0h11.66m11.67 0h11.67m11.66 0h11.67m11.67 0h11.66m11.67 0h11.67m11.66 0h11.67m11.67 0h11.66m11.67 0h11.67m11.66 0h11.67m11.67 0h11.66m11.67 0h5.83v6.03m0 12.06v12.05m0 12.06v12.07m0 12.05v12.06m0 12.06v12.06m0 12.06v12.06m0 12.06v12.05m0 12.06v12.05m0 12.06v12.07m0 12.06v12.06m0 12.05v12.06m0 12.07v12.05m0 12.06v12.06m0 12.06v12.06m0 12.06v12.06m0 12.05v12.06m0 12.05v12.06m0 12.07v12.06m0 12.06v12.05m0 12.06v12.07m0 12.05v12.06m0 12.06v12.06m0 12.06v12.06m0 12.06v12.05m0 12.06v12.05m0 12.06v12.07m0 12.06v12.06m0 12.05v12.06m0 12.07v12.05m0 12.06v12.06m0 12.06v12.06m0 12.06v12.06m0 12.06v12.05m0 12.05v12.06m0 12.07v12.06m0 12.06v12.05m0 12.06v12.06m0 12.06v12.06m0 12.06v12.06m0 12.06v12.06m0 12.06v12.06m0 12.05v12.05m0 12.06v12.07m0 12.06v12.06m0 12.05v12.06m0 12.06v12.06m0 12.06v12.06m0 12.06v12.06m0 12.06v12.06m0 12.06v12.05m0 12.05v12.06m0 12.07v6.03h-5.83m-11.67 0h-11.66m-11.67 0h-11.67m-11.66 0H244.7m-11.67 0h-11.66m-11.67 0h-11.67m-11.66 0H174.7m-11.67 0h-11.66m-11.67 0h-11.67m-11.66 0H104.7m-11.67 0H81.37m-11.67 0H58.03m-11.66 0h-5.84v-6.03m0-12.06v-12.05m0-12.06v-12.06m0-12.06v-12.06m0-12.06v-12.06m0-12.06v-12.06m0-12.06v-12.06m0-12.05v-12.05m0-12.06v-12.07m0-12.06v-12.06m0-12.05v-12.06m0-12.06v-12.06m0-12.06v-12.06m0-12.06v-12.06m0-12.06v-12.06m0-12.06v-12.05m0-12.05v-12.06m0-12.07v-12.06m0-12.06v-12.05m0-12.06v-12.06m0-12.06v-12.06m0-12.06v-12.06m0-12.06v-12.06m0-12.06v-12.05m0-12.06v-12.05m0-12.06v-12.07m0-12.06v-12.06m0-12.05v-12.06m0-12.07v-12.05m0-12.06v-12.06m0-12.06v-12.06m0-12.06v-12.06m0-12.05v-12.06m0-12.05v-12.06m0-12.07v-12.06m0-12.06v-12.05m0-12.06v-12.07m0-12.05v-12.06m0-12.06v-12.06m0-12.06v-12.06m0-12.06v-12.05m0-12.06v-12.05m0-12.06v-12.07m0-12.06v-12.06m0-12.05v-12.06m0-12.07v-12.05m0-12.06v-12.06m0-12.06v-12.06m0-12.06v-12.06m0-12.05v-12.06m0-12.05v-12.06m0-12.07v-6.03h5.84" stroke="#7d8998" stroke-width="3" fill="none"/><use xlink:href="#f" transform="matrix(1,0,0,1,40.53333333333342,-1744) translate(100.57942708333334 21.52777777777778)"/><path d="M215.93-2554h24.6v5.4h-24.6v24.6h-5.4v-24.6h-24.6v-5.4h24.6v-24.6h5.4v24.6zm-90 24.6v-43.68h43.68v43.68h-43.67zm46.44-49.2H123.3c-1.57 0-2.77 1.32-2.77 2.76v49.08c0 1.56 1.2 2.76 2.76 2.76h49.07c1.44 0 2.76-1.2 2.76-2.76v-49.08c0-1.44-1.32-2.76-2.76-2.76zm19.08-16.32v-43.68h43.68v43.68h-43.68zm46.32-49.08H188.7c-1.45 0-2.77 1.2-2.77 2.76v49.08c0 1.44 1.32 2.76 2.76 2.76h49.07c1.56 0 2.76-1.32 2.76-2.76v-49.08c0-1.56-1.2-2.76-2.76-2.76zm-111.84 49.08v-43.68h43.68v43.68h-43.67zm46.44-49.08H123.3c-1.57 0-2.77 1.2-2.77 2.76v49.08c0 1.44 1.2 2.76 2.76 2.76h49.07c1.44 0 2.76-1.32 2.76-2.76v-49.08c0-1.56-1.32-2.76-2.76-2.76z" stroke="#000" stroke-opacity="0" fill="#232f3e"/><use xlink:href="#g" transform="matrix(1,0,0,1,90.53333333333342,-2515) translate(31.09700520833335 21.52777777777778)"/><use xlink:href="#h" transform="matrix(1,0,0,1,90.53333333333342,-2515) translate(2.803819444444443 53.79340277777778)"/><use xlink:href="#i" transform="matrix(1,0,0,1,90.53333333333342,-2515) translate(67.14843749999999 53.79340277777778)"/><use xlink:href="#j" transform="matrix(1,0,0,1,90.53333333333342,-2515) translate(84.5095486111111 53.79340277777778)"/><use xlink:href="#k" transform="matrix(1,0,0,1,90.53333333333342,-2515) translate(2.825520833333343 86.05902777777777)"/><use xlink:href="#l" transform="matrix(1,0,0,1,90.53333333333342,-2515) translate(96.15234375 86.05902777777777)"/><use xlink:href="#m" transform="matrix(1,0,0,1,90.53333333333342,-2515) translate(123.70225694444444 86.05902777777777)"/><path d="M120.53-2324h120v120h-120v-120z" stroke="#000" stroke-opacity="0" fill="#dd344c"/><path d="M146-2270.32h19.33v-2.96H146v2.96zm66.62 21.7l-10 9.97-4.53-4.52-2.1 2.1 5.53 5.54c.34.3.68.47 1.1.47.33 0 .75-.16 1-.47l11.1-11-2.1-2.1zm6.8 8.18c-.33 2.8-1.42 5.38-3.27 7.48-1.26 1.56-2.94 2.8-4.7 3.67-2.44 1.1-5.04 1.57-7.73 1.26-2.6-.4-5.04-1.4-7.06-2.97-3.95-3.13-5.88-7.96-5.3-12.88.6-4.68 3.37-8.73 7.57-10.92 2-1 4.2-1.56 6.47-1.56.6 0 1.17 0 1.68.08 4.7.55 8.82 3.43 10.92 7.65 1.26 2.5 1.76 5.38 1.43 8.2zm1.27-9.52c-2.62-5.15-7.57-8.58-13.2-9.28-3.45-.4-6.9.23-9.9 1.8-5.06 2.57-8.5 7.56-9.17 13.17-.76 6 1.68 11.86 6.38 15.6 2.45 1.95 5.4 3.12 8.58 3.5.67.1 1.34.17 2.02.17 2.52 0 5.04-.55 7.3-1.64 2.2-1 4.12-2.57 5.72-4.37 2.18-2.58 3.6-5.7 3.95-9.13.4-3.36-.17-6.8-1.7-9.83h.02zm-59.82-11.4h5.96v-2.95h-5.96v2.95zm-14.87 0h11.85v-2.95H146v2.95zm-1.34-38.68h66.62c1.76 0 3.2 1.72 3.2 3.9v11H210v-7.5c0-.77-.68-1.47-1.52-1.47h-34.27c-.75 0-1.42.7-1.42 1.47v7.5h-31.33v-11c0-2.1 1.52-3.9 3.2-3.9zm46.8 14.43c3.44 0 6.2 2.8 6.2 6.23 0 2.27-1.25 4.3-3.18 5.4-1.94 1-4.2 1-6.13 0-1.94-1.1-3.2-3.13-3.2-5.4 0-3.43 2.78-6.24 6.3-6.24zm-50 32.3v-28.87h31.34v25.27c0 .78.68 1.48 1.43 1.48h15.63v-2.96h-12.44c.1-5.93 4.04-11.08 9.75-12.72 2.7 1.17 5.8 1.25 8.48 0 3.2.94 6.05 3.04 7.8 6l2.54-1.55c-1.78-2.97-4.55-5.3-7.66-6.63 1.43-1.64 2.35-3.82 2.35-6.1 0-5.06-4.2-9.2-9.25-9.2-5.12 0-9.32 4.14-9.32 9.2 0 2.28.92 4.38 2.35 6.02-3.95 1.72-7.05 4.84-8.73 8.74v-26.45H207v23.8H210v-14.9h4.45v22.3h3.02v-36.27c0-3.82-2.78-6.86-6.22-6.86h-66.62c-3.35 0-6.13 3.04-6.13 6.86v42.83c0 3.73 2.78 6.77 6.13 6.77h40.07v-2.96h-40.06c-1.68 0-3.2-1.7-3.2-3.8z" stroke="#000" stroke-opacity="0" fill="#fff"/><use xlink:href="#n" transform="matrix(1,0,0,1,90.53333333333342,-2195) translate(19.584418402777786 21.52777777777778)"/><use xlink:href="#o" transform="matrix(1,0,0,1,90.53333333333342,-2195) translate(25.834418402777786 21.52777777777778)"/><use xlink:href="#p" transform="matrix(1,0,0,1,90.53333333333342,-2195) translate(80.966796875 21.52777777777778)"/><use xlink:href="#q" transform="matrix(1,0,0,1,90.53333333333342,-2195) translate(66.904296875 53.79340277777778)"/><use xlink:href="#r" transform="matrix(1,0,0,1,90.53333333333342,-2195) translate(12.167968750000014 86.05902777777777)"/><use xlink:href="#s" transform="matrix(1,0,0,1,90.53333333333342,-2195) translate(24.266493055555543 118.32465277777777)"/><use xlink:href="#t" transform="matrix(1,0,0,1,90.53333333333342,-2195) translate(79.44227430555554 118.32465277777777)"/><use xlink:href="#u" transform="matrix(1,0,0,1,90.53333333333342,-2195) translate(60.17686631944444 150.59027777777777)"/><path d="M451.14-2209.4c1.32-27.12 23-48.6 49.4-48.6 8.9 0 17.7 2.4 25.3 7.2 14.18 8.76 23.2 24.36 24.08 41.4h-98.78zm22.44-82.2c0-14.88 12.1-27 26.95-27s26.95 12.12 26.95 27-12.1 26.88-26.95 26.88-26.95-12-26.95-26.88zm55.22 36.12c-4.84-3-10-5.04-15.4-6.36 11.55-5.04 19.58-16.44 19.58-29.76 0-17.88-14.52-32.4-32.45-32.4-17.93 0-32.45 14.52-32.45 32.4 0 13.32 8.03 24.72 19.58 29.76-24.1 6-42.13 28.44-42.13 55.08 0 1.56 1.2 2.76 2.75 2.76h104.5c1.54 0 2.75-1.2 2.75-2.76 0-19.8-10.23-38.52-26.73-48.72z" stroke="#000" stroke-opacity="0" fill="#232f3e"/><use xlink:href="#v" transform="matrix(1,0,0,1,415.5333333333334,-2195) translate(20.226779513888886 21.52777777777778)"/><use xlink:href="#w" transform="matrix(1,0,0,1,415.5333333333334,-2195) translate(26.476779513888886 21.52777777777778)"/><use xlink:href="#x" transform="matrix(1,0,0,1,415.5333333333334,-2195) translate(82.314453125 21.52777777777778)"/><use xlink:href="#p" transform="matrix(1,0,0,1,415.5333333333334,-2195) translate(45.27560763888889 53.79340277777778)"/><use xlink:href="#y" transform="matrix(1,0,0,1,415.5333333333334,-2195) translate(32.60742187500001 86.05902777777777)"/><use xlink:href="#z" transform="matrix(1,0,0,1,415.5333333333334,-2195) translate(85.048828125 86.05902777777777)"/><use xlink:href="#A" transform="matrix(1,0,0,1,415.5333333333334,-2195) translate(18.523220486111114 118.32465277777777)"/><use xlink:href="#B" transform="matrix(1,0,0,1,415.5333333333334,-2195) translate(14.280598958333343 150.59027777777777)"/><path d="M853.3-2270.25c-3 0-5.53-2.44-5.53-5.52 0-2.96 2.52-5.5 5.52-5.5 3 0 5.4 2.54 5.4 5.5 0 3.08-2.4 5.52-5.4 5.52zm0-16.54c-6 0-10.93 5-10.93 11.03 0 6.05 4.92 11.03 10.92 11.03s10.9-4.98 10.9-11.03c0-6.04-4.9-11.02-10.9-11.02zm-32.77 16.55c-3 0-5.4-2.44-5.4-5.52 0-2.96 2.4-5.5 5.4-5.5 3 0 5.4 2.54 5.4 5.5 0 3.08-2.4 5.52-5.4 5.52zm0-16.54c-6 0-10.92 5-10.92 11.03 0 6.05 4.93 11.03 10.93 11.03s10.92-4.98 10.92-11.03c0-6.04-4.92-11.02-10.92-11.02zm-32.76 16.55c-3 0-5.4-2.44-5.4-5.52 0-2.96 2.4-5.5 5.4-5.5 3 0 5.52 2.54 5.52 5.5 0 3.08-2.53 5.52-5.53 5.52zm0-16.54c-6 0-10.92 5-10.92 11.03 0 6.05 4.92 11.03 10.92 11.03s10.92-4.98 10.92-11.03c0-6.04-4.93-11.02-10.93-11.02zm87.36 46.65c0 3.07-2.28 5.62-5.16 5.62l-11.28.2c-1.57 0-2.77 1.18-2.77 2.77v11.66l-15.12-13.9c-.47-.4-1.07-.73-1.8-.73h-67.55c-3.24 0-5.52-2.65-5.52-5.73v-65.6c0-3.2 2.52-5.63 5.64-5.63h97.92c3.1 0 5.63 2.45 5.63 5.63v65.72zM869.5-2317h-97.93c-6.12 0-11.04 4.98-11.04 11.13v65.6c0 6.16 5.04 11.14 11.28 11.14l66.13.1 18.96 17.3c.47.52 1.2.73 1.8.73.35 0 .7-.1 1.07-.2 1.08-.44 1.68-1.5 1.68-2.56v-15.15l8.52-.12c5.88 0 10.56-4.98 10.56-11.13v-65.72c0-6.15-4.92-11.13-11.04-11.13z" stroke="#000" stroke-opacity="0" fill="#232f3e"/><use xlink:href="#C" transform="matrix(1,0,0,1,730.5333333333334,-2202) translate(2.7712673611111143 21.52777777777778)"/><use xlink:href="#D" transform="matrix(1,0,0,1,730.5333333333334,-2202) translate(9.021267361111114 21.52777777777778)"/><use xlink:href="#p" transform="matrix(1,0,0,1,730.5333333333334,-2202) translate(97.77994791666666 21.52777777777778)"/><use xlink:href="#E" transform="matrix(1,0,0,1,730.5333333333334,-2202) translate(35.40473090277778 53.79340277777778)"/><use xlink:href="#F" transform="matrix(1,0,0,1,730.5333333333334,-2202) translate(62.95464409722222 53.79340277777778)"/><use xlink:href="#G" transform="matrix(1,0,0,1,730.5333333333334,-2202) translate(40.94401041666667 86.05902777777777)"/><use xlink:href="#H" transform="matrix(1,0,0,1,730.5333333333334,-2202) translate(22.24283854166667 118.32465277777777)"/><use xlink:href="#I" transform="matrix(1,0,0,1,730.5333333333334,-2202) translate(50.75303819444444 150.59027777777777)"/><path d="M1099.8-2274.92h35.73v-5.4h-35.72v5.4zm0 38.16h35.73v-5.4h-35.72v5.4zm0-19.08h46.73v-5.4h-46.72v5.4zm-13.72 46.44v-109.2h49.45v24.6c0 1.56 1.24 2.76 2.73 2.76h24.82v81.84h-77zm55-105.24l18.04 17.88h-18.04v-17.88zm26.66 18.72l-27.54-27.24c-.44-.6-1.15-.84-1.94-.84h-52.18c-3.26 0-5.55 2.28-5.55 5.4v109.2c0 3 2.38 5.4 5.55 5.4h77c3.08 0 5.45-2.4 5.45-5.4v-84.6c0-.72-.26-1.44-.8-1.92z" stroke="#000" stroke-opacity="0" fill="#232f3e"/><use xlink:href="#J" transform="matrix(1,0,0,1,1050.5333333333333,-2195) translate(2.5915798611111143 21.52777777777778)"/><use xlink:href="#K" transform="matrix(1,0,0,1,1050.5333333333333,-2195) translate(8.841579861111114 21.52777777777778)"/><use xlink:href="#L" transform="matrix(1,0,0,1,1050.5333333333333,-2195) translate(131.09635416666666 21.52777777777778)"/><use xlink:href="#M" transform="matrix(1,0,0,1,1050.5333333333333,-2195) translate(17.06098090277777 53.79340277777778)"/><use xlink:href="#p" transform="matrix(1,0,0,1,1050.5333333333333,-2195) translate(34.27560763888889 86.05902777777777)"/><use xlink:href="#N" transform="matrix(1,0,0,1,1050.5333333333333,-2195) translate(-75.47374131944446 118.32465277777777)"/><use xlink:href="#O" transform="matrix(1,0,0,1,1050.5333333333333,-2195) translate(33.890407986111114 150.59027777777777)"/><path d="M1368.53-2324h120v120h-120v-120z" stroke="#000" stroke-opacity="0" fill="#01a88d"/><path d="M1449.65-2284.9c0 .82-.73 1.48-1.54 1.48-.8 0-1.52-.66-1.52-1.48 0-.83.72-1.5 1.53-1.5.82 0 1.55.67 1.55 1.5zm-9.07 14.92c0-.82.65-1.48 1.54-1.48.8 0 1.46.66 1.46 1.48s-.65 1.48-1.46 1.48c-.9 0-1.54-.66-1.54-1.48zm0 28.52c0-.82.65-1.56 1.54-1.56.8 0 1.46.74 1.46 1.56 0 .83-.65 1.5-1.46 1.5-.9 0-1.54-.67-1.54-1.5zm15-19.53c0 .83-.66 1.5-1.47 1.5-.8 0-1.53-.67-1.53-1.5 0-.82.73-1.48 1.54-1.48.82 0 1.47.66 1.47 1.5zm10.52 4.95l-7.54-4.37v-.57c0-2.47-2.02-4.45-4.45-4.45-2.5 0-4.53 1.98-4.53 4.46s2.03 4.54 4.54 4.54c1.22 0 2.28-.5 3.1-1.24l7.2 4.13-6.5 3.2c-.47.34-.8.84-.8 1.4v12.63l-18.06 11.13-8.9-5.13v-9.64h7.77c.57 1.73 2.28 2.97 4.22 2.97 2.43 0 4.46-1.98 4.46-4.46 0-2.47-2.03-4.53-4.46-4.53-1.94 0-3.64 1.25-4.2 2.98h-7.8v-20.94c0-.5-.3-1-.72-1.32l-7.53-4.45-1.54 2.55 6.8 4.04v4.45l-9.07 6.94v-6.18c0-.5-.16-.9-.56-1.24l-6.9-5.52v-7.42l8.35-5.6c.4-.26.65-.75.65-1.25v-8.98h-3v8.16l-7.45 5.04-7.53-5.03v-11.78l7.45-4.37v12.53h3v-14.26l6-3.55 8.98 5.2.1 18.55c-.02.57.23 1.07.7 1.32l9.82 5.6c0 .17-.1.4-.1.58 0 2.47 2.04 4.53 4.55 4.53 2.43 0 4.46-2.06 4.46-4.53s-2.03-4.45-4.46-4.45c-1.2 0-2.27.4-3.08 1.23l-8.9-5.1v-17.73l8.9-5.1 16.53 10.95v3.7h-3.16c-.64-1.72-2.34-2.96-4.3-2.96-2.5 0-4.52 2.07-4.52 4.54s2.02 4.53 4.53 4.53c2.04 0 3.74-1.32 4.3-3.05h3.17v4.45c0 .58.32 1.08.8 1.32l9.73 5.53v16.07zm-47.96 30.84l-4.78-2.98 8.6-6.1-1.7-2.4-9.65 6.85-10.52-6.5v-11.8l6.8-4.04-1.53-2.56-6.8 4.04-7.46-3.7v-8.65l8.17-4.04-1.38-2.72-6.8 3.4v-5.7l8.9-5.12 7.6 5.03v7.4l-8.33 5.54 1.62 2.55 8.1-5.37 6.07 4.8v7.82l-6.9 5.27 1.87 2.4 17.1-13.1v24.55l-9 5.1zm50.22-49.07l-9.8-5.52v-11.12c0-.5-.24-1-.64-1.24l-18-12.03c-.47-.32-1.04-.32-1.6-.08l-9.73 5.7-9.73-5.7c-.48-.24-1.05-.24-1.54 0l-17.98 10.56c-.48.24-.73.74-.73 1.23v12.7l-9.8 5.53c-.4.25-.73.74-.73 1.32v19.45c0 .6.32 1.08.8 1.33l8.18 4.12v12.53c0 .58.25 1.07.73 1.32l19.53 11.95c.25.17.5.25.73.25.33 0 .57-.08.8-.16l9.73-5.6 9.7 5.6c.5.24 1.15.24 1.55-.1l19.52-11.94c.5-.25.73-.74.73-1.32v-12.53l8.18-4.12c.5-.25.8-.74.8-1.32v-19.45c0-.58-.3-1.07-.72-1.32z" stroke="#000" stroke-opacity="0" fill="#fff"/><use xlink:href="#P" transform="matrix(1,0,0,1,1338.5333333333333,-2195) translate(1.7350260416666856 21.52777777777778)"/><use xlink:href="#l" transform="matrix(1,0,0,1,1338.5333333333333,-2195) translate(7.985026041666686 21.52777777777778)"/><use xlink:href="#Q" transform="matrix(1,0,0,1,1338.5333333333333,-2195) translate(35.53493923611113 21.52777777777778)"/><use xlink:href="#p" transform="matrix(1,0,0,1,1338.5333333333333,-2195) translate(50.27560763888889 53.79340277777778)"/><use xlink:href="#R" transform="matrix(1,0,0,1,1338.5333333333333,-2195) translate(67.39800347222223 86.05902777777777)"/><use xlink:href="#S" transform="matrix(1,0,0,1,1338.5333333333333,-2195) translate(24.8849826388889 118.32465277777777)"/><use xlink:href="#T" transform="matrix(1,0,0,1,1338.5333333333333,-2195) translate(0.15625000000002842 150.59027777777777)"/><use xlink:href="#U" transform="matrix(1,0,0,1,1338.5333333333333,-2195) translate(2.315538194444443 182.85590277777777)"/><use xlink:href="#V" transform="matrix(1,0,0,1,1338.5333333333333,-2195) translate(73.49609375 182.85590277777777)"/><path d="M1709.17-2283.03c1.92 0 3.48 1.54 3.48 3.52 0 1.86-1.56 3.4-3.48 3.4s-3.48-1.54-3.48-3.4c0-2 1.55-3.53 3.47-3.53zm38.64-15.18c1.93 0 3.5 1.53 3.5 3.5 0 1.88-1.57 3.42-3.5 3.42-1.9 0-3.47-1.54-3.47-3.4 0-2 1.56-3.53 3.48-3.53zm39-15.2c1.93 0 3.5 1.55 3.5 3.53 0 1.87-1.57 3.4-3.5 3.4-1.9 0-3.47-1.53-3.47-3.4 0-1.98 1.56-3.52 3.48-3.52zm-77.63 42.9c5.04 0 9.12-4.06 9.12-9 0-.23-.13-.34-.13-.45l22.8-8.9c1.68 1.97 4.08 3.18 6.84 3.18 5.05 0 9.13-4.07 9.13-9.02 0-.32-.12-.65-.12-.87l22.93-8.7c1.68 2.1 4.2 3.42 7.08 3.42 5.05 0 9.13-4.07 9.13-9.02 0-5.06-4.08-9.13-9.12-9.13-5.03 0-9 4.07-9 9.13v.33l-23.27 8.8c-1.68-1.87-3.96-3.08-6.72-3.08-4.9 0-9 4.07-9 9.13v.67l-22.55 8.8c-1.68-2.1-4.2-3.4-7.08-3.4-5.04 0-9 4.06-9 9.12 0 4.94 3.96 9 9 9zm-9.48 13.87h19.67l-.12 42.02h-19.56v-42.03zm39.1 42.02v-58.86h19.45v58.85h-19.44zm39 0v-72.94h19.57v72.93h-19.56zm25.1 0v-75.7c0-1.53-1.2-2.85-2.77-2.85h-25.08c-1.56 0-2.76 1.32-2.76 2.86v75.7h-8.4v-61.72c0-1.54-1.33-2.75-2.77-2.75h-25.2c-1.56 0-2.76 1.2-2.76 2.75v61.7h-8.4l.12-44.87c0-.65-.25-1.42-.73-1.97-.6-.55-1.32-.77-2.04-.77h-25.2c-1.56 0-2.76 1.2-2.76 2.75l-.12 44.9h-5.52v5.6h120v-5.6h-5.64z" stroke="#000" stroke-opacity="0" fill="#232f3e"/><g><use xlink:href="#W" transform="matrix(1,0,0,1,1658.5333333333333,-2200) translate(28.43315972222223 21.52777777777778)"/><use xlink:href="#X" transform="matrix(1,0,0,1,1658.5333333333333,-2200) translate(34.68315972222223 21.52777777777778)"/><use xlink:href="#L" transform="matrix(1,0,0,1,1658.5333333333333,-2200) translate(137.25477430555554 21.52777777777778)"/><use xlink:href="#Y" transform="matrix(1,0,0,1,1658.5333333333333,-2200) translate(29.588758680555564 53.79340277777778)"/><use xlink:href="#p" transform="matrix(1,0,0,1,1658.5333333333333,-2200) translate(50.27560763888889 86.05902777777777)"/><use xlink:href="#Z" transform="matrix(1,0,0,1,1658.5333333333333,-2200) translate(43.51562500000001 118.32465277777777)"/><use xlink:href="#aa" transform="matrix(1,0,0,1,1658.5333333333333,-2200) translate(44.226345486111114 150.59027777777777)"/><use xlink:href="#ab" transform="matrix(1,0,0,1,1658.5333333333333,-2200) translate(-12.170138888888886 182.85590277777777)"/></g><path d="M440.53-2004h120v120h-120v-120z" stroke="#000" stroke-opacity="0" fill="#dd344c"/><path d="M507.34-1973.34h-.17c-.6 0-1.18.25-1.6.74-.42.5-.67 1.08-.67 1.66.1.67.34 1.25.84 1.66.93.9 2.44.83 3.28-.16.92-.92.84-2.4-.1-3.32-.5-.42-1-.58-1.58-.58zm0 7.7c-1.35 0-2.6-.5-3.7-1.4-1-1-1.6-2.32-1.68-3.73-.08-1.4.42-2.82 1.43-3.9.9-1 2.26-1.66 3.7-1.66 1.4-.08 2.76.42 3.85 1.33 2.18 2.07 2.27 5.47.34 7.63-1.1 1.16-2.54 1.74-3.96 1.74zm27.2 25.8l4.97.33v-5.32l-20.82-19c-.42-.4-.6-1.15-.34-1.73 2.44-4.9 1.26-10.86-2.77-14.6-2.7-2.48-6.4-3.56-10-3.14-3.7.5-6.88 2.66-8.9 5.8-2.77 4.32-2.44 10.13.75 14.2 3.45 4.4 9.33 5.96 14.45 3.9.5-.26 1.18-.18 1.6.24l3.95 3.56c.25.25.42.67.42 1.08l.16 4.06 4.12-.16c.42 0 .84.16 1.1.4l2.93 2.67c.34.33.5.66.5 1.08l.18 4.14 4.1-.25c.43 0 .85.17 1.1.42l2.52 2.32zm6.48 3.4h-.08l-7.06-.42c-.34 0-.67-.16-.92-.4l-2.52-2.25-4.96.16c-.84.08-1.5-.6-1.6-1.4l-.16-5-2.02-1.8-5.04.15c-.75.1-1.5-.57-1.5-1.4l-.26-4.97-2.77-2.57c-6.22 2.07-12.94.08-17.06-5.14-4.03-5.06-4.45-12.2-.92-17.67 2.44-3.9 6.47-6.46 11-7.04 4.54-.66 9.08.84 12.44 3.9 4.7 4.32 6.28 11.2 3.93 17l20.5 18.74c.34.25.5.66.5 1.08v7.55c0 .4-.16.82-.5 1.07-.25.25-.6.42-1 .42zm-68.96 7.46h10.5v-5.97h-10.5v5.97zm12 3.07h-13.5c-.86 0-1.53-.67-1.53-1.5v-9.04c0-.83.68-1.5 1.52-1.5h13.52c.75 0 1.43.67 1.43 1.5v9.04c0 .83-.68 1.5-1.43 1.5zm-15.03 11.93h10.5v-3h-10.5v3zm15.04 0h10.5v-3h-10.5v3zm14.95 0h10.5v-3h-10.5v3zm15.04 0h10.5v-3h-10.5v3zm13.35 10.53h-59.7c-5.05 0-9.17-4.06-9.17-9.12v-32.76c0-5.05 4.12-9.12 9.16-9.12h26.87v3H467.7c-3.37 0-6.14 2.73-6.14 6.13v32.74c0 3.4 2.77 6.13 6.13 6.13h59.7c3.37 0 6.14-2.73 6.14-6.13v-19.4h3.03v19.4c0 5.06-4.12 9.12-9.16 9.12z" stroke="#000" stroke-opacity="0" fill="#fff"/><g><use xlink:href="#ac" transform="matrix(1,0,0,1,410.5333333333334,-1875) translate(41.04709201388889 21.52777777777778)"/><use xlink:href="#ad" transform="matrix(1,0,0,1,410.5333333333334,-1875) translate(47.29709201388889 21.52777777777778)"/><use xlink:href="#p" transform="matrix(1,0,0,1,410.5333333333334,-1875) translate(50.27560763888889 53.79340277777778)"/><use xlink:href="#ae" transform="matrix(1,0,0,1,410.5333333333334,-1875) translate(14.864366319444457 86.05902777777777)"/><use xlink:href="#L" transform="matrix(1,0,0,1,410.5333333333334,-1875) translate(150.82356770833331 86.05902777777777)"/><use xlink:href="#af" transform="matrix(1,0,0,1,410.5333333333334,-1875) translate(59.05381944444444 118.32465277777777)"/></g><path d="M226.2-1642.24l-7.82-7.92-3.9 3.84 7.07 7.08v69.84H155.9v-5.52h-5.5v8.16c0 1.56 1.3 2.76 2.8 2.76h71.14c1.48 0 2.7-1.2 2.7-2.76v-73.56c0-.72-.3-1.44-.84-1.92zm-21.02 56.4V-1654h-21.95c-1.5 0-2.7-1.2-2.7-2.76v-21.84h-41v92.76h65.65zm-19.16-73.56h15.25l-15.25-15.24v15.24zm21.85 79.08h-71.14c-1.5 0-2.7-1.32-2.7-2.76v-98.16c0-1.56 1.2-2.76 2.7-2.76h46.5c.74 0 1.5.24 1.95.84l24.65 24.48c.46.48.83 1.2.83 1.92v73.68c0 1.44-1.3 2.76-2.78 2.76zm-57.47-60v-5.52h27.44v5.52H150.4zm0 32.64v-5.4h27.44v5.4H150.4zm0-16.32v-5.4h38.32v5.4H150.4z" stroke="#000" stroke-opacity="0" fill="#232f3e"/><g><use xlink:href="#ag" transform="matrix(1,0,0,1,104.03333333333342,-1555) translate(51.24500868055556 21.52777777777778)"/><use xlink:href="#ah" transform="matrix(1,0,0,1,104.03333333333342,-1555) translate(27.747829861111114 53.79340277777778)"/><use xlink:href="#ai" transform="matrix(1,0,0,1,104.03333333333342,-1555) translate(20.93901909722223 86.05902777777777)"/><use xlink:href="#aj" transform="matrix(1,0,0,1,104.03333333333342,-1555) translate(82.47330729166667 86.05902777777777)"/><use xlink:href="#ak" transform="matrix(1,0,0,1,104.03333333333342,-1555) translate(39.56966145833333 118.32465277777777)"/><use xlink:href="#al" transform="matrix(1,0,0,1,104.03333333333342,-1555) translate(32.044704861111114 150.59027777777777)"/><use xlink:href="#K" transform="matrix(1,0,0,1,104.03333333333342,-1555) translate(8.216579861111128 182.85590277777777)"/><use xlink:href="#L" transform="matrix(1,0,0,1,104.03333333333342,-1555) translate(130.47135416666666 182.85590277777777)"/><use xlink:href="#am" transform="matrix(1,0,0,1,104.03333333333342,-1555) translate(19.56098090277777 215.12152777777777)"/></g><path d="M126-1358.54h109.07v109.08H126v-109.08z" stroke="#000" stroke-opacity="0" fill="#01a88d"/><path d="M120.53-1364h120v120h-120v-120z" stroke="#879196" stroke-width="2" fill-opacity="0"/><path d="M179.16-1295v-10.14l-7.25-4.2 1.38-2.37 5.88 3.43v-27.56l-7.48-3.43-7.48 3.74v9.7h-2.75v-8.33l-6.8 3.44v10.44l8.18 4.58 8.16-4.58v-11h2.74v11.84c0 .46-.3.92-.7 1.22l-8.84 4.9v6.55l8.78 5.12c.46.23.76.68.76 1.22v8.54l5.42-3.13zm0 3.13l-16.72 9.7-1.37-2.37 9.92-5.72v-9.4l-8.17-4.34-9.1 5.2-1.28-2.38 9-5.2v-6.93l-8.16-4.6-8.18 4.6v6.1l7.1-4.13 1.37 2.37-8.48 4.88v7.56l8.1 5.04 8.23-4.66 1.38 2.37-8.17 4.73v9.92l7.33 4.43 10.3-6.17 1.44 2.36-9.08 5.4 7.1 4.36 7.4-3.43v-19.7zm2.75-44.87v65.48c0 .54-.3 1-.76 1.22l-8.93 4.05c-.14.08-.37.16-.52.16-.23 0-.46-.08-.7-.23l-18.38-11.14c-.46-.24-.7-.7-.7-1.16v-10.68l-8.92-5.57c-.38-.24-.6-.7-.6-1.16v-.84-16.63V-1314.16c0-.46.3-.92.68-1.14l8.85-4.96v-11.3c0-.45.32-.9.78-1.14l18.4-9.3c.37-.24.75-.24 1.13 0l8.94 4.04c.46.23.77.68.77 1.22zm36.64 39.46c-.15-.38-.38-.6-.76-.77l-4.66-1.6c.38-2.98.38-5.88-.07-8.85l4.73-1.6c.3-.16.6-.4.76-.77.15-.3.15-.7 0-1.07l-5.57-13.5c-.15-.3-.46-.62-.84-.77-.3-.1-.7-.1-1.07.07l-4.43 2.2c-1.83-2.36-3.9-4.42-6.25-6.25l2.13-4.42c.17-.4.17-.77.1-1.15-.16-.3-.47-.6-.77-.76l-13.5-5.58c-.4-.08-.78-.08-1.08.07-.38.14-.6.37-.76.76l-2 5.8 2.6.84 1.52-4.36 10.84 4.43-2.06 4.2c-.3.6-.08 1.37.46 1.75 2.82 1.9 5.2 4.36 7.17 7.1.38.6 1.15.77 1.76.46l4.2-2.06 4.5 10.84-4.44 1.6c-.6.23-1 .84-.84 1.53.54 3.34.6 6.78 0 10.14-.07.6.3 1.3.92 1.52l4.35 1.53-4.44 10.83-4.2-2.06c-.6-.23-1.3-.08-1.68.46-1.98 2.82-4.42 5.18-7.17 7.17-.6.46-.75 1.14-.45 1.75l2.06 4.2-10.82 4.5-1.6-4.42-2.53.9 2 5.8c.14.32.37.63.75.78.16.08.38.16.54.16.15 0 .38-.08.53-.15l13.5-5.64c.3-.08.62-.38.77-.76.08-.3.08-.7-.07-1.07l-2.22-4.43c2.37-1.83 4.5-3.9 6.26-6.26l4.5 2.14c.32.15.7.15 1.08.08.3-.16.6-.46.77-.77l5.57-13.5c.15-.4.07-.78-.08-1.08zM195.5-1304c0-6.1-4.05-11.45-9.85-13.13l.68-2.6c7.02 2 11.9 8.48 11.9 15.73 0 7.33-4.88 13.74-11.9 15.72l-.76-2.6c5.88-1.67 9.92-7 9.92-13.12z" stroke="#000" stroke-opacity="0" fill="#fff"/><g><use xlink:href="#E" transform="matrix(1,0,0,1,90.53333333333342,-1235) translate(30.20182291666667 21.52777777777778)"/><use xlink:href="#an" transform="matrix(1,0,0,1,90.53333333333342,-1235) translate(57.751736111111114 21.52777777777778)"/><use xlink:href="#ao" transform="matrix(1,0,0,1,90.53333333333342,-1235) translate(128.49826388888889 21.52777777777778)"/><use xlink:href="#ap" transform="matrix(1,0,0,1,90.53333333333342,-1235) translate(18.6349826388889 53.79340277777778)"/></g><path d="M141.17-1008.03c1.92 0 3.48 1.54 3.48 3.52 0 1.86-1.56 3.4-3.48 3.4s-3.48-1.54-3.48-3.4c0-2 1.55-3.53 3.47-3.53zm38.64-15.18c1.93 0 3.5 1.53 3.5 3.5 0 1.88-1.57 3.42-3.5 3.42-1.9 0-3.47-1.54-3.47-3.4 0-2 1.56-3.53 3.48-3.53zm39-15.2c1.93 0 3.5 1.55 3.5 3.53 0 1.87-1.57 3.4-3.5 3.4-1.9 0-3.47-1.53-3.47-3.4 0-1.98 1.56-3.52 3.48-3.52zm-77.63 42.9c5.04 0 9.12-4.06 9.12-9 0-.23-.13-.34-.13-.45l22.8-8.9c1.68 1.97 4.08 3.18 6.84 3.18 5.05 0 9.13-4.07 9.13-9.02 0-.32-.12-.65-.12-.87l22.93-8.7c1.68 2.1 4.2 3.42 7.08 3.42 5.05 0 9.13-4.07 9.13-9.02 0-5.06-4.08-9.13-9.12-9.13-5.03 0-9 4.07-9 9.13v.33l-23.27 8.8c-1.68-1.87-3.96-3.08-6.72-3.08-4.9 0-9 4.07-9 9.13v.67l-22.55 8.8c-1.68-2.1-4.2-3.4-7.08-3.4-5.04 0-9 4.06-9 9.12 0 4.94 3.96 9 9 9zm-9.48 13.87h19.67l-.12 42.02H131.7v-42.03zm39.1 42.02v-58.86h19.45v58.85H170.8zm39 0v-72.94h19.57v72.93H209.8zm25.1 0v-75.7c0-1.53-1.2-2.85-2.77-2.85h-25.08c-1.56 0-2.76 1.32-2.76 2.86v75.7h-8.4v-61.72c0-1.54-1.33-2.75-2.77-2.75h-25.2c-1.56 0-2.76 1.2-2.76 2.75v61.7h-8.4l.12-44.87c0-.65-.25-1.42-.73-1.97-.6-.55-1.32-.77-2.04-.77h-25.2c-1.56 0-2.76 1.2-2.76 2.75l-.12 44.9h-5.52v5.6h120v-5.6h-5.64z" stroke="#000" stroke-opacity="0" fill="#232f3e"/><g><use xlink:href="#aq" transform="matrix(1,0,0,1,90.53333333333342,-925) translate(-25.77690972222223 21.52777777777778)"/><use xlink:href="#X" transform="matrix(1,0,0,1,90.53333333333342,-925) translate(31.55815972222223 53.79340277777778)"/><use xlink:href="#L" transform="matrix(1,0,0,1,90.53333333333342,-925) translate(134.12977430555554 53.79340277777778)"/><use xlink:href="#ar" transform="matrix(1,0,0,1,90.53333333333342,-925) translate(29.588758680555564 86.05902777777777)"/></g><path d="M126-728.54h109.07v109.08H126v-109.08z" stroke="#000" stroke-opacity="0" fill="#7aa116"/><path d="M120.53-734h120v120h-120v-120z" stroke="#879196" stroke-width="2" fill-opacity="0"/><path d="M175.13-642.63h9.54v-2.75h-9.54v2.75zm-16.38 0h9.54v-2.75h-9.55v2.75zm16.38-8.17h9.54v-2.75h-9.54v2.75zm-16.38 0h9.54v-2.75h-9.55v2.75zm16.38-10.9h9.54v-2.76h-9.54v2.75zm-16.38 0h9.54v-2.76h-9.55v2.75zm35.46 16.32v-16.33h5.47v16.32h-5.46zm6.85-19.08h-8.16c-.76 0-1.4.6-1.4 1.37v19.1c0 .76.64 1.37 1.4 1.37h8.15c.76 0 1.38-.6 1.38-1.38v-19.1c0-.75-.62-1.36-1.38-1.36zm-40.92-6.8v-9.53h39.54v9.55h-39.54zm-1.38-12.28c-.75 0-1.38.6-1.38 1.37v12.3c0 .68.63 1.3 1.38 1.3h42.3c.76 0 1.38-.62 1.38-1.3v-12.3c0-.76-.62-1.37-1.38-1.37h-42.3zm50.53 44.95H151.9v-53.1h15.07v2.74c0 .7.57 1.3 1.32 1.3h24.6c.75 0 1.3-.6 1.3-1.3v-2.75h15.08v53.1zm-41.1-70.8h16.5c3.38 0 6.83 1.97 6.83 5.4v13.66h-21.83V-704c0-1.98-.5-3.9-1.5-5.4zm-8.74 8.15v-2.82c0-4.73 1.76-5.34 3.4-5.34 3.82 0 4.13 4.1 4.13 5.4v2.75h-7.53zm51.15 6.8h-16.4V-704c0-5.1-4.82-8.16-9.53-8.16h-21.84c-2.76 0-6.1 1.37-6.1 8.1l.02 4.2c0 .75.56 1.36 1.3 1.36h8.92v4.05H150.6c-.76 0-1.4.6-1.4 1.37v55.87c0 .75.64 1.36 1.4 1.36h60c.75 0 1.37-.6 1.37-1.37v-55.88c0-.76-.62-1.37-1.38-1.37z" stroke="#000" stroke-opacity="0" fill="#fff"/><g><use xlink:href="#as" transform="matrix(1,0,0,1,90.53333333333342,-605) translate(35.21484375 21.52777777777778)"/><use xlink:href="#at" transform="matrix(1,0,0,1,90.53333333333342,-605) translate(1.3226996527777857 53.79340277777778)"/><use xlink:href="#au" transform="matrix(1,0,0,1,90.53333333333342,-605) translate(99.228515625 53.79340277777778)"/></g><path d="M242.53-2264h218.32" stroke="#3a414a" stroke-width="4" fill="none"/><path d="M242.6-2262.03h-2.07v-3.94h2.06z" stroke="#3a414a" stroke-width=".05" fill="#3a414a"/><path d="M477.1-2264l-14.25 4.64v-9.28z" stroke="#3a414a" stroke-width="4" fill="#3a414a"/><path d="M519.4-2264h218.4" stroke="#3a414a" stroke-width="4" fill="none"/><path d="M519.45-2262.03h-5.05v-.35l3.86-2.1 1.2-.92z" stroke="#3a414a" stroke-width=".05" fill="#3a414a"/><path d="M754.06-2264l-14.26 4.64v-9.28z" stroke="#3a414a" stroke-width="4" fill="#3a414a"/><path d="M882.53-2264h175.27" stroke="#3a414a" stroke-width="4" fill="none"/><path d="M882.6-2262.03h-2.07v-3.94h2.06z" stroke="#3a414a" stroke-width=".05" fill="#3a414a"/><path d="M1074.06-2264l-14.26 4.64v-9.28z" stroke="#3a414a" stroke-width="4" fill="#3a414a"/><path d="M1170.53-2264h175.27" stroke="#3a414a" stroke-width="4" fill="none"/><path d="M1170.6-2262.03h-2.07v-3.94h2.06z" stroke="#3a414a" stroke-width=".05" fill="#3a414a"/><path d="M1362.06-2264l-14.26 4.64v-9.28z" stroke="#3a414a" stroke-width="4" fill="#3a414a"/><path d="M1490.53-2264h219.9" stroke="#3a414a" stroke-width="4" fill="none"/><path d="M1490.6-2262.03h-2.07v-3.94h2.06z" stroke="#3a414a" stroke-width=".05" fill="#3a414a"/><path d="M1726.7-2264l-14.27 4.64v-9.28z" stroke="#3a414a" stroke-width="4" fill="#3a414a"/><path d="M502.5-2026.74h-3.94v-11.2h3.95zm0-166.26h-3.94v-9h3.95z" stroke="#3a414a" stroke-width=".05" fill="#3a414a"/><path d="M502.5-2201.95h-3.94v-2.05h3.95z" fill="#3a414a"/><path stroke="#3a414a" stroke-width=".05" fill="#3a414a"/><path d="M500.53-2010.47l-4.63-14.27h9.27z" fill="#3a414a"/><path d="M500.53-2004.08l-7.35-22.63h14.7zm-1.9-18.68l1.9 5.9 1.92-5.9zM1750.5-1949.92l-.08 1.17-.3 1.22-.47 1.15-.66 1.07-.82.94-.96.82-1.06.65-1.16.5-1.22.28-1.17.1H562.54v-3.95h1179.93l.7-.06.62-.15.58-.24.54-.33.47-.4.42-.5.3-.52.26-.6.14-.6.06-.7v-62.6h3.95z" stroke="#3a414a" stroke-width=".05" fill="#3a414a"/><path d="M562.6-1942.03h-2.07v-3.94h2.06z" fill="#3a414a"/><path stroke="#3a414a" stroke-width=".05" fill="#3a414a"/><path d="M1750-2198h-2.94l1.47-4.53z" fill="#3a414a"/><path d="M1752.08-2198h-7.1l3.55-10.92z" stroke="#3a414a" stroke-width=".05" fill="#3a414a"/><defs><path fill="#fff" d="M52 0l541-1490h220L1361 0h-200l-149-416H398L254 0H52zm404-582h497c-103-290-145-390-251-756-108 377-145 460-246 756" id="av"/><path fill="#fff" d="M577 24c-279 0-473-224-473-580 0-354 195-576 474-576 218 0 287 134 324 193h14v-551h180V0H922v-173h-20C865-111 790 24 577 24zm27-161c203 0 314-172 314-421 0-247-108-413-314-413-212 0-317 181-317 413 0 235 108 421 317 421" id="aw"/><path fill="#fff" d="M471 26C259 26 90-98 90-318c0-256 228-303 435-329 202-27 287-16 287-108 0-139-79-219-234-219-161 0-248 86-283 164l-173-57c86-203 278-265 451-265 150 0 419 46 419 395V0H815v-152h-12C765-73 660 26 471 26zm31-159c199 0 310-134 310-271v-155c-30 35-226 55-295 64-131 17-246 59-246 186 0 116 97 176 231 176" id="ax"/><path fill="#fff" d="M158 418v-1536h174v179h20c37-59 106-193 324-193 279 0 474 222 474 576 0 356-194 580-473 580-213 0-288-135-325-197h-14v591H158zm492-555c209 0 317-186 317-421 0-232-105-413-317-413-206 0-314 166-314 413 0 249 111 421 314 421" id="ay"/><path fill="#fff" d="M598-1118v154H368v674c0 100 37 144 132 144 23 0 62-6 92-12L629-6c-37 13-88 20-134 20-193 0-307-107-307-290v-688H20v-154h168v-266h180v266h230" id="az"/><path fill="#fff" d="M158 0v-1118h180V0H158zm91-1301c-68 0-125-53-125-119s57-119 125-119c69 0 126 53 126 119s-57 119-126 119" id="aA"/><path fill="#fff" d="M481 0L54-1118h197c107 314 236 620 325 951 87-331 217-637 324-951h197L670 0H481" id="aB"/><path fill="#fff" d="M628 24c-324 0-524-230-524-574 0-343 198-582 503-582 237 0 487 146 487 559v75H286c9 234 145 362 343 362 132 0 231-58 273-172l174 48C1024-91 857 24 628 24zM287-650h624c-17-190-120-322-304-322-192 0-309 151-320 322" id="aC"/><g id="a"><use transform="matrix(0.01953125,0,0,0.01953125,0,0)" xlink:href="#av"/><use transform="matrix(0.01953125,0,0,0.01953125,27.59765625,0)" xlink:href="#aw"/><use transform="matrix(0.01953125,0,0,0.01953125,52.08984375,0)" xlink:href="#ax"/><use transform="matrix(0.01953125,0,0,0.01953125,74.55078125,0)" xlink:href="#ay"/><use transform="matrix(0.01953125,0,0,0.01953125,99.04296875,0)" xlink:href="#az"/><use transform="matrix(0.01953125,0,0,0.01953125,112.12890625,0)" xlink:href="#aA"/><use transform="matrix(0.01953125,0,0,0.01953125,121.81640625,0)" xlink:href="#aB"/><use transform="matrix(0.01953125,0,0,0.01953125,143.515625,0)" xlink:href="#aC"/></g><path fill="#fff" d="M98-1322v-168h1126v168H757V0H567v-1322H98" id="aD"/><path fill="#fff" d="M537 14c-226 0-379-139-379-422v-710h180v695c0 172 97 275 253 275 160 0 281-109 281-300v-670h181V0H879v-209C806-46 684 14 537 14" id="aE"/><path fill="#fff" d="M613 24c-304 0-509-231-509-576 0-350 205-580 509-580 305 0 511 230 511 580 0 345-206 576-511 576zm0-161c226 0 329-195 329-415 0-222-103-419-329-419-223 0-326 196-326 419 0 220 103 415 326 415" id="aF"/><path fill="#fff" d="M158 0v-1118h174v172h12c41-113 157-188 290-188 26 0 70 2 91 3v181c-11-2-60-10-108-10-161 0-279 109-279 260V0H158" id="aG"/><path fill="#fff" d="M338-670V0H158v-1118h173l1 207c72-158 192-221 342-221 226 0 378 139 378 422V0H872v-695c0-172-96-275-252-275-161 0-282 109-282 300" id="aH"/><path fill="#fff" d="M611 442c-248 0-391-105-460-228l146-94c47 65 117 165 314 165 178 0 307-82 307-266v-224h-17C863-141 792-18 576-18c-268 0-472-195-472-546 0-346 197-568 476-568 216 0 288 133 326 193h17v-179h175V29c0 289-215 413-487 413zm-5-620c203 0 314-146 314-390 0-237-108-403-314-403-213 0-319 180-319 403 0 230 109 390 319 390" id="aI"/><g id="b"><use transform="matrix(0.01953125,0,0,0.01953125,0,0)" xlink:href="#aD"/><use transform="matrix(0.01953125,0,0,0.01953125,22.87109375,0)" xlink:href="#aE"/><use transform="matrix(0.01953125,0,0,0.01953125,46.5234375,0)" xlink:href="#az"/><use transform="matrix(0.01953125,0,0,0.01953125,59.21875,0)" xlink:href="#aF"/><use transform="matrix(0.01953125,0,0,0.01953125,83.203125,0)" xlink:href="#aG"/><use transform="matrix(0.01953125,0,0,0.01953125,98.88671875,0)" xlink:href="#aA"/><use transform="matrix(0.01953125,0,0,0.01953125,108.57421875,0)" xlink:href="#aH"/><use transform="matrix(0.01953125,0,0,0.01953125,132.20703125,0)" xlink:href="#aI"/></g><path fill="#fff" d="M370-1490V0H180v-1490h190" id="aJ"/><g id="c"><use transform="matrix(0.01953125,0,0,0.01953125,0,0)" xlink:href="#av"/><use transform="matrix(0.01953125,0,0,0.01953125,27.59765625,0)" xlink:href="#aJ"/></g><path fill="#fff" d="M657 26c-323 0-524-166-541-416h195c15 169 171 246 346 246 202 0 356-106 356-265 5-203-294-238-475-293-239-73-380-191-380-389 0-252 224-419 512-419 294 0 499 171 508 396H992c-17-145-151-228-328-228-193 0-321 102-321 242 0 156 175 211 284 241l149 41c160 44 422 134 422 412 0 244-197 432-541 432" id="aK"/><g id="d"><use transform="matrix(0.01953125,0,0,0.01953125,0,0)" xlink:href="#aK"/><use transform="matrix(0.01953125,0,0,0.01953125,25.6640625,0)" xlink:href="#ax"/><use transform="matrix(0.01953125,0,0,0.01953125,48.125,0)" xlink:href="#ax"/><use transform="matrix(0.01953125,0,0,0.01953125,70.5859375,0)" xlink:href="#aK"/></g><path fill="#fff" d="M613 24c-304 0-509-231-509-576 0-350 205-580 509-580 216 0 392 114 453 309l-173 49c-33-115-133-197-280-197-223 0-326 196-326 419 0 220 103 415 326 415 150 0 252-85 285-206l172 49C1010-95 832 24 613 24" id="aL"/><path fill="#fff" d="M338-670V0H158v-1490h180v566c73-149 190-208 336-208 226 0 379 139 379 422V0H872v-695c0-172-96-275-252-275-161 0-282 109-282 300" id="aM"/><g id="e"><use transform="matrix(0.01953125,0,0,0.01953125,0,0)" xlink:href="#av"/><use transform="matrix(0.01953125,0,0,0.01953125,27.59765625,0)" xlink:href="#aG"/><use transform="matrix(0.01953125,0,0,0.01953125,41.9921875,0)" xlink:href="#aL"/><use transform="matrix(0.01953125,0,0,0.01953125,64.84375,0)" xlink:href="#aM"/><use transform="matrix(0.01953125,0,0,0.01953125,88.49609375,0)" xlink:href="#aA"/><use transform="matrix(0.01953125,0,0,0.01953125,98.18359375,0)" xlink:href="#az"/><use transform="matrix(0.01953125,0,0,0.01953125,110.87890625,0)" xlink:href="#aC"/><use transform="matrix(0.01953125,0,0,0.01953125,134.19921875,0)" xlink:href="#aL"/><use transform="matrix(0.01953125,0,0,0.01953125,157.05078125,0)" xlink:href="#az"/><use transform="matrix(0.01953125,0,0,0.01953125,170.13671875,0)" xlink:href="#aE"/><use transform="matrix(0.01953125,0,0,0.01953125,193.7890625,0)" xlink:href="#aG"/><use transform="matrix(0.01953125,0,0,0.01953125,208.18359375,0)" xlink:href="#aC"/></g><path d="M180 0v-1490h190v1322h690V0H180" id="aN"/><path d="M628 24c-324 0-524-230-524-574 0-343 198-582 503-582 237 0 487 146 487 559v75H286c9 234 145 362 343 362 132 0 231-58 273-172l174 48C1024-91 857 24 628 24zM287-650h624c-17-190-120-322-304-322-192 0-309 151-320 322" id="aO"/><path d="M611 442c-248 0-391-105-460-228l146-94c47 65 117 165 314 165 178 0 307-82 307-266v-224h-17C863-141 792-18 576-18c-268 0-472-195-472-546 0-346 197-568 476-568 216 0 288 133 326 193h17v-179h175V29c0 289-215 413-487 413zm-5-620c203 0 314-146 314-390 0-237-108-403-314-403-213 0-319 180-319 403 0 230 109 390 319 390" id="aP"/><path d="M338-670V0H158v-1118h173l1 207c72-158 192-221 342-221 226 0 378 139 378 422V0H872v-695c0-172-96-275-252-275-161 0-282 109-282 300" id="aQ"/><path d="M577 24c-279 0-473-224-473-580 0-354 195-576 474-576 218 0 287 134 324 193h14v-551h180V0H922v-173h-20C865-111 790 24 577 24zm27-161c203 0 314-172 314-421 0-247-108-413-314-413-212 0-317 181-317 413 0 235 108 421 317 421" id="aR"/><g id="f"><use transform="matrix(0.010850694444444444,0,0,0.010850694444444444,0,0)" xlink:href="#aN"/><use transform="matrix(0.010850694444444444,0,0,0.010850694444444444,12.565104166666666,0)" xlink:href="#aO"/><use transform="matrix(0.010850694444444444,0,0,0.010850694444444444,25.520833333333332,0)" xlink:href="#aP"/><use transform="matrix(0.010850694444444444,0,0,0.010850694444444444,39.14930555555556,0)" xlink:href="#aO"/><use transform="matrix(0.010850694444444444,0,0,0.010850694444444444,52.10503472222222,0)" xlink:href="#aQ"/><use transform="matrix(0.010850694444444444,0,0,0.010850694444444444,65.234375,0)" xlink:href="#aR"/></g><path d="M52 0l541-1490h220L1361 0h-200l-149-416H398L254 0H52zm404-582h497c-103-290-145-390-251-756-108 377-145 460-246 756" id="aS"/><path d="M158 418v-1536h174v179h20c37-59 106-193 324-193 279 0 474 222 474 576 0 356-194 580-473 580-213 0-288-135-325-197h-14v591H158zm492-555c209 0 317-186 317-421 0-232-105-413-317-413-206 0-314 166-314 413 0 249 111 421 314 421" id="aT"/><path d="M338-1490V0H158v-1490h180" id="aU"/><path d="M158 0v-1118h180V0H158zm91-1301c-68 0-125-53-125-119s57-119 125-119c69 0 126 53 126 119s-57 119-126 119" id="aV"/><path d="M613 24c-304 0-509-231-509-576 0-350 205-580 509-580 216 0 392 114 453 309l-173 49c-33-115-133-197-280-197-223 0-326 196-326 419 0 220 103 415 326 415 150 0 252-85 285-206l172 49C1010-95 832 24 613 24" id="aW"/><path d="M471 26C259 26 90-98 90-318c0-256 228-303 435-329 202-27 287-16 287-108 0-139-79-219-234-219-161 0-248 86-283 164l-173-57c86-203 278-265 451-265 150 0 419 46 419 395V0H815v-152h-12C765-73 660 26 471 26zm31-159c199 0 310-134 310-271v-155c-30 35-226 55-295 64-131 17-246 59-246 186 0 116 97 176 231 176" id="aX"/><path d="M598-1118v154H368v674c0 100 37 144 132 144 23 0 62-6 92-12L629-6c-37 13-88 20-134 20-193 0-307-107-307-290v-688H20v-154h168v-266h180v266h230" id="aY"/><path d="M613 24c-304 0-509-231-509-576 0-350 205-580 509-580 305 0 511 230 511 580 0 345-206 576-511 576zm0-161c226 0 329-195 329-415 0-222-103-419-329-419-223 0-326 196-326 419 0 220 103 415 326 415" id="aZ"/><g id="g"><use transform="matrix(0.010850694444444444,0,0,0.010850694444444444,0,0)" xlink:href="#aS"/><use transform="matrix(0.010850694444444444,0,0,0.010850694444444444,15.33203125,0)" xlink:href="#aT"/><use transform="matrix(0.010850694444444444,0,0,0.010850694444444444,28.938802083333332,0)" xlink:href="#aT"/><use transform="matrix(0.010850694444444444,0,0,0.010850694444444444,42.545572916666664,0)" xlink:href="#aU"/><use transform="matrix(0.010850694444444444,0,0,0.010850694444444444,47.92751736111111,0)" xlink:href="#aV"/><use transform="matrix(0.010850694444444444,0,0,0.010850694444444444,53.30946180555556,0)" xlink:href="#aW"/><use transform="matrix(0.010850694444444444,0,0,0.010850694444444444,66.22178819444443,0)" xlink:href="#aX"/><use transform="matrix(0.010850694444444444,0,0,0.010850694444444444,78.70008680555554,0)" xlink:href="#aY"/><use transform="matrix(0.010850694444444444,0,0,0.010850694444444444,85.97005208333331,0)" xlink:href="#aV"/><use transform="matrix(0.010850694444444444,0,0,0.010850694444444444,91.35199652777776,0)" xlink:href="#aZ"/><use transform="matrix(0.010850694444444444,0,0,0.010850694444444444,104.67664930555553,0)" xlink:href="#aQ"/></g><path d="M140 405l46-156c120 36 205 19 263-150l32-93L54-1118h197c107 313 237 620 324 950 87-331 219-637 326-950h196L606 167c-68 178-176 259-334 259-64 0-113-12-132-21" id="ba"/><path d="M158 0v-1118h174v172h12c41-113 157-188 290-188 26 0 70 2 91 3v181c-11-2-60-10-108-10-161 0-279 109-279 260V0H158" id="bb"/><g id="h"><use transform="matrix(0.010850694444444444,0,0,0.010850694444444444,0,0)" xlink:href="#aN"/><use transform="matrix(0.010850694444444444,0,0,0.010850694444444444,12.565104166666666,0)" xlink:href="#aX"/><use transform="matrix(0.010850694444444444,0,0,0.010850694444444444,24.717881944444443,0)" xlink:href="#ba"/><use transform="matrix(0.010850694444444444,0,0,0.010850694444444444,36.77300347222222,0)" xlink:href="#aO"/><use transform="matrix(0.010850694444444444,0,0,0.010850694444444444,49.728732638888886,0)" xlink:href="#bb"/></g><path d="M1024-719v166H0v-166h1024" id="bc"/><use transform="matrix(0.010850694444444444,0,0,0.010850694444444444,0,0)" xlink:href="#bc" id="i"/><path d="M481 0L54-1118h197c107 314 236 620 325 951 87-331 217-637 324-951h197L670 0H481" id="bd"/><g id="j"><use transform="matrix(0.010850694444444444,0,0,0.010850694444444444,0,0)" xlink:href="#aS"/><use transform="matrix(0.010850694444444444,0,0,0.010850694444444444,15.33203125,0)" xlink:href="#aR"/><use transform="matrix(0.010850694444444444,0,0,0.010850694444444444,28.938802083333332,0)" xlink:href="#aX"/><use transform="matrix(0.010850694444444444,0,0,0.010850694444444444,41.41710069444444,0)" xlink:href="#aT"/><use transform="matrix(0.010850694444444444,0,0,0.010850694444444444,55.02387152777778,0)" xlink:href="#aY"/><use transform="matrix(0.010850694444444444,0,0,0.010850694444444444,62.29383680555555,0)" xlink:href="#aV"/><use transform="matrix(0.010850694444444444,0,0,0.010850694444444444,67.67578125,0)" xlink:href="#bd"/><use transform="matrix(0.010850694444444444,0,0,0.010850694444444444,79.73090277777779,0)" xlink:href="#aO"/></g><path d="M98-1322v-168h1126v168H757V0H567v-1322H98" id="be"/><path d="M537 14c-226 0-379-139-379-422v-710h180v695c0 172 97 275 253 275 160 0 281-109 281-300v-670h181V0H879v-209C806-46 684 14 537 14" id="bf"/><g id="k"><use transform="matrix(0.010850694444444444,0,0,0.010850694444444444,0,0)" xlink:href="#be"/><use transform="matrix(0.010850694444444444,0,0,0.010850694444444444,12.706163194444445,0)" xlink:href="#bf"/><use transform="matrix(0.010850694444444444,0,0,0.010850694444444444,25.846354166666664,0)" xlink:href="#aY"/><use transform="matrix(0.010850694444444444,0,0,0.010850694444444444,32.89930555555555,0)" xlink:href="#aZ"/><use transform="matrix(0.010850694444444444,0,0,0.010850694444444444,46.22395833333333,0)" xlink:href="#bb"/><use transform="matrix(0.010850694444444444,0,0,0.010850694444444444,54.93706597222221,0)" xlink:href="#aV"/><use transform="matrix(0.010850694444444444,0,0,0.010850694444444444,60.31901041666666,0)" xlink:href="#aQ"/><use transform="matrix(0.010850694444444444,0,0,0.010850694444444444,73.44835069444443,0)" xlink:href="#aP"/></g><path d="M370-1490V0H180v-1490h190" id="bg"/><g id="l"><use transform="matrix(0.010850694444444444,0,0,0.010850694444444444,0,0)" xlink:href="#aS"/><use transform="matrix(0.010850694444444444,0,0,0.010850694444444444,15.33203125,0)" xlink:href="#bg"/></g><path d="M657 26c-323 0-524-166-541-416h195c15 169 171 246 346 246 202 0 356-106 356-265 5-203-294-238-475-293-239-73-380-191-380-389 0-252 224-419 512-419 294 0 499 171 508 396H992c-17-145-151-228-328-228-193 0-321 102-321 242 0 156 175 211 284 241l149 41c160 44 422 134 422 412 0 244-197 432-541 432" id="bh"/><g id="m"><use transform="matrix(0.010850694444444444,0,0,0.010850694444444444,0,0)" xlink:href="#bh"/><use transform="matrix(0.010850694444444444,0,0,0.010850694444444444,14.2578125,0)" xlink:href="#aX"/><use transform="matrix(0.010850694444444444,0,0,0.010850694444444444,26.73611111111111,0)" xlink:href="#aX"/><use transform="matrix(0.010850694444444444,0,0,0.010850694444444444,39.21440972222222,0)" xlink:href="#bh"/></g><path d="M338-670V0H158v-1490h180v566c73-149 190-208 336-208 226 0 379 139 379 422V0H872v-695c0-172-96-275-252-275-161 0-282 109-282 300" id="bi"/><g id="o"><use transform="matrix(0.010850694444444444,0,0,0.010850694444444444,0,0)" xlink:href="#aS"/><use transform="matrix(0.010850694444444444,0,0,0.010850694444444444,15.33203125,0)" xlink:href="#bf"/><use transform="matrix(0.010850694444444444,0,0,0.010850694444444444,28.47222222222222,0)" xlink:href="#aY"/><use transform="matrix(0.010850694444444444,0,0,0.010850694444444444,35.7421875,0)" xlink:href="#bi"/></g><g id="p"><use transform="matrix(0.010850694444444444,0,0,0.010850694444444444,0,0)" xlink:href="#bh"/><use transform="matrix(0.010850694444444444,0,0,0.010850694444444444,14.2578125,0)" xlink:href="#aO"/><use transform="matrix(0.010850694444444444,0,0,0.010850694444444444,27.213541666666664,0)" xlink:href="#bb"/><use transform="matrix(0.010850694444444444,0,0,0.010850694444444444,35.92664930555555,0)" xlink:href="#bd"/><use transform="matrix(0.010850694444444444,0,0,0.010850694444444444,48.41579861111111,0)" xlink:href="#aV"/><use transform="matrix(0.010850694444444444,0,0,0.010850694444444444,53.79774305555556,0)" xlink:href="#aW"/><use transform="matrix(0.010850694444444444,0,0,0.010850694444444444,66.49305555555554,0)" xlink:href="#aO"/></g><path d="M538 24C308 24 148-78 108-271l171-41c32 123 123 178 257 178 156 0 256-77 256-169 0-77-54-128-164-154l-186-44c-203-48-300-148-300-305 0-192 176-326 414-326 230 0 351 112 402 269l-163 42c-31-80-94-158-238-158-133 0-233 69-233 162 0 83 57 129 188 160l169 40c203 48 298 149 298 302 0 196-179 339-441 339" id="bj"/><g id="q"><use transform="matrix(0.010850694444444444,0,0,0.010850694444444444,0,0)" xlink:href="#bf"/><use transform="matrix(0.010850694444444444,0,0,0.010850694444444444,13.140190972222221,0)" xlink:href="#bj"/><use transform="matrix(0.010850694444444444,0,0,0.010850694444444444,24.869791666666664,0)" xlink:href="#aO"/><use transform="matrix(0.010850694444444444,0,0,0.010850694444444444,37.82552083333333,0)" xlink:href="#bb"/></g><path d="M128 359l88-567h206L266 359H128" id="bk"/><g id="r"><use transform="matrix(0.010850694444444444,0,0,0.010850694444444444,0,0)" xlink:href="#aX"/><use transform="matrix(0.010850694444444444,0,0,0.010850694444444444,12.47829861111111,0)" xlink:href="#bf"/><use transform="matrix(0.010850694444444444,0,0,0.010850694444444444,25.618489583333332,0)" xlink:href="#aY"/><use transform="matrix(0.010850694444444444,0,0,0.010850694444444444,32.88845486111111,0)" xlink:href="#bi"/><use transform="matrix(0.010850694444444444,0,0,0.010850694444444444,46.02864583333333,0)" xlink:href="#aO"/><use transform="matrix(0.010850694444444444,0,0,0.010850694444444444,58.984374999999986,0)" xlink:href="#aQ"/><use transform="matrix(0.010850694444444444,0,0,0.010850694444444444,72.11371527777777,0)" xlink:href="#aY"/><use transform="matrix(0.010850694444444444,0,0,0.010850694444444444,79.38368055555554,0)" xlink:href="#aV"/><use transform="matrix(0.010850694444444444,0,0,0.010850694444444444,84.76562499999999,0)" xlink:href="#aW"/><use transform="matrix(0.010850694444444444,0,0,0.010850694444444444,97.67795138888887,0)" xlink:href="#aX"/><use transform="matrix(0.010850694444444444,0,0,0.010850694444444444,110.15624999999997,0)" xlink:href="#aY"/><use transform="matrix(0.010850694444444444,0,0,0.010850694444444444,117.42621527777776,0)" xlink:href="#aV"/><use transform="matrix(0.010850694444444444,0,0,0.010850694444444444,122.8081597222222,0)" xlink:href="#aZ"/><use transform="matrix(0.010850694444444444,0,0,0.010850694444444444,136.13281249999997,0)" xlink:href="#aQ"/><use transform="matrix(0.010850694444444444,0,0,0.010850694444444444,149.26215277777774,0)" xlink:href="#bk"/></g><path d="M545 20c-263 0-445-160-445-446v-80h190v80c0 182 102 279 255 279 152 0 254-97 254-279v-1064h190v1064c0 286-181 446-444 446" id="bl"/><path d="M458 0L52-1490h194c108 439 233 855 324 1313 92-459 221-873 331-1313h216c110 438 234 854 330 1307 92-455 216-869 323-1307h196L1558 0h-221l-256-944c-26-95-50-200-73-331-22 122-44 223-73 331L680 0H458" id="bm"/><g id="s"><use transform="matrix(0.010850694444444444,0,0,0.010850694444444444,0,0)" xlink:href="#bl"/><use transform="matrix(0.010850694444444444,0,0,0.010850694444444444,12.684461805555555,0)" xlink:href="#bm"/><use transform="matrix(0.010850694444444444,0,0,0.010850694444444444,34.58116319444444,0)" xlink:href="#be"/></g><path d="M158 0v-1490h180v865h22l478-493h223L593-638 1096 0H865L456-523 338-412V0H158" id="bn"/><g id="t"><use transform="matrix(0.010850694444444444,0,0,0.010850694444444444,0,0)" xlink:href="#aY"/><use transform="matrix(0.010850694444444444,0,0,0.010850694444444444,7.052951388888888,0)" xlink:href="#aZ"/><use transform="matrix(0.010850694444444444,0,0,0.010850694444444444,20.377604166666664,0)" xlink:href="#bn"/><use transform="matrix(0.010850694444444444,0,0,0.010850694444444444,32.07465277777778,0)" xlink:href="#aO"/><use transform="matrix(0.010850694444444444,0,0,0.010850694444444444,45.03038194444444,0)" xlink:href="#aQ"/><use transform="matrix(0.010850694444444444,0,0,0.010850694444444444,58.15972222222222,0)" xlink:href="#bj"/><use transform="matrix(0.010850694444444444,0,0,0.010850694444444444,69.88932291666667,0)" xlink:href="#bk"/></g><path d="M180 0v-1490h510c348 0 508 194 508 460 0 198-88 351-276 417L1256 0h-220L726-579c-117 2-238 0-356 1V0H180zm190-747h312c235 0 327-108 327-283 0-177-92-293-329-293H370v576" id="bo"/><path d="M180 0v-1490h528c311 0 458 177 458 395 0 191-114 278-244 313v14c139 9 302 137 302 371 0 225-148 397-499 397H180zm190-168h350c232 0 321-102 321-231 0-149-120-277-311-277H370v508zm0-668h328c160 0 286-101 286-255 0-129-87-231-280-231H370v486" id="bp"/><path d="M783 20c-382 0-661-292-661-764 0-473 279-766 661-766 302 0 548 182 601 489h-190c-42-204-217-313-411-313-268 0-476 208-476 590 0 381 209 588 476 588 195 0 369-110 411-313h190c-52 303-296 489-601 489" id="bq"/><g id="u"><use transform="matrix(0.010850694444444444,0,0,0.010850694444444444,0,0)" xlink:href="#bo"/><use transform="matrix(0.010850694444444444,0,0,0.010850694444444444,14.301215277777777,0)" xlink:href="#bp"/><use transform="matrix(0.010850694444444444,0,0,0.010850694444444444,28.841145833333332,0)" xlink:href="#aS"/><use transform="matrix(0.010850694444444444,0,0,0.010850694444444444,43.41362847222222,0)" xlink:href="#bq"/></g><path d="M763 24c-353 0-583-224-583-531v-983h190v968c0 214 149 370 393 370 243 0 391-156 391-370v-968h190v983c0 307-230 531-581 531" id="br"/><g id="w"><use transform="matrix(0.010850694444444444,0,0,0.010850694444444444,0,0)" xlink:href="#br"/><use transform="matrix(0.010850694444444444,0,0,0.010850694444444444,16.536458333333332,0)" xlink:href="#bj"/><use transform="matrix(0.010850694444444444,0,0,0.010850694444444444,28.266059027777775,0)" xlink:href="#aO"/><use transform="matrix(0.010850694444444444,0,0,0.010850694444444444,41.22178819444444,0)" xlink:href="#bb"/></g><path d="M180 0v-1490h510c348 0 508 209 508 474 0 266-160 477-507 477H370V0H180zm190-706h312c236 0 327-133 327-310 0-176-91-307-329-307H370v617" id="bs"/><path d="M678-1118v154H420V0H240v-964H20v-154h220v-149c0-194 155-293 318-293 85 0 141 18 168 30l-50 154c-19-6-47-17-97-17-111 0-159 58-159 166v109h258" id="bt"/><g id="x"><use transform="matrix(0.010850694444444444,0,0,0.010850694444444444,0,0)" xlink:href="#bs"/><use transform="matrix(0.010850694444444444,0,0,0.010850694444444444,14.192708333333332,0)" xlink:href="#bb"/><use transform="matrix(0.010850694444444444,0,0,0.010850694444444444,22.189670138888886,0)" xlink:href="#aZ"/><use transform="matrix(0.010850694444444444,0,0,0.010850694444444444,35.514322916666664,0)" xlink:href="#bt"/><use transform="matrix(0.010850694444444444,0,0,0.010850694444444444,43.73914930555556,0)" xlink:href="#aV"/><use transform="matrix(0.010850694444444444,0,0,0.010850694444444444,49.12109375,0)" xlink:href="#aU"/><use transform="matrix(0.010850694444444444,0,0,0.010850694444444444,54.50303819444444,0)" xlink:href="#aO"/></g><g id="y"><use transform="matrix(0.010850694444444444,0,0,0.010850694444444444,0,0)" xlink:href="#bf"/><use transform="matrix(0.010850694444444444,0,0,0.010850694444444444,13.140190972222221,0)" xlink:href="#bj"/><use transform="matrix(0.010850694444444444,0,0,0.010850694444444444,24.869791666666664,0)" xlink:href="#aO"/><use transform="matrix(0.010850694444444444,0,0,0.010850694444444444,37.82552083333333,0)" xlink:href="#bb"/></g><g id="z"><use transform="matrix(0.010850694444444444,0,0,0.010850694444444444,0,0)" xlink:href="#aR"/><use transform="matrix(0.010850694444444444,0,0,0.010850694444444444,13.606770833333332,0)" xlink:href="#aX"/><use transform="matrix(0.010850694444444444,0,0,0.010850694444444444,26.085069444444443,0)" xlink:href="#aY"/><use transform="matrix(0.010850694444444444,0,0,0.010850694444444444,33.463541666666664,0)" xlink:href="#aX"/><use transform="matrix(0.010850694444444444,0,0,0.010850694444444444,45.94184027777778,0)" xlink:href="#bk"/></g><g id="A"><use transform="matrix(0.010850694444444444,0,0,0.010850694444444444,0,0)" xlink:href="#aT"/><use transform="matrix(0.010850694444444444,0,0,0.010850694444444444,13.606770833333332,0)" xlink:href="#bb"/><use transform="matrix(0.010850694444444444,0,0,0.010850694444444444,21.603732638888886,0)" xlink:href="#aO"/><use transform="matrix(0.010850694444444444,0,0,0.010850694444444444,34.55946180555555,0)" xlink:href="#bt"/><use transform="matrix(0.010850694444444444,0,0,0.010850694444444444,42.13324652777777,0)" xlink:href="#aO"/><use transform="matrix(0.010850694444444444,0,0,0.010850694444444444,55.088975694444436,0)" xlink:href="#bb"/><use transform="matrix(0.010850694444444444,0,0,0.010850694444444444,63.085937499999986,0)" xlink:href="#aO"/><use transform="matrix(0.010850694444444444,0,0,0.010850694444444444,76.04166666666666,0)" xlink:href="#aQ"/><use transform="matrix(0.010850694444444444,0,0,0.010850694444444444,89.17100694444441,0)" xlink:href="#aW"/><use transform="matrix(0.010850694444444444,0,0,0.010850694444444444,101.86631944444441,0)" xlink:href="#aO"/><use transform="matrix(0.010850694444444444,0,0,0.010850694444444444,114.8220486111111,0)" xlink:href="#bj"/><use transform="matrix(0.010850694444444444,0,0,0.010850694444444444,126.55164930555556,0)" xlink:href="#bk"/></g><path d="M677 24c-213 0-288-135-325-197h-20V0H158v-1490h180v551h14c37-59 106-193 324-193 279 0 474 222 474 576 0 356-194 580-473 580zm-27-161c209 0 317-186 317-421 0-232-105-413-317-413-206 0-314 166-314 413 0 249 111 421 314 421" id="bu"/><g id="B"><use transform="matrix(0.010850694444444444,0,0,0.010850694444444444,0,0)" xlink:href="#bj"/><use transform="matrix(0.010850694444444444,0,0,0.010850694444444444,11.729600694444445,0)" xlink:href="#bf"/><use transform="matrix(0.010850694444444444,0,0,0.010850694444444444,24.869791666666664,0)" xlink:href="#bu"/><use transform="matrix(0.010850694444444444,0,0,0.010850694444444444,38.4765625,0)" xlink:href="#bj"/><use transform="matrix(0.010850694444444444,0,0,0.010850694444444444,50.20616319444444,0)" xlink:href="#aW"/><use transform="matrix(0.010850694444444444,0,0,0.010850694444444444,62.90147569444444,0)" xlink:href="#bb"/><use transform="matrix(0.010850694444444444,0,0,0.010850694444444444,71.61458333333333,0)" xlink:href="#aV"/><use transform="matrix(0.010850694444444444,0,0,0.010850694444444444,76.99652777777777,0)" xlink:href="#aT"/><use transform="matrix(0.010850694444444444,0,0,0.010850694444444444,90.60329861111111,0)" xlink:href="#aY"/><use transform="matrix(0.010850694444444444,0,0,0.010850694444444444,97.87326388888887,0)" xlink:href="#aV"/><use transform="matrix(0.010850694444444444,0,0,0.010850694444444444,103.25520833333331,0)" xlink:href="#aZ"/><use transform="matrix(0.010850694444444444,0,0,0.010850694444444444,116.57986111111109,0)" xlink:href="#aQ"/><use transform="matrix(0.010850694444444444,0,0,0.010850694444444444,129.70920138888886,0)" xlink:href="#bj"/></g><g id="D"><use transform="matrix(0.010850694444444444,0,0,0.010850694444444444,0,0)" xlink:href="#bh"/><use transform="matrix(0.010850694444444444,0,0,0.010850694444444444,14.2578125,0)" xlink:href="#aO"/><use transform="matrix(0.010850694444444444,0,0,0.010850694444444444,27.213541666666664,0)" xlink:href="#bj"/><use transform="matrix(0.010850694444444444,0,0,0.010850694444444444,38.94314236111111,0)" xlink:href="#bj"/><use transform="matrix(0.010850694444444444,0,0,0.010850694444444444,50.67274305555556,0)" xlink:href="#aV"/><use transform="matrix(0.010850694444444444,0,0,0.010850694444444444,56.054687499999986,0)" xlink:href="#aZ"/><use transform="matrix(0.010850694444444444,0,0,0.010850694444444444,69.37934027777777,0)" xlink:href="#aQ"/></g><g id="E"><use transform="matrix(0.010850694444444444,0,0,0.010850694444444444,0,0)" xlink:href="#aS"/><use transform="matrix(0.010850694444444444,0,0,0.010850694444444444,15.33203125,0)" xlink:href="#bg"/></g><g id="F"><use transform="matrix(0.010850694444444444,0,0,0.010850694444444444,0,0)" xlink:href="#aY"/><use transform="matrix(0.010850694444444444,0,0,0.010850694444444444,7.269965277777778,0)" xlink:href="#bf"/><use transform="matrix(0.010850694444444444,0,0,0.010850694444444444,20.41015625,0)" xlink:href="#aY"/><use transform="matrix(0.010850694444444444,0,0,0.010850694444444444,27.46310763888889,0)" xlink:href="#aZ"/><use transform="matrix(0.010850694444444444,0,0,0.010850694444444444,40.787760416666664,0)" xlink:href="#bb"/><use transform="matrix(0.010850694444444444,0,0,0.010850694444444444,49.50086805555556,0)" xlink:href="#aV"/><use transform="matrix(0.010850694444444444,0,0,0.010850694444444444,54.882812499999986,0)" xlink:href="#aQ"/><use transform="matrix(0.010850694444444444,0,0,0.010850694444444444,68.01215277777777,0)" xlink:href="#aP"/></g><g id="G"><use transform="matrix(0.010850694444444444,0,0,0.010850694444444444,0,0)" xlink:href="#bj"/><use transform="matrix(0.010850694444444444,0,0,0.010850694444444444,11.729600694444445,0)" xlink:href="#aO"/><use transform="matrix(0.010850694444444444,0,0,0.010850694444444444,24.68532986111111,0)" xlink:href="#bj"/><use transform="matrix(0.010850694444444444,0,0,0.010850694444444444,36.41493055555556,0)" xlink:href="#bj"/><use transform="matrix(0.010850694444444444,0,0,0.010850694444444444,48.14453125,0)" xlink:href="#aV"/><use transform="matrix(0.010850694444444444,0,0,0.010850694444444444,53.52647569444444,0)" xlink:href="#aZ"/><use transform="matrix(0.010850694444444444,0,0,0.010850694444444444,66.85112847222221,0)" xlink:href="#aQ"/><use transform="matrix(0.010850694444444444,0,0,0.010850694444444444,79.98046874999999,0)" xlink:href="#bj"/><use transform="matrix(0.010850694444444444,0,0,0.010850694444444444,91.71006944444441,0)" xlink:href="#bk"/></g><g id="H"><use transform="matrix(0.010850694444444444,0,0,0.010850694444444444,0,0)" xlink:href="#aW"/><use transform="matrix(0.010850694444444444,0,0,0.010850694444444444,12.6953125,0)" xlink:href="#aZ"/><use transform="matrix(0.010850694444444444,0,0,0.010850694444444444,26.01996527777778,0)" xlink:href="#aQ"/><use transform="matrix(0.010850694444444444,0,0,0.010850694444444444,38.82378472222222,0)" xlink:href="#bd"/><use transform="matrix(0.010850694444444444,0,0,0.010850694444444444,50.87890625,0)" xlink:href="#aO"/><use transform="matrix(0.010850694444444444,0,0,0.010850694444444444,63.834635416666664,0)" xlink:href="#bb"/><use transform="matrix(0.010850694444444444,0,0,0.010850694444444444,72.20052083333333,0)" xlink:href="#bj"/><use transform="matrix(0.010850694444444444,0,0,0.010850694444444444,83.93012152777777,0)" xlink:href="#aX"/><use transform="matrix(0.010850694444444444,0,0,0.010850694444444444,96.40842013888889,0)" xlink:href="#aY"/><use transform="matrix(0.010850694444444444,0,0,0.010850694444444444,103.67838541666666,0)" xlink:href="#aV"/><use transform="matrix(0.010850694444444444,0,0,0.010850694444444444,109.06032986111111,0)" xlink:href="#aZ"/><use transform="matrix(0.010850694444444444,0,0,0.010850694444444444,122.38498263888887,0)" xlink:href="#aQ"/></g><path d="M65 0l393-574-370-544h210c88 136 192 297 267 435 67-142 176-302 264-435h206L661-564 1053 0H844c-94-144-206-310-287-458C484-308 366-142 273 0H65" id="bv"/><g id="I"><use transform="matrix(0.010850694444444444,0,0,0.010850694444444444,0,0)" xlink:href="#aW"/><use transform="matrix(0.010850694444444444,0,0,0.010850694444444444,12.6953125,0)" xlink:href="#aZ"/><use transform="matrix(0.010850694444444444,0,0,0.010850694444444444,26.01996527777778,0)" xlink:href="#aQ"/><use transform="matrix(0.010850694444444444,0,0,0.010850694444444444,39.14930555555556,0)" xlink:href="#aY"/><use transform="matrix(0.010850694444444444,0,0,0.010850694444444444,46.20225694444445,0)" xlink:href="#aO"/><use transform="matrix(0.010850694444444444,0,0,0.010850694444444444,58.65885416666667,0)" xlink:href="#bv"/><use transform="matrix(0.010850694444444444,0,0,0.010850694444444444,71.22395833333334,0)" xlink:href="#aY"/></g><path d="M158 0v-1118h175l1 205c55-151 181-225 313-225 147 0 245 90 285 228 53-141 190-228 352-228 194 0 352 125 352 384V0h-181v-749c0-161-105-225-225-225-151 0-243 103-243 244V0H807v-767c0-124-93-207-219-207-131 0-250 92-250 270V0H158" id="bw"/><g id="K"><use transform="matrix(0.010850694444444444,0,0,0.010850694444444444,0,0)" xlink:href="#bq"/><use transform="matrix(0.010850694444444444,0,0,0.010850694444444444,16.23263888888889,0)" xlink:href="#bf"/><use transform="matrix(0.010850694444444444,0,0,0.010850694444444444,29.37282986111111,0)" xlink:href="#bb"/><use transform="matrix(0.010850694444444444,0,0,0.010850694444444444,38.0859375,0)" xlink:href="#bb"/><use transform="matrix(0.010850694444444444,0,0,0.010850694444444444,46.799045138888886,0)" xlink:href="#aV"/><use transform="matrix(0.010850694444444444,0,0,0.010850694444444444,52.18098958333333,0)" xlink:href="#aW"/><use transform="matrix(0.010850694444444444,0,0,0.010850694444444444,64.87630208333333,0)" xlink:href="#bf"/><use transform="matrix(0.010850694444444444,0,0,0.010850694444444444,78.01649305555554,0)" xlink:href="#aU"/><use transform="matrix(0.010850694444444444,0,0,0.010850694444444444,83.39843749999999,0)" xlink:href="#bf"/><use transform="matrix(0.010850694444444444,0,0,0.010850694444444444,96.5386284722222,0)" xlink:href="#bw"/></g><path d="M580 20c-295 0-476-179-476-409 0-189 123-290 294-416-104-125-173-226-173-362 0-197 144-337 365-337 224 0 362 144 362 321 0 185-174 312-306 405l319 387c38-75 61-165 61-267h173c0 208-62 332-120 406L1287 0h-217L967-124C868-27 716 20 580 20zm279-273L507-675l-51 38c-123 91-167 162-167 254 0 147 113 246 278 246 107 0 210-41 292-116zM538-908l97-72c54-40 136-101 136-206 0-95-68-163-176-163-113 0-189 74-189 181 0 90 53 164 132 260" id="bx"/><use transform="matrix(0.010850694444444444,0,0,0.010850694444444444,0,0)" xlink:href="#bx" id="L"/><path d="M180 0v-1490h190v644h782v-644h190V0h-190v-678H370V0H180" id="by"/><path d="M409 0L70-1118h191c89 329 165 560 243 925 75-353 154-601 240-925h192c85 325 161 564 235 922 77-354 157-598 244-922h191L1267 0h-179c-86-307-176-590-250-913C763-588 675-308 588 0H409" id="bz"/><g id="M"><use transform="matrix(0.010850694444444444,0,0,0.010850694444444444,0,0)" xlink:href="#by"/><use transform="matrix(0.010850694444444444,0,0,0.010850694444444444,16.514756944444443,0)" xlink:href="#aZ"/><use transform="matrix(0.010850694444444444,0,0,0.010850694444444444,29.83940972222222,0)" xlink:href="#bw"/><use transform="matrix(0.010850694444444444,0,0,0.010850694444444444,49.30555555555556,0)" xlink:href="#aO"/><use transform="matrix(0.010850694444444444,0,0,0.010850694444444444,61.85980902777778,0)" xlink:href="#bz"/><use transform="matrix(0.010850694444444444,0,0,0.010850694444444444,79.64409722222223,0)" xlink:href="#aZ"/><use transform="matrix(0.010850694444444444,0,0,0.010850694444444444,92.96875,0)" xlink:href="#bb"/><use transform="matrix(0.010850694444444444,0,0,0.010850694444444444,101.6818576388889,0)" xlink:href="#bn"/></g><path d="M692-1560L212 224H46l480-1784h166" id="bA"/><g id="N"><use transform="matrix(0.010850694444444444,0,0,0.010850694444444444,0,0)" xlink:href="#bj"/><use transform="matrix(0.010850694444444444,0,0,0.010850694444444444,11.729600694444445,0)" xlink:href="#ba"/><use transform="matrix(0.010850694444444444,0,0,0.010850694444444444,24.327256944444443,0)" xlink:href="#aU"/><use transform="matrix(0.010850694444444444,0,0,0.010850694444444444,29.70920138888889,0)" xlink:href="#aU"/><use transform="matrix(0.010850694444444444,0,0,0.010850694444444444,35.09114583333333,0)" xlink:href="#aX"/><use transform="matrix(0.010850694444444444,0,0,0.010850694444444444,47.56944444444444,0)" xlink:href="#bu"/><use transform="matrix(0.010850694444444444,0,0,0.010850694444444444,61.17621527777778,0)" xlink:href="#bf"/><use transform="matrix(0.010850694444444444,0,0,0.010850694444444444,74.31640625,0)" xlink:href="#bj"/><use transform="matrix(0.010850694444444444,0,0,0.010850694444444444,86.04600694444444,0)" xlink:href="#bA"/><use transform="matrix(0.010850694444444444,0,0,0.010850694444444444,94.05381944444444,0)" xlink:href="#aU"/><use transform="matrix(0.010850694444444444,0,0,0.010850694444444444,99.43576388888889,0)" xlink:href="#aO"/><use transform="matrix(0.010850694444444444,0,0,0.010850694444444444,112.39149305555556,0)" xlink:href="#bj"/><use transform="matrix(0.010850694444444444,0,0,0.010850694444444444,124.12109375,0)" xlink:href="#bj"/><use transform="matrix(0.010850694444444444,0,0,0.010850694444444444,135.85069444444446,0)" xlink:href="#aZ"/><use transform="matrix(0.010850694444444444,0,0,0.010850694444444444,149.17534722222223,0)" xlink:href="#aQ"/><use transform="matrix(0.010850694444444444,0,0,0.010850694444444444,162.3046875,0)" xlink:href="#bj"/><use transform="matrix(0.010850694444444444,0,0,0.010850694444444444,174.03428819444446,0)" xlink:href="#bA"/><use transform="matrix(0.010850694444444444,0,0,0.010850694444444444,182.04210069444443,0)" xlink:href="#bi"/><use transform="matrix(0.010850694444444444,0,0,0.010850694444444444,195.18229166666669,0)" xlink:href="#aZ"/><use transform="matrix(0.010850694444444444,0,0,0.010850694444444444,208.50694444444449,0)" xlink:href="#bw"/><use transform="matrix(0.010850694444444444,0,0,0.010850694444444444,227.9730902777778,0)" xlink:href="#aO"/><use transform="matrix(0.010850694444444444,0,0,0.010850694444444444,240.52734375,0)" xlink:href="#bz"/><use transform="matrix(0.010850694444444444,0,0,0.010850694444444444,258.31163194444446,0)" xlink:href="#aZ"/><use transform="matrix(0.010850694444444444,0,0,0.010850694444444444,271.63628472222223,0)" xlink:href="#bb"/><use transform="matrix(0.010850694444444444,0,0,0.010850694444444444,280.34939236111114,0)" xlink:href="#bn"/><use transform="matrix(0.010850694444444444,0,0,0.010850694444444444,292.5455729166667,0)" xlink:href="#bk"/></g><g id="O"><use transform="matrix(0.010850694444444444,0,0,0.010850694444444444,0,0)" xlink:href="#aP"/><use transform="matrix(0.010850694444444444,0,0,0.010850694444444444,13.628472222222221,0)" xlink:href="#bb"/><use transform="matrix(0.010850694444444444,0,0,0.010850694444444444,21.994357638888886,0)" xlink:href="#aX"/><use transform="matrix(0.010850694444444444,0,0,0.010850694444444444,34.47265625,0)" xlink:href="#aR"/><use transform="matrix(0.010850694444444444,0,0,0.010850694444444444,48.07942708333333,0)" xlink:href="#aV"/><use transform="matrix(0.010850694444444444,0,0,0.010850694444444444,53.46137152777778,0)" xlink:href="#aQ"/><use transform="matrix(0.010850694444444444,0,0,0.010850694444444444,66.59071180555554,0)" xlink:href="#aP"/></g><path d="M784 20c-382 0-662-292-662-764 0-473 280-766 662-766s660 293 660 766c0 472-278 764-660 764zm0-176c266 0 475-207 475-588 0-383-209-590-475-590-268 0-477 208-477 590 0 380 209 588 477 588" id="bB"/><g id="Q"><use transform="matrix(0.010850694444444444,0,0,0.010850694444444444,0,0)" xlink:href="#bB"/><use transform="matrix(0.010850694444444444,0,0,0.010850694444444444,16.9921875,0)" xlink:href="#bb"/><use transform="matrix(0.010850694444444444,0,0,0.010850694444444444,24.989149305555554,0)" xlink:href="#aW"/><use transform="matrix(0.010850694444444444,0,0,0.010850694444444444,37.68446180555556,0)" xlink:href="#bi"/><use transform="matrix(0.010850694444444444,0,0,0.010850694444444444,50.82465277777778,0)" xlink:href="#aO"/><use transform="matrix(0.010850694444444444,0,0,0.010850694444444444,63.78038194444444,0)" xlink:href="#bj"/><use transform="matrix(0.010850694444444444,0,0,0.010850694444444444,75.50998263888889,0)" xlink:href="#aY"/><use transform="matrix(0.010850694444444444,0,0,0.010850694444444444,82.77994791666666,0)" xlink:href="#bb"/><use transform="matrix(0.010850694444444444,0,0,0.010850694444444444,91.14583333333333,0)" xlink:href="#aX"/><use transform="matrix(0.010850694444444444,0,0,0.010850694444444444,103.62413194444444,0)" xlink:href="#aY"/><use transform="matrix(0.010850694444444444,0,0,0.010850694444444444,110.89409722222221,0)" xlink:href="#aV"/><use transform="matrix(0.010850694444444444,0,0,0.010850694444444444,116.27604166666666,0)" xlink:href="#aZ"/><use transform="matrix(0.010850694444444444,0,0,0.010850694444444444,129.60069444444443,0)" xlink:href="#aQ"/></g><path d="M180 0v-1490h270l367 940c28 72 75 218 110 339 35-117 81-264 110-339l362-940h271V0h-187c2-448-5-837 7-1287-157 497-311 829-483 1287H842C666-458 514-784 354-1284c12 438 5 843 7 1284H180" id="bC"/><g id="R"><use transform="matrix(0.010850694444444444,0,0,0.010850694444444444,0,0)" xlink:href="#aN"/><use transform="matrix(0.010850694444444444,0,0,0.010850694444444444,12.565104166666666,0)" xlink:href="#aN"/><use transform="matrix(0.010850694444444444,0,0,0.010850694444444444,25.130208333333332,0)" xlink:href="#bC"/></g><g id="S"><use transform="matrix(0.010850694444444444,0,0,0.010850694444444444,0,0)" xlink:href="#aV"/><use transform="matrix(0.010850694444444444,0,0,0.010850694444444444,5.381944444444445,0)" xlink:href="#aQ"/><use transform="matrix(0.010850694444444444,0,0,0.010850694444444444,18.51128472222222,0)" xlink:href="#aY"/><use transform="matrix(0.010850694444444444,0,0,0.010850694444444444,25.56423611111111,0)" xlink:href="#aO"/><use transform="matrix(0.010850694444444444,0,0,0.010850694444444444,38.51996527777778,0)" xlink:href="#aP"/><use transform="matrix(0.010850694444444444,0,0,0.010850694444444444,52.1484375,0)" xlink:href="#bb"/><use transform="matrix(0.010850694444444444,0,0,0.010850694444444444,60.514322916666664,0)" xlink:href="#aX"/><use transform="matrix(0.010850694444444444,0,0,0.010850694444444444,72.99262152777777,0)" xlink:href="#aY"/><use transform="matrix(0.010850694444444444,0,0,0.010850694444444444,80.26258680555554,0)" xlink:href="#aV"/><use transform="matrix(0.010850694444444444,0,0,0.010850694444444444,85.64453124999999,0)" xlink:href="#aZ"/><use transform="matrix(0.010850694444444444,0,0,0.010850694444444444,98.96918402777776,0)" xlink:href="#aQ"/><use transform="matrix(0.010850694444444444,0,0,0.010850694444444444,112.09852430555553,0)" xlink:href="#bj"/><use transform="matrix(0.010850694444444444,0,0,0.010850694444444444,123.82812499999997,0)" xlink:href="#bk"/></g><g id="T"><use transform="matrix(0.010850694444444444,0,0,0.010850694444444444,0,0)" xlink:href="#aT"/><use transform="matrix(0.010850694444444444,0,0,0.010850694444444444,13.606770833333332,0)" xlink:href="#bb"/><use transform="matrix(0.010850694444444444,0,0,0.010850694444444444,21.603732638888886,0)" xlink:href="#aZ"/><use transform="matrix(0.010850694444444444,0,0,0.010850694444444444,34.928385416666664,0)" xlink:href="#bw"/><use transform="matrix(0.010850694444444444,0,0,0.010850694444444444,54.39453125,0)" xlink:href="#aT"/><use transform="matrix(0.010850694444444444,0,0,0.010850694444444444,68.00130208333333,0)" xlink:href="#aY"/><use transform="matrix(0.010850694444444444,0,0,0.010850694444444444,75.05425347222221,0)" xlink:href="#bj"/><use transform="matrix(0.010850694444444444,0,0,0.010850694444444444,86.78385416666666,0)" xlink:href="#bA"/><use transform="matrix(0.010850694444444444,0,0,0.010850694444444444,94.79166666666666,0)" xlink:href="#aW"/><use transform="matrix(0.010850694444444444,0,0,0.010850694444444444,107.48697916666666,0)" xlink:href="#aZ"/><use transform="matrix(0.010850694444444444,0,0,0.010850694444444444,120.81163194444441,0)" xlink:href="#aQ"/><use transform="matrix(0.010850694444444444,0,0,0.010850694444444444,133.9409722222222,0)" xlink:href="#aY"/><use transform="matrix(0.010850694444444444,0,0,0.010850694444444444,140.9939236111111,0)" xlink:href="#aO"/><use transform="matrix(0.010850694444444444,0,0,0.010850694444444444,153.4505208333333,0)" xlink:href="#bv"/><use transform="matrix(0.010850694444444444,0,0,0.010850694444444444,166.01562499999994,0)" xlink:href="#aY"/><use transform="matrix(0.010850694444444444,0,0,0.010850694444444444,173.28559027777771,0)" xlink:href="#bk"/></g><g id="U"><use transform="matrix(0.010850694444444444,0,0,0.010850694444444444,0,0)" xlink:href="#bj"/><use transform="matrix(0.010850694444444444,0,0,0.010850694444444444,11.729600694444445,0)" xlink:href="#aX"/><use transform="matrix(0.010850694444444444,0,0,0.010850694444444444,24.207899305555554,0)" xlink:href="#bt"/><use transform="matrix(0.010850694444444444,0,0,0.010850694444444444,31.781684027777775,0)" xlink:href="#aO"/><use transform="matrix(0.010850694444444444,0,0,0.010850694444444444,44.73741319444444,0)" xlink:href="#aY"/><use transform="matrix(0.010850694444444444,0,0,0.010850694444444444,52.44140625,0)" xlink:href="#ba"/></g><g id="V"><use transform="matrix(0.010850694444444444,0,0,0.010850694444444444,0,0)" xlink:href="#aP"/><use transform="matrix(0.010850694444444444,0,0,0.010850694444444444,13.628472222222221,0)" xlink:href="#bf"/><use transform="matrix(0.010850694444444444,0,0,0.010850694444444444,26.768663194444443,0)" xlink:href="#aX"/><use transform="matrix(0.010850694444444444,0,0,0.010850694444444444,39.24696180555556,0)" xlink:href="#bb"/><use transform="matrix(0.010850694444444444,0,0,0.010850694444444444,47.24392361111111,0)" xlink:href="#aR"/><use transform="matrix(0.010850694444444444,0,0,0.010850694444444444,60.85069444444444,0)" xlink:href="#bb"/><use transform="matrix(0.010850694444444444,0,0,0.010850694444444444,69.21657986111111,0)" xlink:href="#aX"/><use transform="matrix(0.010850694444444444,0,0,0.010850694444444444,81.69487847222223,0)" xlink:href="#aV"/><use transform="matrix(0.010850694444444444,0,0,0.010850694444444444,87.07682291666667,0)" xlink:href="#aU"/><use transform="matrix(0.010850694444444444,0,0,0.010850694444444444,92.45876736111111,0)" xlink:href="#bj"/></g><g id="X"><use transform="matrix(0.010850694444444444,0,0,0.010850694444444444,0,0)" xlink:href="#aS"/><use transform="matrix(0.010850694444444444,0,0,0.010850694444444444,15.33203125,0)" xlink:href="#aQ"/><use transform="matrix(0.010850694444444444,0,0,0.010850694444444444,28.461371527777775,0)" xlink:href="#aX"/><use transform="matrix(0.010850694444444444,0,0,0.010850694444444444,40.939670138888886,0)" xlink:href="#aU"/><use transform="matrix(0.010850694444444444,0,0,0.010850694444444444,46.43012152777778,0)" xlink:href="#ba"/><use transform="matrix(0.010850694444444444,0,0,0.010850694444444444,59.244791666666664,0)" xlink:href="#aY"/><use transform="matrix(0.010850694444444444,0,0,0.010850694444444444,66.51475694444444,0)" xlink:href="#aV"/><use transform="matrix(0.010850694444444444,0,0,0.010850694444444444,71.89670138888889,0)" xlink:href="#aW"/><use transform="matrix(0.010850694444444444,0,0,0.010850694444444444,84.59201388888889,0)" xlink:href="#bj"/></g><path d="M180 0v-1490h224l606 953c40 63 108 177 176 312-27-437-7-821-13-1265h190V0h-226C860-448 622-778 356-1262c27 476 11 792 15 1262H180" id="bD"/><g id="Y"><use transform="matrix(0.010850694444444444,0,0,0.010850694444444444,0,0)" xlink:href="#bD"/><use transform="matrix(0.010850694444444444,0,0,0.010850694444444444,16.74262152777778,0)" xlink:href="#aZ"/><use transform="matrix(0.010850694444444444,0,0,0.010850694444444444,30.06727430555556,0)" xlink:href="#aY"/><use transform="matrix(0.010850694444444444,0,0,0.010850694444444444,37.337239583333336,0)" xlink:href="#aV"/><use transform="matrix(0.010850694444444444,0,0,0.010850694444444444,42.71918402777778,0)" xlink:href="#bt"/><use transform="matrix(0.010850694444444444,0,0,0.010850694444444444,50.94401041666667,0)" xlink:href="#aV"/><use transform="matrix(0.010850694444444444,0,0,0.010850694444444444,56.32595486111112,0)" xlink:href="#aW"/><use transform="matrix(0.010850694444444444,0,0,0.010850694444444444,69.23828125,0)" xlink:href="#aX"/><use transform="matrix(0.010850694444444444,0,0,0.010850694444444444,81.71657986111111,0)" xlink:href="#aY"/><use transform="matrix(0.010850694444444444,0,0,0.010850694444444444,88.98654513888889,0)" xlink:href="#aV"/><use transform="matrix(0.010850694444444444,0,0,0.010850694444444444,94.36848958333333,0)" xlink:href="#aZ"/><use transform="matrix(0.010850694444444444,0,0,0.010850694444444444,107.69314236111111,0)" xlink:href="#aQ"/></g><g id="Z"><use transform="matrix(0.010850694444444444,0,0,0.010850694444444444,0,0)" xlink:href="#aT"/><use transform="matrix(0.010850694444444444,0,0,0.010850694444444444,13.606770833333332,0)" xlink:href="#bb"/><use transform="matrix(0.010850694444444444,0,0,0.010850694444444444,21.603732638888886,0)" xlink:href="#aZ"/><use transform="matrix(0.010850694444444444,0,0,0.010850694444444444,34.928385416666664,0)" xlink:href="#aP"/><use transform="matrix(0.010850694444444444,0,0,0.010850694444444444,48.556857638888886,0)" xlink:href="#bb"/><use transform="matrix(0.010850694444444444,0,0,0.010850694444444444,56.553819444444436,0)" xlink:href="#aO"/><use transform="matrix(0.010850694444444444,0,0,0.010850694444444444,69.5095486111111,0)" xlink:href="#bj"/><use transform="matrix(0.010850694444444444,0,0,0.010850694444444444,81.23914930555554,0)" xlink:href="#bj"/></g><g id="aa"><use transform="matrix(0.010850694444444444,0,0,0.010850694444444444,0,0)" xlink:href="#aY"/><use transform="matrix(0.010850694444444444,0,0,0.010850694444444444,7.269965277777778,0)" xlink:href="#bb"/><use transform="matrix(0.010850694444444444,0,0,0.010850694444444444,15.635850694444445,0)" xlink:href="#aX"/><use transform="matrix(0.010850694444444444,0,0,0.010850694444444444,28.114149305555554,0)" xlink:href="#aW"/><use transform="matrix(0.010850694444444444,0,0,0.010850694444444444,40.80946180555556,0)" xlink:href="#bn"/><use transform="matrix(0.010850694444444444,0,0,0.010850694444444444,53.00564236111112,0)" xlink:href="#aV"/><use transform="matrix(0.010850694444444444,0,0,0.010850694444444444,58.38758680555555,0)" xlink:href="#aQ"/><use transform="matrix(0.010850694444444444,0,0,0.010850694444444444,71.51692708333333,0)" xlink:href="#aP"/><use transform="matrix(0.010850694444444444,0,0,0.010850694444444444,85.14539930555554,0)" xlink:href="#bk"/></g><g id="ab"><use transform="matrix(0.010850694444444444,0,0,0.010850694444444444,0,0)" xlink:href="#aO"/><use transform="matrix(0.010850694444444444,0,0,0.010850694444444444,12.955729166666666,0)" xlink:href="#bw"/><use transform="matrix(0.010850694444444444,0,0,0.010850694444444444,32.421875,0)" xlink:href="#aX"/><use transform="matrix(0.010850694444444444,0,0,0.010850694444444444,44.90017361111111,0)" xlink:href="#aV"/><use transform="matrix(0.010850694444444444,0,0,0.010850694444444444,50.28211805555556,0)" xlink:href="#aU"/><use transform="matrix(0.010850694444444444,0,0,0.010850694444444444,55.6640625,0)" xlink:href="#bj"/><use transform="matrix(0.010850694444444444,0,0,0.010850694444444444,67.39366319444444,0)" xlink:href="#bA"/><use transform="matrix(0.010850694444444444,0,0,0.010850694444444444,75.40147569444444,0)" xlink:href="#aQ"/><use transform="matrix(0.010850694444444444,0,0,0.010850694444444444,88.53081597222221,0)" xlink:href="#aZ"/><use transform="matrix(0.010850694444444444,0,0,0.010850694444444444,101.85546874999997,0)" xlink:href="#aY"/><use transform="matrix(0.010850694444444444,0,0,0.010850694444444444,109.12543402777776,0)" xlink:href="#aV"/><use transform="matrix(0.010850694444444444,0,0,0.010850694444444444,114.5073784722222,0)" xlink:href="#bt"/><use transform="matrix(0.010850694444444444,0,0,0.010850694444444444,122.73220486111109,0)" xlink:href="#aV"/><use transform="matrix(0.010850694444444444,0,0,0.010850694444444444,128.11414930555554,0)" xlink:href="#aW"/><use transform="matrix(0.010850694444444444,0,0,0.010850694444444444,141.02647569444443,0)" xlink:href="#aX"/><use transform="matrix(0.010850694444444444,0,0,0.010850694444444444,153.50477430555554,0)" xlink:href="#aY"/><use transform="matrix(0.010850694444444444,0,0,0.010850694444444444,160.77473958333331,0)" xlink:href="#aV"/><use transform="matrix(0.010850694444444444,0,0,0.010850694444444444,166.15668402777777,0)" xlink:href="#aZ"/><use transform="matrix(0.010850694444444444,0,0,0.010850694444444444,179.48133680555554,0)" xlink:href="#aQ"/><use transform="matrix(0.010850694444444444,0,0,0.010850694444444444,192.61067708333331,0)" xlink:href="#bj"/></g><g id="ad"><use transform="matrix(0.010850694444444444,0,0,0.010850694444444444,0,0)" xlink:href="#bs"/><use transform="matrix(0.010850694444444444,0,0,0.010850694444444444,14.192708333333332,0)" xlink:href="#aX"/><use transform="matrix(0.010850694444444444,0,0,0.010850694444444444,26.345486111111104,0)" xlink:href="#ba"/><use transform="matrix(0.010850694444444444,0,0,0.010850694444444444,38.834635416666664,0)" xlink:href="#bw"/><use transform="matrix(0.010850694444444444,0,0,0.010850694444444444,58.30078125,0)" xlink:href="#aO"/><use transform="matrix(0.010850694444444444,0,0,0.010850694444444444,71.25651041666667,0)" xlink:href="#aQ"/><use transform="matrix(0.010850694444444444,0,0,0.010850694444444444,84.38585069444444,0)" xlink:href="#aY"/></g><g id="ae"><use transform="matrix(0.010850694444444444,0,0,0.010850694444444444,0,0)" xlink:href="#bj"/><use transform="matrix(0.010850694444444444,0,0,0.010850694444444444,11.729600694444445,0)" xlink:href="#bf"/><use transform="matrix(0.010850694444444444,0,0,0.010850694444444444,24.869791666666664,0)" xlink:href="#bu"/><use transform="matrix(0.010850694444444444,0,0,0.010850694444444444,38.4765625,0)" xlink:href="#bj"/><use transform="matrix(0.010850694444444444,0,0,0.010850694444444444,50.20616319444444,0)" xlink:href="#aW"/><use transform="matrix(0.010850694444444444,0,0,0.010850694444444444,62.90147569444444,0)" xlink:href="#bb"/><use transform="matrix(0.010850694444444444,0,0,0.010850694444444444,71.61458333333333,0)" xlink:href="#aV"/><use transform="matrix(0.010850694444444444,0,0,0.010850694444444444,76.99652777777777,0)" xlink:href="#aT"/><use transform="matrix(0.010850694444444444,0,0,0.010850694444444444,90.60329861111111,0)" xlink:href="#aY"/><use transform="matrix(0.010850694444444444,0,0,0.010850694444444444,97.87326388888887,0)" xlink:href="#aV"/><use transform="matrix(0.010850694444444444,0,0,0.010850694444444444,103.25520833333331,0)" xlink:href="#aZ"/><use transform="matrix(0.010850694444444444,0,0,0.010850694444444444,116.57986111111109,0)" xlink:href="#aQ"/></g><g id="af"><use transform="matrix(0.010850694444444444,0,0,0.010850694444444444,0,0)" xlink:href="#bu"/><use transform="matrix(0.010850694444444444,0,0,0.010850694444444444,13.606770833333332,0)" xlink:href="#aV"/><use transform="matrix(0.010850694444444444,0,0,0.010850694444444444,18.98871527777778,0)" xlink:href="#aU"/><use transform="matrix(0.010850694444444444,0,0,0.010850694444444444,24.37065972222222,0)" xlink:href="#aU"/><use transform="matrix(0.010850694444444444,0,0,0.010850694444444444,29.752604166666664,0)" xlink:href="#aV"/><use transform="matrix(0.010850694444444444,0,0,0.010850694444444444,35.13454861111111,0)" xlink:href="#aQ"/><use transform="matrix(0.010850694444444444,0,0,0.010850694444444444,48.263888888888886,0)" xlink:href="#aP"/></g><g id="ag"><use transform="matrix(0.010850694444444444,0,0,0.010850694444444444,0,0)" xlink:href="#bq"/><use transform="matrix(0.010850694444444444,0,0,0.010850694444444444,16.23263888888889,0)" xlink:href="#aZ"/><use transform="matrix(0.010850694444444444,0,0,0.010850694444444444,29.557291666666664,0)" xlink:href="#bb"/><use transform="matrix(0.010850694444444444,0,0,0.010850694444444444,37.55425347222222,0)" xlink:href="#aO"/></g><path d="M295 13c-75 0-135-60-135-135s60-135 135-135 135 60 135 135S370 13 295 13zm0-809c-75 0-135-60-135-135s60-135 135-135 135 60 135 135-60 135-135 135" id="bE"/><g id="ah"><use transform="matrix(0.010850694444444444,0,0,0.010850694444444444,0,0)" xlink:href="#bp"/><use transform="matrix(0.010850694444444444,0,0,0.010850694444444444,14.539930555555555,0)" xlink:href="#aX"/><use transform="matrix(0.010850694444444444,0,0,0.010850694444444444,27.018229166666664,0)" xlink:href="#aW"/><use transform="matrix(0.010850694444444444,0,0,0.010850694444444444,39.713541666666664,0)" xlink:href="#bn"/><use transform="matrix(0.010850694444444444,0,0,0.010850694444444444,51.41059027777778,0)" xlink:href="#aO"/><use transform="matrix(0.010850694444444444,0,0,0.010850694444444444,64.36631944444444,0)" xlink:href="#aQ"/><use transform="matrix(0.010850694444444444,0,0,0.010850694444444444,77.49565972222221,0)" xlink:href="#aR"/><use transform="matrix(0.010850694444444444,0,0,0.010850694444444444,91.10243055555556,0)" xlink:href="#bE"/></g><g id="ai"><use transform="matrix(0.010850694444444444,0,0,0.010850694444444444,0,0)" xlink:href="#aS"/><use transform="matrix(0.010850694444444444,0,0,0.010850694444444444,15.33203125,0)" xlink:href="#bf"/><use transform="matrix(0.010850694444444444,0,0,0.010850694444444444,28.47222222222222,0)" xlink:href="#aY"/><use transform="matrix(0.010850694444444444,0,0,0.010850694444444444,35.7421875,0)" xlink:href="#bi"/><use transform="matrix(0.010850694444444444,0,0,0.010850694444444444,48.88237847222222,0)" xlink:href="#bk"/></g><g id="aj"><use transform="matrix(0.010850694444444444,0,0,0.010850694444444444,0,0)" xlink:href="#br"/><use transform="matrix(0.010850694444444444,0,0,0.010850694444444444,16.536458333333332,0)" xlink:href="#bj"/><use transform="matrix(0.010850694444444444,0,0,0.010850694444444444,28.266059027777775,0)" xlink:href="#aO"/><use transform="matrix(0.010850694444444444,0,0,0.010850694444444444,41.22178819444444,0)" xlink:href="#bb"/></g><g id="ak"><use transform="matrix(0.010850694444444444,0,0,0.010850694444444444,0,0)" xlink:href="#bs"/><use transform="matrix(0.010850694444444444,0,0,0.010850694444444444,14.192708333333332,0)" xlink:href="#bb"/><use transform="matrix(0.010850694444444444,0,0,0.010850694444444444,22.189670138888886,0)" xlink:href="#aZ"/><use transform="matrix(0.010850694444444444,0,0,0.010850694444444444,35.514322916666664,0)" xlink:href="#bt"/><use transform="matrix(0.010850694444444444,0,0,0.010850694444444444,43.73914930555556,0)" xlink:href="#aV"/><use transform="matrix(0.010850694444444444,0,0,0.010850694444444444,49.12109375,0)" xlink:href="#aU"/><use transform="matrix(0.010850694444444444,0,0,0.010850694444444444,54.50303819444444,0)" xlink:href="#aO"/><use transform="matrix(0.010850694444444444,0,0,0.010850694444444444,67.45876736111111,0)" xlink:href="#bk"/></g><g id="al"><use transform="matrix(0.010850694444444444,0,0,0.010850694444444444,0,0)" xlink:href="#bh"/><use transform="matrix(0.010850694444444444,0,0,0.010850694444444444,14.2578125,0)" xlink:href="#aO"/><use transform="matrix(0.010850694444444444,0,0,0.010850694444444444,27.213541666666664,0)" xlink:href="#bj"/><use transform="matrix(0.010850694444444444,0,0,0.010850694444444444,38.94314236111111,0)" xlink:href="#bj"/><use transform="matrix(0.010850694444444444,0,0,0.010850694444444444,50.67274305555556,0)" xlink:href="#aV"/><use transform="matrix(0.010850694444444444,0,0,0.010850694444444444,56.054687499999986,0)" xlink:href="#aZ"/><use transform="matrix(0.010850694444444444,0,0,0.010850694444444444,69.37934027777777,0)" xlink:href="#aQ"/><use transform="matrix(0.010850694444444444,0,0,0.010850694444444444,82.50868055555554,0)" xlink:href="#bk"/></g><g id="am"><use transform="matrix(0.010850694444444444,0,0,0.010850694444444444,0,0)" xlink:href="#by"/><use transform="matrix(0.010850694444444444,0,0,0.010850694444444444,16.514756944444443,0)" xlink:href="#aZ"/><use transform="matrix(0.010850694444444444,0,0,0.010850694444444444,29.83940972222222,0)" xlink:href="#bw"/><use transform="matrix(0.010850694444444444,0,0,0.010850694444444444,49.30555555555556,0)" xlink:href="#aO"/><use transform="matrix(0.010850694444444444,0,0,0.010850694444444444,61.85980902777778,0)" xlink:href="#bz"/><use transform="matrix(0.010850694444444444,0,0,0.010850694444444444,79.64409722222223,0)" xlink:href="#aZ"/><use transform="matrix(0.010850694444444444,0,0,0.010850694444444444,92.96875,0)" xlink:href="#bb"/><use transform="matrix(0.010850694444444444,0,0,0.010850694444444444,101.6818576388889,0)" xlink:href="#bn"/></g><g id="an"><use transform="matrix(0.010850694444444444,0,0,0.010850694444444444,0,0)" xlink:href="#aN"/><use transform="matrix(0.010850694444444444,0,0,0.010850694444444444,12.565104166666666,0)" xlink:href="#aX"/><use transform="matrix(0.010850694444444444,0,0,0.010850694444444444,24.717881944444443,0)" xlink:href="#ba"/><use transform="matrix(0.010850694444444444,0,0,0.010850694444444444,36.77300347222222,0)" xlink:href="#aO"/><use transform="matrix(0.010850694444444444,0,0,0.010850694444444444,49.728732638888886,0)" xlink:href="#bb"/><use transform="matrix(0.010850694444444444,0,0,0.010850694444444444,58.09461805555555,0)" xlink:href="#bE"/></g><g id="ao"><use transform="matrix(0.010850694444444444,0,0,0.010850694444444444,0,0)" xlink:href="#aS"/><use transform="matrix(0.010850694444444444,0,0,0.010850694444444444,15.33203125,0)" xlink:href="#bg"/></g><g id="ap"><use transform="matrix(0.010850694444444444,0,0,0.010850694444444444,0,0)" xlink:href="#bB"/><use transform="matrix(0.010850694444444444,0,0,0.010850694444444444,16.9921875,0)" xlink:href="#bb"/><use transform="matrix(0.010850694444444444,0,0,0.010850694444444444,24.989149305555554,0)" xlink:href="#aW"/><use transform="matrix(0.010850694444444444,0,0,0.010850694444444444,37.68446180555556,0)" xlink:href="#bi"/><use transform="matrix(0.010850694444444444,0,0,0.010850694444444444,50.82465277777778,0)" xlink:href="#aO"/><use transform="matrix(0.010850694444444444,0,0,0.010850694444444444,63.78038194444444,0)" xlink:href="#bj"/><use transform="matrix(0.010850694444444444,0,0,0.010850694444444444,75.50998263888889,0)" xlink:href="#aY"/><use transform="matrix(0.010850694444444444,0,0,0.010850694444444444,82.77994791666666,0)" xlink:href="#bb"/><use transform="matrix(0.010850694444444444,0,0,0.010850694444444444,91.14583333333333,0)" xlink:href="#aX"/><use transform="matrix(0.010850694444444444,0,0,0.010850694444444444,103.62413194444444,0)" xlink:href="#aY"/><use transform="matrix(0.010850694444444444,0,0,0.010850694444444444,110.89409722222221,0)" xlink:href="#aV"/><use transform="matrix(0.010850694444444444,0,0,0.010850694444444444,116.27604166666666,0)" xlink:href="#aZ"/><use transform="matrix(0.010850694444444444,0,0,0.010850694444444444,129.60069444444443,0)" xlink:href="#aQ"/></g><g id="aq"><use transform="matrix(0.010850694444444444,0,0,0.010850694444444444,0,0)" xlink:href="#aS"/><use transform="matrix(0.010850694444444444,0,0,0.010850694444444444,15.33203125,0)" xlink:href="#aQ"/><use transform="matrix(0.010850694444444444,0,0,0.010850694444444444,28.461371527777775,0)" xlink:href="#aX"/><use transform="matrix(0.010850694444444444,0,0,0.010850694444444444,40.939670138888886,0)" xlink:href="#aU"/><use transform="matrix(0.010850694444444444,0,0,0.010850694444444444,46.43012152777778,0)" xlink:href="#ba"/><use transform="matrix(0.010850694444444444,0,0,0.010850694444444444,59.244791666666664,0)" xlink:href="#aY"/><use transform="matrix(0.010850694444444444,0,0,0.010850694444444444,66.51475694444444,0)" xlink:href="#aV"/><use transform="matrix(0.010850694444444444,0,0,0.010850694444444444,71.89670138888889,0)" xlink:href="#aW"/><use transform="matrix(0.010850694444444444,0,0,0.010850694444444444,84.59201388888889,0)" xlink:href="#bj"/><use transform="matrix(0.010850694444444444,0,0,0.010850694444444444,96.32161458333333,0)" xlink:href="#bA"/><use transform="matrix(0.010850694444444444,0,0,0.010850694444444444,104.32942708333333,0)" xlink:href="#bD"/><use transform="matrix(0.010850694444444444,0,0,0.010850694444444444,121.0720486111111,0)" xlink:href="#aZ"/><use transform="matrix(0.010850694444444444,0,0,0.010850694444444444,134.39670138888889,0)" xlink:href="#aY"/><use transform="matrix(0.010850694444444444,0,0,0.010850694444444444,141.66666666666666,0)" xlink:href="#aV"/><use transform="matrix(0.010850694444444444,0,0,0.010850694444444444,147.04861111111111,0)" xlink:href="#bt"/><use transform="matrix(0.010850694444444444,0,0,0.010850694444444444,155.2734375,0)" xlink:href="#aV"/><use transform="matrix(0.010850694444444444,0,0,0.010850694444444444,160.65538194444446,0)" xlink:href="#aW"/><use transform="matrix(0.010850694444444444,0,0,0.010850694444444444,173.56770833333334,0)" xlink:href="#aX"/><use transform="matrix(0.010850694444444444,0,0,0.010850694444444444,186.04600694444443,0)" xlink:href="#aY"/><use transform="matrix(0.010850694444444444,0,0,0.010850694444444444,193.31597222222223,0)" xlink:href="#aV"/><use transform="matrix(0.010850694444444444,0,0,0.010850694444444444,198.69791666666669,0)" xlink:href="#aZ"/><use transform="matrix(0.010850694444444444,0,0,0.010850694444444444,212.02256944444449,0)" xlink:href="#aQ"/><use transform="matrix(0.010850694444444444,0,0,0.010850694444444444,225.1519097222222,0)" xlink:href="#bE"/></g><g id="ar"><use transform="matrix(0.010850694444444444,0,0,0.010850694444444444,0,0)" xlink:href="#bD"/><use transform="matrix(0.010850694444444444,0,0,0.010850694444444444,16.74262152777778,0)" xlink:href="#aZ"/><use transform="matrix(0.010850694444444444,0,0,0.010850694444444444,30.06727430555556,0)" xlink:href="#aY"/><use transform="matrix(0.010850694444444444,0,0,0.010850694444444444,37.337239583333336,0)" xlink:href="#aV"/><use transform="matrix(0.010850694444444444,0,0,0.010850694444444444,42.71918402777778,0)" xlink:href="#bt"/><use transform="matrix(0.010850694444444444,0,0,0.010850694444444444,50.94401041666667,0)" xlink:href="#aV"/><use transform="matrix(0.010850694444444444,0,0,0.010850694444444444,56.32595486111112,0)" xlink:href="#aW"/><use transform="matrix(0.010850694444444444,0,0,0.010850694444444444,69.23828125,0)" xlink:href="#aX"/><use transform="matrix(0.010850694444444444,0,0,0.010850694444444444,81.71657986111111,0)" xlink:href="#aY"/><use transform="matrix(0.010850694444444444,0,0,0.010850694444444444,88.98654513888889,0)" xlink:href="#aV"/><use transform="matrix(0.010850694444444444,0,0,0.010850694444444444,94.36848958333333,0)" xlink:href="#aZ"/><use transform="matrix(0.010850694444444444,0,0,0.010850694444444444,107.69314236111111,0)" xlink:href="#aQ"/></g><g id="as"><use transform="matrix(0.010850694444444444,0,0,0.010850694444444444,0,0)" xlink:href="#bs"/><use transform="matrix(0.010850694444444444,0,0,0.010850694444444444,14.192708333333332,0)" xlink:href="#aX"/><use transform="matrix(0.010850694444444444,0,0,0.010850694444444444,26.345486111111104,0)" xlink:href="#ba"/><use transform="matrix(0.010850694444444444,0,0,0.010850694444444444,38.834635416666664,0)" xlink:href="#bw"/><use transform="matrix(0.010850694444444444,0,0,0.010850694444444444,58.30078125,0)" xlink:href="#aO"/><use transform="matrix(0.010850694444444444,0,0,0.010850694444444444,71.25651041666667,0)" xlink:href="#aQ"/><use transform="matrix(0.010850694444444444,0,0,0.010850694444444444,84.38585069444444,0)" xlink:href="#aY"/><use transform="matrix(0.010850694444444444,0,0,0.010850694444444444,91.43880208333333,0)" xlink:href="#bj"/><use transform="matrix(0.010850694444444444,0,0,0.010850694444444444,103.16840277777777,0)" xlink:href="#bE"/></g><g id="at"><use transform="matrix(0.010850694444444444,0,0,0.010850694444444444,0,0)" xlink:href="#bs"/><use transform="matrix(0.010850694444444444,0,0,0.010850694444444444,14.192708333333332,0)" xlink:href="#aX"/><use transform="matrix(0.010850694444444444,0,0,0.010850694444444444,26.345486111111104,0)" xlink:href="#ba"/><use transform="matrix(0.010850694444444444,0,0,0.010850694444444444,38.834635416666664,0)" xlink:href="#bw"/><use transform="matrix(0.010850694444444444,0,0,0.010850694444444444,58.30078125,0)" xlink:href="#aO"/><use transform="matrix(0.010850694444444444,0,0,0.010850694444444444,71.25651041666667,0)" xlink:href="#aQ"/><use transform="matrix(0.010850694444444444,0,0,0.010850694444444444,84.38585069444444,0)" xlink:href="#aY"/></g><g id="au"><use transform="matrix(0.010850694444444444,0,0,0.010850694444444444,0,0)" xlink:href="#bh"/><use transform="matrix(0.010850694444444444,0,0,0.010850694444444444,14.2578125,0)" xlink:href="#aO"/><use transform="matrix(0.010850694444444444,0,0,0.010850694444444444,27.213541666666664,0)" xlink:href="#bb"/><use transform="matrix(0.010850694444444444,0,0,0.010850694444444444,35.92664930555555,0)" xlink:href="#bd"/><use transform="matrix(0.010850694444444444,0,0,0.010850694444444444,48.41579861111111,0)" xlink:href="#aV"/><use transform="matrix(0.010850694444444444,0,0,0.010850694444444444,53.79774305555556,0)" xlink:href="#aW"/><use transform="matrix(0.010850694444444444,0,0,0.010850694444444444,66.49305555555554,0)" xlink:href="#aO"/></g></defs></g></svg>