<svg xmlns="http://www.w3.org/2000/svg" xmlns:xlink="http://www.w3.org/1999/xlink" xmlns:lucid="lucid" width="2042" height="1019.93"><g transform="translate(56.46666666666658 1536.3984375)" lucid:page-tab-id="0_0"><path d="M-500-2000h2500v1500H-500z" fill="#fff"/><path d="M-55.47-1438a6 6 0 0 1 6-6h2028a6 6 0 0 1 6 6v898a6 6 0 0 1-6 6h-2028a6 6 0 0 1-6-6z" stroke="#3a414a" stroke-width="2" fill="#fff"/><path d="M-55.47-1530.4a6 6 0 0 1 6-6h765.63a6 6 0 0 1 6 6v68.4a6 6 0 0 1-6 6H-49.47a6 6 0 0 1-6-6z" fill="#3a414a"/><use xlink:href="#a" transform="matrix(1,0,0,1,-39.46666666666658,-1520.3984375) translate(0 39.05078125)"/><use xlink:href="#b" transform="matrix(1,0,0,1,-39.46666666666658,-1520.3984375) translate(123.7109375 39.05078125)"/><use xlink:href="#c" transform="matrix(1,0,0,1,-39.46666666666658,-1520.3984375) translate(366.46484375 39.05078125)"/><use xlink:href="#d" transform="matrix(1,0,0,1,-39.46666666666658,-1520.3984375) translate(430.390625 39.05078125)"/><use xlink:href="#e" transform="matrix(1,0,0,1,-39.46666666666658,-1520.3984375) translate(479.98046875 39.05078125)"/><use xlink:href="#f" transform="matrix(1,0,0,1,-39.46666666666658,-1520.3984375) translate(587.48046875 39.05078125)"/><path d="M24.53-1124h600v280h-600z" fill="#fff" fill-opacity="0"/><path d="M42.53-1124h12m12 0h12m12 0h12m12 0h12m12 0h12m12 0h12m12 0h12m12 0h12m12 0h12m12 0h12m12 0h12m12 0h12m12 0h12m12 0h12m12 0h12m12 0h12m12 0h12m12 0h12m12 0h12m12 0h12m12 0h12m12 0h12m12 0h12m12 0h12m12 0h6v5.83m0 11.67v11.67m0 11.66v11.67m0 11.67v11.66m0 11.67v11.67m0 11.66v11.67m0 11.67v11.66m0 11.67v11.67m0 11.66v11.67m0 11.67v11.66m0 11.67v11.67m0 11.66v11.67m0 11.67v5.83h-6m-12 0h-12m-12 0h-12m-12 0h-12m-12 0h-12m-12 0h-12m-12 0h-12m-12 0h-12m-12 0h-12m-12 0h-12m-12 0h-12m-12 0h-12m-12 0h-12m-12 0h-12m-12 0h-12m-12 0h-12m-12 0h-12m-12 0h-12m-12 0h-12m-12 0h-12m-12 0h-12m-12 0h-12m-12 0h-12m-12 0h-12m-12 0h-12m-12 0h-6v-5.83m0-11.67v-11.67m0-11.66v-11.67m0-11.67v-11.66m0-11.67v-11.67m0-11.66v-11.67m0-11.67v-11.66m0-11.67v-11.67m0-11.66v-11.67m0-11.67v-11.66m0-11.67v-11.67m0-11.66v-11.67m0-11.67v-5.83h6" stroke="#7d8998" stroke-width="3" fill="none"/><use xlink:href="#g" transform="matrix(1,0,0,1,24.533333333333417,-1104) translate(232.50868055555554 21.52777777777778)"/><use xlink:href="#h" transform="matrix(1,0,0,1,24.533333333333417,-1104) translate(294.87847222222223 21.52777777777778)"/><use xlink:href="#i" transform="matrix(1,0,0,1,24.533333333333417,-1104) translate(315.44053819444446 21.52777777777778)"/><path d="M664.53-1124h280v280h-280z" fill="#fff" fill-opacity="0"/><path d="M682.03-1124h11.67m11.67 0h11.66m11.67 0h11.67m11.66 0h11.67m11.67 0h11.66m11.67 0h11.67m11.66 0h11.67m11.67 0h11.66m11.67 0h11.67m11.66 0h11.67m11.67 0h11.66m11.67 0h5.83v5.83m0 11.67v11.67m0 11.66v11.67m0 11.67v11.66m0 11.67v11.67m0 11.66v11.67m0 11.67v11.66m0 11.67v11.67m0 11.66v11.67m0 11.67v11.66m0 11.67v11.67m0 11.66v11.67m0 11.67v5.83h-5.83m-11.67 0h-11.66m-11.67 0h-11.67m-11.66 0H868.7m-11.67 0h-11.66m-11.67 0h-11.67m-11.66 0H798.7m-11.67 0h-11.66m-11.67 0h-11.67m-11.66 0H728.7m-11.67 0h-11.66m-11.67 0h-11.67m-11.66 0h-5.84v-5.83m0-11.67v-11.67m0-11.66v-11.67m0-11.67v-11.66m0-11.67v-11.67m0-11.66v-11.67m0-11.67v-11.66m0-11.67v-11.67m0-11.66v-11.67m0-11.67v-11.66m0-11.67v-11.67m0-11.66v-11.67m0-11.67v-5.83h5.84" stroke="#7d8998" stroke-width="3" fill="none"/><use xlink:href="#j" transform="matrix(1,0,0,1,664.5333333333334,-1104) translate(96.92816840277777 21.52777777777778)"/><path d="M984.53-1124h280v280h-280z" fill="#fff" fill-opacity="0"/><path d="M1002.03-1124h11.67m11.67 0h11.66m11.67 0h11.67m11.66 0h11.67m11.67 0h11.66m11.67 0h11.67m11.66 0h11.67m11.67 0h11.66m11.67 0h11.67m11.66 0h11.67m11.67 0h11.66m11.67 0h5.83v5.83m0 11.67v11.67m0 11.66v11.67m0 11.67v11.66m0 11.67v11.67m0 11.66v11.67m0 11.67v11.66m0 11.67v11.67m0 11.66v11.67m0 11.67v11.66m0 11.67v11.67m0 11.66v11.67m0 11.67v5.83h-5.83m-11.67 0h-11.66m-11.67 0h-11.67m-11.66 0h-11.67m-11.67 0h-11.66m-11.67 0h-11.67m-11.66 0h-11.67m-11.67 0h-11.66m-11.67 0h-11.67m-11.66 0h-11.67m-11.67 0h-11.66m-11.67 0h-11.67m-11.66 0h-5.84v-5.83m0-11.67v-11.67m0-11.66v-11.67m0-11.67v-11.66m0-11.67v-11.67m0-11.66v-11.67m0-11.67v-11.66m0-11.67v-11.67m0-11.66v-11.67m0-11.67v-11.66m0-11.67v-11.67m0-11.66v-11.67m0-11.67v-5.83h5.84" stroke="#7d8998" stroke-width="3" fill="none"/><use xlink:href="#k" transform="matrix(1,0,0,1,984.5333333333333,-1104) translate(76.90863715277779 21.52777777777778)"/><path d="M1304.53-1124h600v280h-600z" fill="#fff" fill-opacity="0"/><path d="M1322.53-1124h12m12 0h12m12 0h12m12 0h12m12 0h12m12 0h12m12 0h12m12 0h12m12 0h12m12 0h12m12 0h12m12 0h12m12 0h12m12 0h12m12 0h12m12 0h12m12 0h12m12 0h12m12 0h12m12 0h12m12 0h12m12 0h12m12 0h12m12 0h12m12 0h6v5.83m0 11.67v11.67m0 11.66v11.67m0 11.67v11.66m0 11.67v11.67m0 11.66v11.67m0 11.67v11.66m0 11.67v11.67m0 11.66v11.67m0 11.67v11.66m0 11.67v11.67m0 11.66v11.67m0 11.67v5.83h-6m-12 0h-12m-12 0h-12m-12 0h-12m-12 0h-12m-12 0h-12m-12 0h-12m-12 0h-12m-12 0h-12m-12 0h-12m-12 0h-12m-12 0h-12m-12 0h-12m-12 0h-12m-12 0h-12m-12 0h-12m-12 0h-12m-12 0h-12m-12 0h-12m-12 0h-12m-12 0h-12m-12 0h-12m-12 0h-12m-12 0h-12m-12 0h-12m-12 0h-6v-5.83m0-11.67v-11.67m0-11.66v-11.67m0-11.67v-11.66m0-11.67v-11.67m0-11.66v-11.67m0-11.67v-11.66m0-11.67v-11.67m0-11.66v-11.67m0-11.67v-11.66m0-11.67v-11.67m0-11.66v-11.67m0-11.67v-5.83h6" stroke="#7d8998" stroke-width="3" fill="none"/><use xlink:href="#l" transform="matrix(1,0,0,1,1304.5333333333333,-1104) translate(228.59157986111111 21.52777777777778)"/><path d="M199.93-1274h24.6v5.4h-24.6v24.6h-5.4v-24.6h-24.6v-5.4h24.6v-24.6h5.4v24.6zm-90 24.6v-43.68h43.68v43.68h-43.67zm46.44-49.2H107.3c-1.57 0-2.77 1.32-2.77 2.76v49.08c0 1.56 1.2 2.76 2.76 2.76h49.07c1.44 0 2.76-1.2 2.76-2.76v-49.08c0-1.44-1.32-2.76-2.76-2.76zm19.08-16.32v-43.68h43.68v43.68h-43.68zm46.32-49.08H172.7c-1.45 0-2.77 1.2-2.77 2.76v49.08c0 1.44 1.32 2.76 2.76 2.76h49.07c1.56 0 2.76-1.32 2.76-2.76v-49.08c0-1.56-1.2-2.76-2.76-2.76zm-111.84 49.08v-43.68h43.68v43.68h-43.67zm46.44-49.08H107.3c-1.57 0-2.77 1.2-2.77 2.76v49.08c0 1.44 1.2 2.76 2.76 2.76h49.07c1.44 0 2.76-1.32 2.76-2.76v-49.08c0-1.56-1.32-2.76-2.76-2.76z" stroke="#000" stroke-opacity="0" fill="#232f3e"/><use xlink:href="#m" transform="matrix(1,0,0,1,74.53333333333342,-1235) translate(12.352430555555557 21.52777777777778)"/><use xlink:href="#n" transform="matrix(1,0,0,1,74.53333333333342,-1235) translate(81.08072916666667 21.52777777777778)"/><use xlink:href="#o" transform="matrix(1,0,0,1,74.53333333333342,-1235) translate(145.42534722222223 21.52777777777778)"/><use xlink:href="#p" transform="matrix(1,0,0,1,74.53333333333342,-1235) translate(43.65668402777777 53.79340277777778)"/><use xlink:href="#q" transform="matrix(1,0,0,1,74.53333333333342,-1235) translate(2.825520833333343 86.05902777777777)"/><use xlink:href="#r" transform="matrix(1,0,0,1,74.53333333333342,-1235) translate(96.15234375 86.05902777777777)"/><use xlink:href="#s" transform="matrix(1,0,0,1,74.53333333333342,-1235) translate(123.70225694444444 86.05902777777777)"/><path d="M197.36-929.4c-4.56 0-8.18-3.72-8.18-8.28 0-4.44 3.63-8.16 8.18-8.16 4.56 0 8.2 3.72 8.2 8.16 0 4.56-3.64 8.28-8.2 8.28m-65.66-92.76c-4.55 0-8.18-3.72-8.18-8.16 0-4.56 3.63-8.28 8.18-8.28 4.56 0 8.2 3.72 8.2 8.28 0 4.44-3.64 8.16-8.2 8.16m65.66 30c4.56 0 8.2 3.6 8.2 8.16 0 4.56-3.64 8.16-8.2 8.16-4.56 0-8.18-3.6-8.18-8.16 0-4.56 3.63-8.16 8.18-8.16m0 40.92c-6.6 0-12.1 4.68-13.4 10.92h-13.94c-1.86 0-2.8-.96-2.8-2.64v-38.28h16.75c1.3 6.24 6.8 10.92 13.4 10.92 7.53 0 13.66-6.12 13.66-13.68s-6.13-13.68-13.67-13.68c-6.6 0-12.1 4.8-13.4 10.92h-16.73v-38.28c0-4.8-3.35-8.04-8.18-8.04H145.1c-1.3-6.24-6.8-10.92-13.4-10.92-7.53 0-13.67 6.12-13.67 13.68 0 7.44 6.14 13.56 13.67 13.56 6.6 0 12.1-4.68 13.4-10.92h13.95c1.86 0 2.8.84 2.8 2.64v82.08c0 4.8 3.33 8.04 8.17 8.04h13.95c1.3 6.24 6.8 10.92 13.4 10.92 7.53 0 13.66-6.12 13.66-13.68 0-7.44-6.13-13.56-13.67-13.56" stroke="#000" stroke-opacity="0" fill="#232f3e"/><use xlink:href="#t" transform="matrix(1,0,0,1,88.03333333333342,-915) translate(48.44010416666667 21.52777777777778)"/><use xlink:href="#u" transform="matrix(1,0,0,1,88.03333333333342,-915) translate(20.222873263888886 53.79340277777778)"/><use xlink:href="#v" transform="matrix(1,0,0,1,88.03333333333342,-915) translate(32.27256944444445 86.05902777777777)"/><path d="M424.53-1044h120v120h-120v-120z" stroke="#000" stroke-opacity="0" fill="#c925d1"/><path d="M469.6-997.44h7.52v-2.97h-7.52v2.96zm10 45.32l11.4-27.82-2.74-1.16-11.4 27.83 2.73 1.15zm13.37-8.1l1.98 2.24 9.58-8.34c.33-.33.5-.74.5-1.15 0-.42-.17-.83-.5-1.16l-9.58-8.25-1.98 2.3 8.25 7.1-8.25 7.27zm-30.14-7.1c0 .42.25.84.58 1.1l9.5 8.16 1.9-2.23-8.17-7 8.26-7.36-2-2.23-9.5 8.44c-.32.33-.57.74-.57 1.15zm55.65-24.1h-66.2c-2.82 0-5.2-2.3-5.2-5.2v-.82h18.07v-2.97h-18.08v-15.87c0-2.8 2.4-5.2 5.2-5.2h66.2c2.82 0 5.2 2.4 5.2 5.2v15.86h-42v2.96h42v.82c0 2.9-2.38 5.2-5.2 5.2zm-60.85 46.57v-43.6h54v43.6h-54zm60.85-79.6h-66.2c-4.47 0-8.2 3.73-8.2 8.18v19.65c0 4.54 3.73 8.18 8.2 8.18h2.3v45.07c0 .83.66 1.5 1.5 1.5h57.03c.84 0 1.58-.67 1.58-1.5v-45.07h3.8c4.46 0 8.17-3.64 8.17-8.18v-19.65c0-4.46-3.7-8.17-8.17-8.17z" stroke="#000" stroke-opacity="0" fill="#fff"/><use xlink:href="#w" transform="matrix(1,0,0,1,394.5333333333334,-915) translate(30.09874131944445 21.52777777777778)"/><use xlink:href="#x" transform="matrix(1,0,0,1,394.5333333333334,-915) translate(33.657769097222236 53.79340277777778)"/><use xlink:href="#y" transform="matrix(1,0,0,1,394.5333333333334,-915) translate(3.0913628472222285 86.05902777777777)"/><use xlink:href="#z" transform="matrix(1,0,0,1,394.5333333333334,-915) translate(89.94032118055556 86.05902777777777)"/><use xlink:href="#A" transform="matrix(1,0,0,1,394.5333333333334,-915) translate(21.09809027777777 118.32465277777777)"/><use xlink:href="#B" transform="matrix(1,0,0,1,394.5333333333334,-915) translate(97.83420138888889 118.32465277777777)"/><use xlink:href="#C" transform="matrix(1,0,0,1,394.5333333333334,-915) translate(116.58420138888889 118.32465277777777)"/><use xlink:href="#D" transform="matrix(1,0,0,1,394.5333333333334,-915) translate(52.58680555555556 150.59027777777777)"/><use xlink:href="#E" transform="matrix(1,0,0,1,394.5333333333334,-915) translate(114.91319444444446 150.59027777777777)"/><use xlink:href="#F" transform="matrix(1,0,0,1,394.5333333333334,-915) translate(2.4945746527777857 182.85590277777777)"/><use xlink:href="#G" transform="matrix(1,0,0,1,394.5333333333334,-915) translate(121.42903645833331 182.85590277777777)"/><use xlink:href="#B" transform="matrix(1,0,0,1,394.5333333333334,-915) translate(7.713758680555557 215.12152777777777)"/><use xlink:href="#H" transform="matrix(1,0,0,1,394.5333333333334,-915) translate(26.463758680555557 215.12152777777777)"/><use xlink:href="#I" transform="matrix(1,0,0,1,394.5333333333334,-915) translate(107.78971354166667 215.12152777777777)"/><use xlink:href="#i" transform="matrix(1,0,0,1,394.5333333333334,-915) translate(63.974609375 247.38715277777777)"/><path d="M744.53-1044h120v120h-120v-120z" stroke="#000" stroke-opacity="0" fill="#ed7100"/><path d="M802.7-987.58c-.67.42-1.13 1.2-1.13 2.05v41.67l-31.5-17.63v-40.88l35.32-20.54 31.33 15.57-34.02 19.77zm37.7-19.77c0-.85-.46-1.7-1.3-2.14l-32.5-16.16c-.75-.43-1.67-.43-2.43 0l-35.85 20.8c-.77.42-1.23 1.28-1.23 2.13v41.58c0 .86.45 1.72 1.22 2.14l32.64 18.22c.3.25.76.34 1.14.34.46 0 .84-.1 1.23-.34.76-.43 1.22-1.2 1.22-2.06v-42.35l34.63-20.1c.76-.42 1.22-1.2 1.22-2.05zm.08 45.95l-28.44 17.45v-15.57l14.83-9.67.08-.6c.07-.16.07-.16.07-1v-18.67l13.53-7.78-.07 35.85zm1.83-38.93c-.68-.5-1.67-.5-2.36 0l-14.37 8.3c-.46.25-1.53.77-1.53 1.96v19.17l-13.68 8.8c-.84.53-1.3 1.3-1.3 2.15V-943c0 .85.46 1.62 1.22 2.13.38.17.84.34 1.3.34.38 0 .84-.17 1.22-.34l29.5-18.05c.7-.43 1.16-1.28 1.16-2.14l.07-37.22c0-.85-.45-1.62-1.22-2.05z" stroke="#000" stroke-opacity="0" fill="#fff"/><g><use xlink:href="#J" transform="matrix(1,0,0,1,714.5333333333334,-915) translate(17.088758680555557 21.52777777777778)"/><use xlink:href="#I" transform="matrix(1,0,0,1,714.5333333333334,-915) translate(98.41471354166667 21.52777777777778)"/><use xlink:href="#K" transform="matrix(1,0,0,1,714.5333333333334,-915) translate(46.92816840277778 53.79340277777778)"/><use xlink:href="#L" transform="matrix(1,0,0,1,714.5333333333334,-915) translate(13.985460069444457 86.05902777777777)"/><use xlink:href="#M" transform="matrix(1,0,0,1,714.5333333333334,-915) translate(114.01801215277777 86.05902777777777)"/></g><path d="M1064.53-1044h120v120h-120v-120z" stroke="#000" stroke-opacity="0" fill="#c925d1"/><path d="M1106.58-943.43v-25.76h39v25.77h-39zm40.47-28.84h-42c-.87 0-1.47.7-1.47 1.54v28.75c0 .86.6 1.54 1.46 1.54h42c.86 0 1.55-.68 1.55-1.54v-28.75c0-.85-.7-1.54-1.55-1.54zm-26.87 26.1l2.74 1.28 9.15-20.87-2.73-1.2-9.16 20.8zm17.2-10l-5.74 4.26 1.8 2.48 7.1-5.4c.43-.25.6-.68.6-1.1.1-.43-.08-.86-.43-1.2l-6.32-6.25-2.14 2.14 5.14 5.05zm-25.76-.53l6.42 6.25 2.05-2.14-5.14-5.04 5.73-4.36-1.8-2.4-7.1 5.4c-.35.25-.6.68-.6 1.1 0 .43.08.86.42 1.2zm52.02-34.73c-2.9-2.74-6.67-4.37-10.78-4.37-5.3 0-9.66 1.97-12.32 5.05-.68-14.46-4.02-26.18-8.72-31.74 16.94 2.58 29.86 15.15 32.68 31.92-.26-.25-.6-.5-.86-.85zm-26.95.5l-.6-.5c-2.83-2.74-6.68-4.37-10.8-4.37-5.2 0-9.4 1.8-12.14 4.8 1.03-19.1 6.85-31.92 12.15-32h.1c5.4.08 11.3 13.34 12.15 32.93-.26-.25-.6-.5-.86-.85zm-26.53 1.04c-.43-.42-.86-.76-1.28-1.28l-.27-.25c-2.9-2.74-6.76-4.37-10.87-4.37-4.62 0-8.55 1.46-11.2 3.94 3.5-16.1 16.16-28.06 32.34-30.63-4.88 5.74-8.22 17.72-8.73 32.6zm15.14-36.1c-23.43 0-41.83 17.97-42.77 41.67 0 .6.26 1.1.77 1.37l15.4 10.1 1.63-2.5-14.54-9.57c.76-3.25 3.07-5.65 6.5-6.93 1.6-.5 3.5-.86 5.46-.86 3.34 0 6.42 1.2 8.73 3.5l.25.27c2.14 2.05 3.33 5.73 3.33 5.73 0 .1 2.06 7.7 2.06 7.7l2.9-.77-1.96-7.26v-.17c.77-6.68 6.84-9 12.23-9 3.35 0 6.43 1.2 8.74 3.52 0 0 3.25 2.47 3.5 5.47v.17l-1.96 7.27 2.9.78 2.06-7.53v-.17c.43-5.82 5.22-9.5 12.32-9.5 3.34 0 6.42 1.2 8.73 3.5 1.8 1.72 3.07 3.1 3.4 4.37l-13 9.16 1.72 2.5 13.77-9.68c.34-.25.6-1.37.6-1.37-.43-23.78-18.74-41.75-42.8-41.75z" stroke="#000" stroke-opacity="0" fill="#fff"/><g><use xlink:href="#w" transform="matrix(1,0,0,1,1034.5333333333333,-915) translate(30.09874131944445 21.52777777777778)"/><use xlink:href="#N" transform="matrix(1,0,0,1,1034.5333333333333,-915) translate(26.908637152777786 53.79340277777778)"/><use xlink:href="#O" transform="matrix(1,0,0,1,1034.5333333333333,-915) translate(27.575954861111107 86.05902777777777)"/><use xlink:href="#P" transform="matrix(1,0,0,1,1034.5333333333333,-915) translate(92.21354166666666 86.05902777777777)"/><use xlink:href="#Q" transform="matrix(1,0,0,1,1034.5333333333333,-915) translate(130.73350694444446 86.05902777777777)"/><use xlink:href="#R" transform="matrix(1,0,0,1,1034.5333333333333,-915) translate(7.1440972222222285 118.32465277777777)"/><use xlink:href="#z" transform="matrix(1,0,0,1,1034.5333333333333,-915) translate(85.88758680555556 118.32465277777777)"/><use xlink:href="#S" transform="matrix(1,0,0,1,1034.5333333333333,-915) translate(7.789713541666671 150.59027777777777)"/><use xlink:href="#T" transform="matrix(1,0,0,1,1034.5333333333333,-915) translate(84.24370659722221 150.59027777777777)"/><use xlink:href="#B" transform="matrix(1,0,0,1,1034.5333333333333,-915) translate(20.696614583333343 182.85590277777777)"/><use xlink:href="#U" transform="matrix(1,0,0,1,1034.5333333333333,-915) translate(39.44661458333334 182.85590277777777)"/><use xlink:href="#V" transform="matrix(1,0,0,1,1034.5333333333333,-915) translate(21.15234375 215.12152777777777)"/></g><path d="M1415.37-1033.32c-1.08-1.08-2.76-1.08-3.84 0l-9.84 9.84 3.83 3.96 5.16-5.28v28.56h5.5v-28.56l5.17 5.28 3.84-3.96-9.83-9.84zm-1.92 42c-12.96 0-23.4-10.56-23.4-23.64 0-12.96 10.44-23.52 23.4-23.52 12.96 0 23.52 10.56 23.52 23.52 0 13.08-10.56 23.64-23.52 23.64zm28.92-23.64c0-15.96-12.96-29.04-28.92-29.04s-28.92 13.08-28.92 29.04c0 16.08 12.96 29.04 28.92 29.04s28.92-12.96 28.92-29.04zm42.36 28.08c-12.48 12.72-32.52 14.64-43.56 14.64 10.08-7.8 20.52-17.04 30.36-27.12 10.2-10.56 19.56-21.6 27.48-32.52 0 11.28-1.8 32.16-14.27 45zm19.32-53.52v-.12c0-.24-.12-.48-.24-.72v-.12c-.1-.24-.23-.48-.47-.6l-.12-.12c-.1-.24-.35-.24-.47-.36s-.12-.12-.24-.12c-.25-.12-.5-.24-.73-.24-1.56-.24-36.48-4.2-56.04 15.84 0 .12-.12.12-.12.12v.12c-.47.36-.83.84-1.3 1.32-.13.24-.37.48-.6.72l2.15 1.68 2.04 1.8c.6-.6 1.07-1.2 1.67-1.92l2.88-2.52c.24-.36.6-.48.96-.72.73-.6 1.33-1.08 2.05-1.56.48-.36.84-.6 1.2-.84.72-.36 1.32-.84 2.04-1.2.47-.24.83-.48 1.3-.72.73-.36 1.33-.72 2.05-.96.48-.24.84-.48 1.32-.6.72-.36 1.44-.6 2.16-.96.48-.12.84-.24 1.2-.36.84-.36 1.68-.6 2.4-.84l1.08-.36c.97-.24 1.8-.48 2.65-.6.24-.12.6-.24.84-.24.95-.24 2.03-.48 3-.6.1-.12.23-.12.35-.12 7.08-1.32 13.56-1.44 18-1.44h.24c.47 0 .7.12 1.07.12-8.04 11.52-17.88 23.28-28.8 34.44-10.44 10.8-21.6 20.52-32.28 28.56v-.96-.6-2.04-1.2-1.2c0-.84 0-1.68.1-2.64v-.72c.13-1.08.13-2.28.25-3.48l-2.76-.24-2.65-.36v.12l-.12 1.32c0 .48-.12.84-.12 1.32-.23 4.44-.23 8.28-.1 11.04h-.13V-924h5.52v-42.96c1.43.12 3.35.24 5.75.24 11.88 0 33.72-2.16 47.52-16.32 19.68-20.16 15.72-55.92 15.48-57.36" stroke="#000" stroke-opacity="0" fill="#ed7100"/><g><use xlink:href="#W" transform="matrix(1,0,0,1,1354.5333333333333,-915) translate(50.05859375 21.52777777777778)"/><use xlink:href="#X" transform="matrix(1,0,0,1,1354.5333333333333,-915) translate(24.3478732638889 53.79340277777778)"/><use xlink:href="#Y" transform="matrix(1,0,0,1,1354.5333333333333,-915) translate(34.6506076388889 86.05902777777777)"/><use xlink:href="#Z" transform="matrix(1,0,0,1,1354.5333333333333,-915) translate(26.908637152777786 118.32465277777777)"/><use xlink:href="#aa" transform="matrix(1,0,0,1,1354.5333333333333,-915) translate(38.68164062500001 150.59027777777777)"/></g><path d="M1704.53-1044h120v120h-120v-120z" stroke="#000" stroke-opacity="0" fill="#e7157b"/><path d="M1787.13-973.86c0-5.92-4.8-10.65-10.75-10.65-5.88 0-10.67 4.72-10.67 10.64 0 5.85 4.8 10.58 10.68 10.58 5.96 0 10.75-4.73 10.75-10.58m3.02 0c0 7.5-6.13 13.58-13.77 13.58-7.56 0-13.7-6.08-13.7-13.58 0-7.57 6.14-13.65 13.7-13.65 7.64 0 13.77 6.07 13.77 13.64m12.7 20.48l-10.6-9.38c-.84 1.2-1.76 2.25-2.85 3.23l10.5 9.44c.84.76 2.26.7 3.02-.13.84-.9.76-2.33-.08-3.15m-26.46-4.2c9.07 0 16.46-7.28 16.46-16.28s-7.4-16.35-16.46-16.35c-9 0-16.38 7.34-16.38 16.34s7.4 16.27 16.38 16.27m28.8 9.32c-1 1.12-2.43 1.72-3.86 1.72-1.25 0-2.5-.45-3.44-1.35l-10.92-9.76c-3.1 1.95-6.63 3.07-10.58 3.07-10.67 0-19.4-8.6-19.4-19.26 0-10.73 8.73-19.35 19.4-19.35 10.75 0 19.48 8.62 19.48 19.34 0 3-.75 5.93-2 8.48l11 9.82c2.1 1.88 2.26 5.17.33 7.27m-68.72-51.66c0 .75 0 1.58.08 2.33.1.37-.08.82-.34 1.12-.25.3-.5.44-.84.5-3.7.9-9.82 3.84-9.82 12.47 0 6.52 3.6 10.12 6.63 12 1.1.6 2.26.97 3.6.97l18.15.07v2.94h-18.23c-1.85 0-3.6-.53-5.12-1.43-3.03-1.86-8.07-6.2-8.07-14.53 0-10.06 6.9-13.73 10.92-15.08v-1.36c0-8.17 5.55-16.72 13.02-19.8 8.65-3.6 17.8-1.8 24.53 4.8 2.1 2.03 3.78 4.58 5.13 7.43 1.76-1.43 3.94-2.25 6.2-2.25 4.55 0 9.6 3.37 10.5 10.8 4.2.97 13.12 4.35 13.12 15.52 0 4.5-1.43 8.18-4.2 11.03l-2.1-2.1c2.18-2.25 3.27-5.25 3.27-8.93 0-9.75-8.23-12.22-11.76-12.82-.42 0-.76-.23-1-.6-.26-.3-.34-.75-.26-1.13-.5-6.1-4.12-8.78-7.56-8.78-2.1 0-4.12 1.04-5.54 2.85-.34.44-.84.67-1.43.6-.5-.08-1-.45-1.18-.98-1.27-3.38-3.03-6.3-5.3-8.5-5.8-5.76-13.78-7.26-21.25-4.2-6.3 2.64-11.17 10.07-11.17 17.04" stroke="#000" stroke-opacity="0" fill="#fff"/><g><use xlink:href="#ab" transform="matrix(1,0,0,1,1674.5333333333333,-915) translate(32.96875000000001 21.52777777777778)"/><use xlink:href="#X" transform="matrix(1,0,0,1,1674.5333333333333,-915) translate(24.3478732638889 53.79340277777778)"/><use xlink:href="#ac" transform="matrix(1,0,0,1,1674.5333333333333,-915) translate(60.540364583333336 86.05902777777777)"/><use xlink:href="#ad" transform="matrix(1,0,0,1,1674.5333333333333,-915) translate(23.14887152777777 118.32465277777777)"/><use xlink:href="#ae" transform="matrix(1,0,0,1,1674.5333333333333,-915) translate(142.5390625 118.32465277777777)"/><use xlink:href="#af" transform="matrix(1,0,0,1,1674.5333333333333,-915) translate(59.417317708333336 150.59027777777777)"/></g><path d="M125.17-688.03c1.92 0 3.48 1.54 3.48 3.52 0 1.86-1.56 3.4-3.48 3.4s-3.48-1.54-3.48-3.4c0-2 1.55-3.53 3.47-3.53zm38.64-15.18c1.93 0 3.5 1.53 3.5 3.5 0 1.88-1.57 3.42-3.5 3.42-1.9 0-3.47-1.54-3.47-3.4 0-2 1.56-3.53 3.48-3.53zm39-15.2c1.93 0 3.5 1.55 3.5 3.53 0 1.87-1.57 3.4-3.5 3.4-1.9 0-3.47-1.53-3.47-3.4 0-1.98 1.56-3.52 3.48-3.52zm-77.63 42.9c5.04 0 9.12-4.06 9.12-9 0-.23-.13-.34-.13-.45l22.8-8.9c1.68 1.97 4.08 3.18 6.84 3.18 5.05 0 9.13-4.07 9.13-9.02 0-.32-.12-.65-.12-.87l22.93-8.7c1.68 2.1 4.2 3.42 7.08 3.42 5.05 0 9.13-4.07 9.13-9.02 0-5.06-4.08-9.13-9.12-9.13-5.03 0-9 4.07-9 9.13v.33l-23.27 8.8c-1.68-1.87-3.96-3.08-6.72-3.08-4.9 0-9 4.07-9 9.13v.67l-22.55 8.8c-1.68-2.1-4.2-3.4-7.08-3.4-5.04 0-9 4.06-9 9.12 0 4.94 3.96 9 9 9zm-9.48 13.87h19.67l-.12 42.02H115.7v-42.03zm39.1 42.02v-58.86h19.45v58.85H154.8zm39 0v-72.94h19.57v72.93H193.8zm25.1 0v-75.7c0-1.53-1.2-2.85-2.77-2.85h-25.08c-1.56 0-2.76 1.32-2.76 2.86v75.7h-8.4v-61.72c0-1.54-1.33-2.75-2.77-2.75h-25.2c-1.56 0-2.76 1.2-2.76 2.75v61.7h-8.4l.12-44.87c0-.65-.25-1.42-.73-1.97-.6-.55-1.32-.77-2.04-.77h-25.2c-1.56 0-2.76 1.2-2.76 2.75l-.12 44.9h-5.52v5.6h120v-5.6h-5.64z" stroke="#000" stroke-opacity="0" fill="#232f3e"/><g><use xlink:href="#ag" transform="matrix(1,0,0,1,74.53333333333342,-605) translate(23.420138888888886 21.52777777777778)"/><use xlink:href="#E" transform="matrix(1,0,0,1,74.53333333333342,-605) translate(144.0798611111111 21.52777777777778)"/><use xlink:href="#ah" transform="matrix(1,0,0,1,74.53333333333342,-605) translate(21.62977430555557 53.79340277777778)"/><use xlink:href="#E" transform="matrix(1,0,0,1,74.53333333333342,-605) translate(145.87022569444446 53.79340277777778)"/><use xlink:href="#ai" transform="matrix(1,0,0,1,74.53333333333342,-605) translate(66.3671875 86.05902777777777)"/></g><path d="M213.03-984H401.8" stroke="#3a414a" stroke-width="4" fill="none"/><path d="M213.1-982.02h-2.32l.25-1.98-.25-1.98h2.3z" stroke="#3a414a" stroke-width=".05" fill="#3a414a"/><path d="M418.06-984l-14.26 4.63v-9.26z" stroke="#3a414a" stroke-width="4" fill="#3a414a"/><path d="M546.53-984H721.8" stroke="#3a414a" stroke-width="4" fill="none"/><path d="M546.6-982.02h-2.07V-986h2.06z" stroke="#3a414a" stroke-width=".05" fill="#3a414a"/><path d="M738.06-984l-14.26 4.63v-9.26z" stroke="#3a414a" stroke-width="4" fill="#3a414a"/><path d="M866.53-984h175.27" stroke="#3a414a" stroke-width="4" fill="none"/><path d="M866.6-982.02h-2.07V-986h2.06z" stroke="#3a414a" stroke-width=".05" fill="#3a414a"/><path d="M1058.06-984l-14.26 4.63v-9.26z" stroke="#3a414a" stroke-width="4" fill="#3a414a"/><path d="M1186.53-984h220.73" stroke="#3a414a" stroke-width="4" fill="none"/><path d="M1186.6-982.02h-2.07V-986h2.06z" stroke="#3a414a" stroke-width=".05" fill="#3a414a"/><path d="M1423.53-984l-14.27 4.63v-9.26z" stroke="#3a414a" stroke-width="4" fill="#3a414a"/><path d="M1491.43-984h190.37" stroke="#3a414a" stroke-width="4" fill="none"/><path d="M1491.48-982.02h-3.96l1.05-1.02 2.54-2.84.08-.1h.3z" stroke="#3a414a" stroke-width=".05" fill="#3a414a"/><path d="M1698.06-984l-14.26 4.63v-9.26z" stroke="#3a414a" stroke-width="4" fill="#3a414a"/><defs><path fill="#fff" d="M783 20c-382 0-661-292-661-764 0-473 279-766 661-766 302 0 548 182 601 489h-190c-42-204-217-313-411-313-268 0-476 208-476 590 0 381 209 588 476 588 195 0 369-110 411-313h190c-52 303-296 489-601 489" id="aj"/><path fill="#fff" d="M370-1490V0H180v-1490h190" id="ak"/><path fill="#fff" d="M692-1560L212 224H46l480-1784h166" id="al"/><path fill="#fff" d="M645 0H180v-1490h484c435 0 692 280 692 742 0 466-257 748-711 748zM370-168h263c363 0 539-218 539-580 0-358-176-574-521-574H370v1154" id="am"/><g id="a"><use transform="matrix(0.01953125,0,0,0.01953125,0,0)" xlink:href="#aj"/><use transform="matrix(0.01953125,0,0,0.01953125,29.21875,0)" xlink:href="#ak"/><use transform="matrix(0.01953125,0,0,0.01953125,39.9609375,0)" xlink:href="#al"/><use transform="matrix(0.01953125,0,0,0.01953125,54.375,0)" xlink:href="#aj"/><use transform="matrix(0.01953125,0,0,0.01953125,83.59375,0)" xlink:href="#am"/></g><path fill="#fff" d="M52 0l541-1490h220L1361 0h-200l-149-416H398L254 0H52zm404-582h497c-103-290-145-390-251-756-108 377-145 460-246 756" id="an"/><path fill="#fff" d="M158 0v-1118h174v172h12c41-113 157-188 290-188 26 0 70 2 91 3v181c-11-2-60-10-108-10-161 0-279 109-279 260V0H158" id="ao"/><path fill="#fff" d="M613 24c-304 0-509-231-509-576 0-350 205-580 509-580 216 0 392 114 453 309l-173 49c-33-115-133-197-280-197-223 0-326 196-326 419 0 220 103 415 326 415 150 0 252-85 285-206l172 49C1010-95 832 24 613 24" id="ap"/><path fill="#fff" d="M338-670V0H158v-1490h180v566c73-149 190-208 336-208 226 0 379 139 379 422V0H872v-695c0-172-96-275-252-275-161 0-282 109-282 300" id="aq"/><path fill="#fff" d="M158 0v-1118h180V0H158zm91-1301c-68 0-125-53-125-119s57-119 125-119c69 0 126 53 126 119s-57 119-126 119" id="ar"/><path fill="#fff" d="M598-1118v154H368v674c0 100 37 144 132 144 23 0 62-6 92-12L629-6c-37 13-88 20-134 20-193 0-307-107-307-290v-688H20v-154h168v-266h180v266h230" id="as"/><path fill="#fff" d="M628 24c-324 0-524-230-524-574 0-343 198-582 503-582 237 0 487 146 487 559v75H286c9 234 145 362 343 362 132 0 231-58 273-172l174 48C1024-91 857 24 628 24zM287-650h624c-17-190-120-322-304-322-192 0-309 151-320 322" id="at"/><path fill="#fff" d="M537 14c-226 0-379-139-379-422v-710h180v695c0 172 97 275 253 275 160 0 281-109 281-300v-670h181V0H879v-209C806-46 684 14 537 14" id="au"/><g id="b"><use transform="matrix(0.01953125,0,0,0.01953125,0,0)" xlink:href="#an"/><use transform="matrix(0.01953125,0,0,0.01953125,27.59765625,0)" xlink:href="#ao"/><use transform="matrix(0.01953125,0,0,0.01953125,41.9921875,0)" xlink:href="#ap"/><use transform="matrix(0.01953125,0,0,0.01953125,64.84375,0)" xlink:href="#aq"/><use transform="matrix(0.01953125,0,0,0.01953125,88.49609375,0)" xlink:href="#ar"/><use transform="matrix(0.01953125,0,0,0.01953125,98.18359375,0)" xlink:href="#as"/><use transform="matrix(0.01953125,0,0,0.01953125,110.87890625,0)" xlink:href="#at"/><use transform="matrix(0.01953125,0,0,0.01953125,134.19921875,0)" xlink:href="#ap"/><use transform="matrix(0.01953125,0,0,0.01953125,157.05078125,0)" xlink:href="#as"/><use transform="matrix(0.01953125,0,0,0.01953125,170.13671875,0)" xlink:href="#au"/><use transform="matrix(0.01953125,0,0,0.01953125,193.7890625,0)" xlink:href="#ao"/><use transform="matrix(0.01953125,0,0,0.01953125,208.18359375,0)" xlink:href="#at"/></g><path fill="#fff" d="M678-1118v154H420V0H240v-964H20v-154h220v-149c0-194 155-293 318-293 85 0 141 18 168 30l-50 154c-19-6-47-17-97-17-111 0-159 58-159 166v109h258" id="av"/><path fill="#fff" d="M613 24c-304 0-509-231-509-576 0-350 205-580 509-580 305 0 511 230 511 580 0 345-206 576-511 576zm0-161c226 0 329-195 329-415 0-222-103-419-329-419-223 0-326 196-326 419 0 220 103 415 326 415" id="aw"/><g id="c"><use transform="matrix(0.01953125,0,0,0.01953125,0,0)" xlink:href="#av"/><use transform="matrix(0.01953125,0,0,0.01953125,13.6328125,0)" xlink:href="#aw"/><use transform="matrix(0.01953125,0,0,0.01953125,37.6171875,0)" xlink:href="#ao"/></g><g id="d"><use transform="matrix(0.01953125,0,0,0.01953125,0,0)" xlink:href="#an"/><use transform="matrix(0.01953125,0,0,0.01953125,27.59765625,0)" xlink:href="#ak"/></g><path fill="#fff" d="M657 26c-323 0-524-166-541-416h195c15 169 171 246 346 246 202 0 356-106 356-265 5-203-294-238-475-293-239-73-380-191-380-389 0-252 224-419 512-419 294 0 499 171 508 396H992c-17-145-151-228-328-228-193 0-321 102-321 242 0 156 175 211 284 241l149 41c160 44 422 134 422 412 0 244-197 432-541 432" id="ax"/><path fill="#fff" d="M471 26C259 26 90-98 90-318c0-256 228-303 435-329 202-27 287-16 287-108 0-139-79-219-234-219-161 0-248 86-283 164l-173-57c86-203 278-265 451-265 150 0 419 46 419 395V0H815v-152h-12C765-73 660 26 471 26zm31-159c199 0 310-134 310-271v-155c-30 35-226 55-295 64-131 17-246 59-246 186 0 116 97 176 231 176" id="ay"/><g id="e"><use transform="matrix(0.01953125,0,0,0.01953125,0,0)" xlink:href="#ax"/><use transform="matrix(0.01953125,0,0,0.01953125,25.6640625,0)" xlink:href="#ay"/><use transform="matrix(0.01953125,0,0,0.01953125,48.125,0)" xlink:href="#ay"/><use transform="matrix(0.01953125,0,0,0.01953125,70.5859375,0)" xlink:href="#ax"/></g><path fill="#fff" d="M180 0v-1490h510c348 0 508 209 508 474 0 266-160 477-507 477H370V0H180zm190-706h312c236 0 327-133 327-310 0-176-91-307-329-307H370v617" id="az"/><path fill="#fff" d="M338-1490V0H158v-1490h180" id="aA"/><path fill="#fff" d="M158 0v-1118h175l1 205c55-151 181-225 313-225 147 0 245 90 285 228 53-141 190-228 352-228 194 0 352 125 352 384V0h-181v-749c0-161-105-225-225-225-151 0-243 103-243 244V0H807v-767c0-124-93-207-219-207-131 0-250 92-250 270V0H158" id="aB"/><g id="f"><use transform="matrix(0.01953125,0,0,0.01953125,0,0)" xlink:href="#az"/><use transform="matrix(0.01953125,0,0,0.01953125,25.546875,0)" xlink:href="#aA"/><use transform="matrix(0.01953125,0,0,0.01953125,35.234375,0)" xlink:href="#ay"/><use transform="matrix(0.01953125,0,0,0.01953125,57.6953125,0)" xlink:href="#as"/><use transform="matrix(0.01953125,0,0,0.01953125,69.8046875,0)" xlink:href="#av"/><use transform="matrix(0.01953125,0,0,0.01953125,83.4375,0)" xlink:href="#aw"/><use transform="matrix(0.01953125,0,0,0.01953125,107.421875,0)" xlink:href="#ao"/><use transform="matrix(0.01953125,0,0,0.01953125,123.10546875,0)" xlink:href="#aB"/></g><path d="M783 20c-382 0-661-292-661-764 0-473 279-766 661-766 302 0 548 182 601 489h-190c-42-204-217-313-411-313-268 0-476 208-476 590 0 381 209 588 476 588 195 0 369-110 411-313h190c-52 303-296 489-601 489" id="aC"/><path d="M613 24c-304 0-509-231-509-576 0-350 205-580 509-580 305 0 511 230 511 580 0 345-206 576-511 576zm0-161c226 0 329-195 329-415 0-222-103-419-329-419-223 0-326 196-326 419 0 220 103 415 326 415" id="aD"/><path d="M577 24c-279 0-473-224-473-580 0-354 195-576 474-576 218 0 287 134 324 193h14v-551h180V0H922v-173h-20C865-111 790 24 577 24zm27-161c203 0 314-172 314-421 0-247-108-413-314-413-212 0-317 181-317 413 0 235 108 421 317 421" id="aE"/><path d="M628 24c-324 0-524-230-524-574 0-343 198-582 503-582 237 0 487 146 487 559v75H286c9 234 145 362 343 362 132 0 231-58 273-172l174 48C1024-91 857 24 628 24zM287-650h624c-17-190-120-322-304-322-192 0-309 151-320 322" id="aF"/><g id="g"><use transform="matrix(0.010850694444444444,0,0,0.010850694444444444,0,0)" xlink:href="#aC"/><use transform="matrix(0.010850694444444444,0,0,0.010850694444444444,16.23263888888889,0)" xlink:href="#aD"/><use transform="matrix(0.010850694444444444,0,0,0.010850694444444444,29.557291666666664,0)" xlink:href="#aE"/><use transform="matrix(0.010850694444444444,0,0,0.010850694444444444,43.1640625,0)" xlink:href="#aF"/></g><path d="M580 20c-295 0-476-179-476-409 0-189 123-290 294-416-104-125-173-226-173-362 0-197 144-337 365-337 224 0 362 144 362 321 0 185-174 312-306 405l319 387c38-75 61-165 61-267h173c0 208-62 332-120 406L1287 0h-217L967-124C868-27 716 20 580 20zm279-273L507-675l-51 38c-123 91-167 162-167 254 0 147 113 246 278 246 107 0 210-41 292-116zM538-908l97-72c54-40 136-101 136-206 0-95-68-163-176-163-113 0-189 74-189 181 0 90 53 164 132 260" id="aG"/><use transform="matrix(0.010850694444444444,0,0,0.010850694444444444,0,0)" xlink:href="#aG" id="h"/><path d="M180 0v-1490h528c311 0 458 177 458 395 0 191-114 278-244 313v14c139 9 302 137 302 371 0 225-148 397-499 397H180zm190-168h350c232 0 321-102 321-231 0-149-120-277-311-277H370v508zm0-668h328c160 0 286-101 286-255 0-129-87-231-280-231H370v486" id="aH"/><path d="M537 14c-226 0-379-139-379-422v-710h180v695c0 172 97 275 253 275 160 0 281-109 281-300v-670h181V0H879v-209C806-46 684 14 537 14" id="aI"/><path d="M158 0v-1118h180V0H158zm91-1301c-68 0-125-53-125-119s57-119 125-119c69 0 126 53 126 119s-57 119-126 119" id="aJ"/><path d="M338-1490V0H158v-1490h180" id="aK"/><g id="i"><use transform="matrix(0.010850694444444444,0,0,0.010850694444444444,0,0)" xlink:href="#aH"/><use transform="matrix(0.010850694444444444,0,0,0.010850694444444444,14.539930555555555,0)" xlink:href="#aI"/><use transform="matrix(0.010850694444444444,0,0,0.010850694444444444,27.68012152777778,0)" xlink:href="#aJ"/><use transform="matrix(0.010850694444444444,0,0,0.010850694444444444,33.06206597222222,0)" xlink:href="#aK"/><use transform="matrix(0.010850694444444444,0,0,0.010850694444444444,38.444010416666664,0)" xlink:href="#aE"/></g><path d="M180 0v-1490h510c348 0 508 194 508 460 0 198-88 351-276 417L1256 0h-220L726-579c-117 2-238 0-356 1V0H180zm190-747h312c235 0 327-108 327-283 0-177-92-293-329-293H370v576" id="aL"/><path d="M611 442c-248 0-391-105-460-228l146-94c47 65 117 165 314 165 178 0 307-82 307-266v-224h-17C863-141 792-18 576-18c-268 0-472-195-472-546 0-346 197-568 476-568 216 0 288 133 326 193h17v-179h175V29c0 289-215 413-487 413zm-5-620c203 0 314-146 314-390 0-237-108-403-314-403-213 0-319 180-319 403 0 230 109 390 319 390" id="aM"/><path d="M538 24C308 24 148-78 108-271l171-41c32 123 123 178 257 178 156 0 256-77 256-169 0-77-54-128-164-154l-186-44c-203-48-300-148-300-305 0-192 176-326 414-326 230 0 351 112 402 269l-163 42c-31-80-94-158-238-158-133 0-233 69-233 162 0 83 57 129 188 160l169 40c203 48 298 149 298 302 0 196-179 339-441 339" id="aN"/><path d="M598-1118v154H368v674c0 100 37 144 132 144 23 0 62-6 92-12L629-6c-37 13-88 20-134 20-193 0-307-107-307-290v-688H20v-154h168v-266h180v266h230" id="aO"/><path d="M158 0v-1118h174v172h12c41-113 157-188 290-188 26 0 70 2 91 3v181c-11-2-60-10-108-10-161 0-279 109-279 260V0H158" id="aP"/><path d="M140 405l46-156c120 36 205 19 263-150l32-93L54-1118h197c107 313 237 620 324 950 87-331 219-637 326-950h196L606 167c-68 178-176 259-334 259-64 0-113-12-132-21" id="aQ"/><g id="j"><use transform="matrix(0.010850694444444444,0,0,0.010850694444444444,0,0)" xlink:href="#aL"/><use transform="matrix(0.010850694444444444,0,0,0.010850694444444444,13.975694444444445,0)" xlink:href="#aF"/><use transform="matrix(0.010850694444444444,0,0,0.010850694444444444,26.931423611111104,0)" xlink:href="#aM"/><use transform="matrix(0.010850694444444444,0,0,0.010850694444444444,40.55989583333333,0)" xlink:href="#aJ"/><use transform="matrix(0.010850694444444444,0,0,0.010850694444444444,45.94184027777778,0)" xlink:href="#aN"/><use transform="matrix(0.010850694444444444,0,0,0.010850694444444444,57.67144097222221,0)" xlink:href="#aO"/><use transform="matrix(0.010850694444444444,0,0,0.010850694444444444,64.94140624999999,0)" xlink:href="#aP"/><use transform="matrix(0.010850694444444444,0,0,0.010850694444444444,73.65451388888889,0)" xlink:href="#aQ"/></g><path d="M645 0H180v-1490h484c435 0 692 280 692 742 0 466-257 748-711 748zM370-168h263c363 0 539-218 539-580 0-358-176-574-521-574H370v1154" id="aR"/><path d="M158 418v-1536h174v179h20c37-59 106-193 324-193 279 0 474 222 474 576 0 356-194 580-473 580-213 0-288-135-325-197h-14v591H158zm492-555c209 0 317-186 317-421 0-232-105-413-317-413-206 0-314 166-314 413 0 249 111 421 314 421" id="aS"/><path d="M158 0v-1118h175l1 205c55-151 181-225 313-225 147 0 245 90 285 228 53-141 190-228 352-228 194 0 352 125 352 384V0h-181v-749c0-161-105-225-225-225-151 0-243 103-243 244V0H807v-767c0-124-93-207-219-207-131 0-250 92-250 270V0H158" id="aT"/><path d="M338-670V0H158v-1118h173l1 207c72-158 192-221 342-221 226 0 378 139 378 422V0H872v-695c0-172-96-275-252-275-161 0-282 109-282 300" id="aU"/><g id="k"><use transform="matrix(0.010850694444444444,0,0,0.010850694444444444,0,0)" xlink:href="#aR"/><use transform="matrix(0.010850694444444444,0,0,0.010850694444444444,16.03732638888889,0)" xlink:href="#aF"/><use transform="matrix(0.010850694444444444,0,0,0.010850694444444444,28.99305555555556,0)" xlink:href="#aS"/><use transform="matrix(0.010850694444444444,0,0,0.010850694444444444,42.599826388888886,0)" xlink:href="#aK"/><use transform="matrix(0.010850694444444444,0,0,0.010850694444444444,47.98177083333333,0)" xlink:href="#aD"/><use transform="matrix(0.010850694444444444,0,0,0.010850694444444444,60.87239583333333,0)" xlink:href="#aQ"/><use transform="matrix(0.010850694444444444,0,0,0.010850694444444444,73.36154513888889,0)" xlink:href="#aT"/><use transform="matrix(0.010850694444444444,0,0,0.010850694444444444,92.82769097222221,0)" xlink:href="#aF"/><use transform="matrix(0.010850694444444444,0,0,0.010850694444444444,105.78342013888889,0)" xlink:href="#aU"/><use transform="matrix(0.010850694444444444,0,0,0.010850694444444444,118.91276041666666,0)" xlink:href="#aO"/></g><path d="M180 0v-1490h908v168H370v486h669v168H370v500h727V0H180" id="aV"/><path d="M481 0L54-1118h197c107 314 236 620 325 951 87-331 217-637 324-951h197L670 0H481" id="aW"/><g id="l"><use transform="matrix(0.010850694444444444,0,0,0.010850694444444444,0,0)" xlink:href="#aV"/><use transform="matrix(0.010850694444444444,0,0,0.010850694444444444,13.35720486111111,0)" xlink:href="#aU"/><use transform="matrix(0.010850694444444444,0,0,0.010850694444444444,26.161024305555554,0)" xlink:href="#aW"/><use transform="matrix(0.010850694444444444,0,0,0.010850694444444444,38.65017361111111,0)" xlink:href="#aJ"/><use transform="matrix(0.010850694444444444,0,0,0.010850694444444444,44.03211805555555,0)" xlink:href="#aP"/><use transform="matrix(0.010850694444444444,0,0,0.010850694444444444,52.0290798611111,0)" xlink:href="#aD"/><use transform="matrix(0.010850694444444444,0,0,0.010850694444444444,65.35373263888887,0)" xlink:href="#aU"/><use transform="matrix(0.010850694444444444,0,0,0.010850694444444444,78.48307291666664,0)" xlink:href="#aT"/><use transform="matrix(0.010850694444444444,0,0,0.010850694444444444,97.94921874999997,0)" xlink:href="#aF"/><use transform="matrix(0.010850694444444444,0,0,0.010850694444444444,110.90494791666664,0)" xlink:href="#aU"/><use transform="matrix(0.010850694444444444,0,0,0.010850694444444444,124.03428819444441,0)" xlink:href="#aO"/><use transform="matrix(0.010850694444444444,0,0,0.010850694444444444,131.08723958333331,0)" xlink:href="#aN"/></g><path d="M370-1490V0H180v-1490h190" id="aX"/><path d="M692-1560L212 224H46l480-1784h166" id="aY"/><g id="m"><use transform="matrix(0.010850694444444444,0,0,0.010850694444444444,0,0)" xlink:href="#aC"/><use transform="matrix(0.010850694444444444,0,0,0.010850694444444444,16.23263888888889,0)" xlink:href="#aX"/><use transform="matrix(0.010850694444444444,0,0,0.010850694444444444,22.200520833333336,0)" xlink:href="#aY"/><use transform="matrix(0.010850694444444444,0,0,0.010850694444444444,30.208333333333336,0)" xlink:href="#aC"/><use transform="matrix(0.010850694444444444,0,0,0.010850694444444444,46.44097222222223,0)" xlink:href="#aR"/></g><path d="M180 0v-1490h190v1322h690V0H180" id="aZ"/><path d="M471 26C259 26 90-98 90-318c0-256 228-303 435-329 202-27 287-16 287-108 0-139-79-219-234-219-161 0-248 86-283 164l-173-57c86-203 278-265 451-265 150 0 419 46 419 395V0H815v-152h-12C765-73 660 26 471 26zm31-159c199 0 310-134 310-271v-155c-30 35-226 55-295 64-131 17-246 59-246 186 0 116 97 176 231 176" id="ba"/><g id="n"><use transform="matrix(0.010850694444444444,0,0,0.010850694444444444,0,0)" xlink:href="#aZ"/><use transform="matrix(0.010850694444444444,0,0,0.010850694444444444,12.565104166666666,0)" xlink:href="#ba"/><use transform="matrix(0.010850694444444444,0,0,0.010850694444444444,24.717881944444443,0)" xlink:href="#aQ"/><use transform="matrix(0.010850694444444444,0,0,0.010850694444444444,36.77300347222222,0)" xlink:href="#aF"/><use transform="matrix(0.010850694444444444,0,0,0.010850694444444444,49.728732638888886,0)" xlink:href="#aP"/></g><path d="M2048-719v166H0v-166h2048" id="bb"/><use transform="matrix(0.010850694444444444,0,0,0.010850694444444444,0,0)" xlink:href="#bb" id="o"/><path d="M52 0l541-1490h220L1361 0h-200l-149-416H398L254 0H52zm404-582h497c-103-290-145-390-251-756-108 377-145 460-246 756" id="bc"/><g id="p"><use transform="matrix(0.010850694444444444,0,0,0.010850694444444444,0,0)" xlink:href="#bc"/><use transform="matrix(0.010850694444444444,0,0,0.010850694444444444,15.33203125,0)" xlink:href="#aE"/><use transform="matrix(0.010850694444444444,0,0,0.010850694444444444,28.938802083333332,0)" xlink:href="#ba"/><use transform="matrix(0.010850694444444444,0,0,0.010850694444444444,41.41710069444444,0)" xlink:href="#aS"/><use transform="matrix(0.010850694444444444,0,0,0.010850694444444444,55.02387152777778,0)" xlink:href="#aO"/><use transform="matrix(0.010850694444444444,0,0,0.010850694444444444,62.29383680555555,0)" xlink:href="#aJ"/><use transform="matrix(0.010850694444444444,0,0,0.010850694444444444,67.67578125,0)" xlink:href="#aW"/><use transform="matrix(0.010850694444444444,0,0,0.010850694444444444,79.73090277777779,0)" xlink:href="#aF"/></g><path d="M98-1322v-168h1126v168H757V0H567v-1322H98" id="bd"/><g id="q"><use transform="matrix(0.010850694444444444,0,0,0.010850694444444444,0,0)" xlink:href="#bd"/><use transform="matrix(0.010850694444444444,0,0,0.010850694444444444,12.706163194444445,0)" xlink:href="#aI"/><use transform="matrix(0.010850694444444444,0,0,0.010850694444444444,25.846354166666664,0)" xlink:href="#aO"/><use transform="matrix(0.010850694444444444,0,0,0.010850694444444444,32.89930555555555,0)" xlink:href="#aD"/><use transform="matrix(0.010850694444444444,0,0,0.010850694444444444,46.22395833333333,0)" xlink:href="#aP"/><use transform="matrix(0.010850694444444444,0,0,0.010850694444444444,54.93706597222221,0)" xlink:href="#aJ"/><use transform="matrix(0.010850694444444444,0,0,0.010850694444444444,60.31901041666666,0)" xlink:href="#aU"/><use transform="matrix(0.010850694444444444,0,0,0.010850694444444444,73.44835069444443,0)" xlink:href="#aM"/></g><g id="r"><use transform="matrix(0.010850694444444444,0,0,0.010850694444444444,0,0)" xlink:href="#bc"/><use transform="matrix(0.010850694444444444,0,0,0.010850694444444444,15.33203125,0)" xlink:href="#aX"/></g><path d="M657 26c-323 0-524-166-541-416h195c15 169 171 246 346 246 202 0 356-106 356-265 5-203-294-238-475-293-239-73-380-191-380-389 0-252 224-419 512-419 294 0 499 171 508 396H992c-17-145-151-228-328-228-193 0-321 102-321 242 0 156 175 211 284 241l149 41c160 44 422 134 422 412 0 244-197 432-541 432" id="be"/><g id="s"><use transform="matrix(0.010850694444444444,0,0,0.010850694444444444,0,0)" xlink:href="#be"/><use transform="matrix(0.010850694444444444,0,0,0.010850694444444444,14.2578125,0)" xlink:href="#ba"/><use transform="matrix(0.010850694444444444,0,0,0.010850694444444444,26.73611111111111,0)" xlink:href="#ba"/><use transform="matrix(0.010850694444444444,0,0,0.010850694444444444,39.21440972222222,0)" xlink:href="#be"/></g><g id="t"><use transform="matrix(0.010850694444444444,0,0,0.010850694444444444,0,0)" xlink:href="#aC"/><use transform="matrix(0.010850694444444444,0,0,0.010850694444444444,16.23263888888889,0)" xlink:href="#aD"/><use transform="matrix(0.010850694444444444,0,0,0.010850694444444444,29.557291666666664,0)" xlink:href="#aE"/><use transform="matrix(0.010850694444444444,0,0,0.010850694444444444,43.1640625,0)" xlink:href="#aF"/></g><g id="u"><use transform="matrix(0.010850694444444444,0,0,0.010850694444444444,0,0)" xlink:href="#aL"/><use transform="matrix(0.010850694444444444,0,0,0.010850694444444444,13.975694444444445,0)" xlink:href="#aF"/><use transform="matrix(0.010850694444444444,0,0,0.010850694444444444,26.931423611111104,0)" xlink:href="#aS"/><use transform="matrix(0.010850694444444444,0,0,0.010850694444444444,40.53819444444444,0)" xlink:href="#aD"/><use transform="matrix(0.010850694444444444,0,0,0.010850694444444444,53.86284722222222,0)" xlink:href="#aN"/><use transform="matrix(0.010850694444444444,0,0,0.010850694444444444,65.59244791666667,0)" xlink:href="#aJ"/><use transform="matrix(0.010850694444444444,0,0,0.010850694444444444,70.97439236111111,0)" xlink:href="#aO"/><use transform="matrix(0.010850694444444444,0,0,0.010850694444444444,78.02734375,0)" xlink:href="#aD"/><use transform="matrix(0.010850694444444444,0,0,0.010850694444444444,91.35199652777777,0)" xlink:href="#aP"/><use transform="matrix(0.010850694444444444,0,0,0.010850694444444444,100.06510416666666,0)" xlink:href="#aQ"/></g><path d="M218-607c0-325 108-727 258-974h175c-155 315-250 682-250 974 0 265 78 531 250 886H476C306-10 218-315 218-607" id="bf"/><path d="M789 20c-398 0-667-293-667-764 0-473 273-766 655-766 315 0 558 198 612 487h-196c-61-191-204-311-415-311-262 0-471 207-471 590 0 380 208 588 482 588 249 0 420-165 425-427H828v-166h572v163c0 370-256 606-611 606" id="bg"/><path d="M180 0v-1490h190v644h782v-644h190V0h-190v-678H370V0H180" id="bh"/><path d="M677 24c-213 0-288-135-325-197h-20V0H158v-1490h180v551h14c37-59 106-193 324-193 279 0 474 222 474 576 0 356-194 580-473 580zm-27-161c209 0 317-186 317-421 0-232-105-413-317-413-206 0-314 166-314 413 0 249 111 421 314 421" id="bi"/><path d="M96 279C273-86 346-350 346-607c0-292-95-659-250-974h175c150 246 258 650 258 974 0 297-91 602-258 886H96" id="bj"/><g id="v"><use transform="matrix(0.010850694444444444,0,0,0.010850694444444444,0,0)" xlink:href="#bf"/><use transform="matrix(0.010850694444444444,0,0,0.010850694444444444,8.10546875,0)" xlink:href="#bg"/><use transform="matrix(0.010850694444444444,0,0,0.010850694444444444,24.68532986111111,0)" xlink:href="#aJ"/><use transform="matrix(0.010850694444444444,0,0,0.010850694444444444,30.06727430555556,0)" xlink:href="#aO"/><use transform="matrix(0.010850694444444444,0,0,0.010850694444444444,37.337239583333336,0)" xlink:href="#bh"/><use transform="matrix(0.010850694444444444,0,0,0.010850694444444444,53.85199652777778,0)" xlink:href="#aI"/><use transform="matrix(0.010850694444444444,0,0,0.010850694444444444,66.9921875,0)" xlink:href="#bi"/><use transform="matrix(0.010850694444444444,0,0,0.010850694444444444,80.3493923611111,0)" xlink:href="#bj"/></g><g id="w"><use transform="matrix(0.010850694444444444,0,0,0.010850694444444444,0,0)" xlink:href="#aC"/><use transform="matrix(0.010850694444444444,0,0,0.010850694444444444,16.23263888888889,0)" xlink:href="#aD"/><use transform="matrix(0.010850694444444444,0,0,0.010850694444444444,29.557291666666664,0)" xlink:href="#aU"/><use transform="matrix(0.010850694444444444,0,0,0.010850694444444444,42.68663194444444,0)" xlink:href="#aO"/><use transform="matrix(0.010850694444444444,0,0,0.010850694444444444,49.95659722222222,0)" xlink:href="#aJ"/><use transform="matrix(0.010850694444444444,0,0,0.010850694444444444,55.338541666666664,0)" xlink:href="#aU"/><use transform="matrix(0.010850694444444444,0,0,0.010850694444444444,68.46788194444444,0)" xlink:href="#aI"/><use transform="matrix(0.010850694444444444,0,0,0.010850694444444444,81.60807291666666,0)" xlink:href="#aD"/><use transform="matrix(0.010850694444444444,0,0,0.010850694444444444,94.93272569444441,0)" xlink:href="#aI"/><use transform="matrix(0.010850694444444444,0,0,0.010850694444444444,108.07291666666666,0)" xlink:href="#aN"/></g><g id="x"><use transform="matrix(0.010850694444444444,0,0,0.010850694444444444,0,0)" xlink:href="#aX"/><use transform="matrix(0.010850694444444444,0,0,0.010850694444444444,5.967881944444445,0)" xlink:href="#aU"/><use transform="matrix(0.010850694444444444,0,0,0.010850694444444444,19.09722222222222,0)" xlink:href="#aO"/><use transform="matrix(0.010850694444444444,0,0,0.010850694444444444,26.15017361111111,0)" xlink:href="#aF"/><use transform="matrix(0.010850694444444444,0,0,0.010850694444444444,39.10590277777778,0)" xlink:href="#aM"/><use transform="matrix(0.010850694444444444,0,0,0.010850694444444444,52.734375,0)" xlink:href="#aP"/><use transform="matrix(0.010850694444444444,0,0,0.010850694444444444,61.100260416666664,0)" xlink:href="#ba"/><use transform="matrix(0.010850694444444444,0,0,0.010850694444444444,73.57855902777777,0)" xlink:href="#aO"/><use transform="matrix(0.010850694444444444,0,0,0.010850694444444444,80.84852430555554,0)" xlink:href="#aJ"/><use transform="matrix(0.010850694444444444,0,0,0.010850694444444444,86.23046874999999,0)" xlink:href="#aD"/><use transform="matrix(0.010850694444444444,0,0,0.010850694444444444,99.55512152777776,0)" xlink:href="#aU"/></g><g id="y"><use transform="matrix(0.010850694444444444,0,0,0.010850694444444444,0,0)" xlink:href="#bf"/><use transform="matrix(0.010850694444444444,0,0,0.010850694444444444,8.10546875,0)" xlink:href="#bg"/><use transform="matrix(0.010850694444444444,0,0,0.010850694444444444,24.68532986111111,0)" xlink:href="#aJ"/><use transform="matrix(0.010850694444444444,0,0,0.010850694444444444,30.06727430555556,0)" xlink:href="#aO"/><use transform="matrix(0.010850694444444444,0,0,0.010850694444444444,37.337239583333336,0)" xlink:href="#bh"/><use transform="matrix(0.010850694444444444,0,0,0.010850694444444444,53.85199652777778,0)" xlink:href="#aI"/><use transform="matrix(0.010850694444444444,0,0,0.010850694444444444,66.9921875,0)" xlink:href="#bi"/></g><path d="M613 24c-304 0-509-231-509-576 0-350 205-580 509-580 216 0 392 114 453 309l-173 49c-33-115-133-197-280-197-223 0-326 196-326 419 0 220 103 415 326 415 150 0 252-85 285-206l172 49C1010-95 832 24 613 24" id="bk"/><g id="z"><use transform="matrix(0.010850694444444444,0,0,0.010850694444444444,0,0)" xlink:href="#bc"/><use transform="matrix(0.010850694444444444,0,0,0.010850694444444444,15.33203125,0)" xlink:href="#bk"/><use transform="matrix(0.010850694444444444,0,0,0.010850694444444444,28.02734375,0)" xlink:href="#aO"/><use transform="matrix(0.010850694444444444,0,0,0.010850694444444444,35.29730902777778,0)" xlink:href="#aJ"/><use transform="matrix(0.010850694444444444,0,0,0.010850694444444444,40.67925347222222,0)" xlink:href="#aD"/><use transform="matrix(0.010850694444444444,0,0,0.010850694444444444,54.00390625,0)" xlink:href="#aU"/><use transform="matrix(0.010850694444444444,0,0,0.010850694444444444,67.13324652777777,0)" xlink:href="#aN"/><use transform="matrix(0.010850694444444444,0,0,0.010850694444444444,78.86284722222221,0)" xlink:href="#bj"/></g><g id="A"><use transform="matrix(0.010850694444444444,0,0,0.010850694444444444,0,0)" xlink:href="#aZ"/><use transform="matrix(0.010850694444444444,0,0,0.010850694444444444,12.565104166666666,0)" xlink:href="#aJ"/><use transform="matrix(0.010850694444444444,0,0,0.010850694444444444,17.94704861111111,0)" xlink:href="#aU"/><use transform="matrix(0.010850694444444444,0,0,0.010850694444444444,31.07638888888889,0)" xlink:href="#aO"/><use transform="matrix(0.010850694444444444,0,0,0.010850694444444444,38.346354166666664,0)" xlink:href="#aJ"/><use transform="matrix(0.010850694444444444,0,0,0.010850694444444444,43.72829861111111,0)" xlink:href="#aU"/><use transform="matrix(0.010850694444444444,0,0,0.010850694444444444,56.857638888888886,0)" xlink:href="#aM"/></g><path d="M576-274c-177 0-320-143-320-320s143-320 320-320 320 143 320 320-143 320-320 320" id="bl"/><use transform="matrix(0.010850694444444444,0,0,0.010850694444444444,0,0)" xlink:href="#bl" id="B"/><path d="M763 24c-353 0-583-224-583-531v-983h190v968c0 214 149 370 393 370 243 0 391-156 391-370v-968h190v983c0 307-230 531-581 531" id="bm"/><g id="C"><use transform="matrix(0.010850694444444444,0,0,0.010850694444444444,0,0)" xlink:href="#bm"/><use transform="matrix(0.010850694444444444,0,0,0.010850694444444444,16.536458333333332,0)" xlink:href="#aU"/><use transform="matrix(0.010850694444444444,0,0,0.010850694444444444,29.665798611111104,0)" xlink:href="#aJ"/><use transform="matrix(0.010850694444444444,0,0,0.010850694444444444,35.04774305555555,0)" xlink:href="#aO"/></g><g id="D"><use transform="matrix(0.010850694444444444,0,0,0.010850694444444444,0,0)" xlink:href="#bd"/><use transform="matrix(0.010850694444444444,0,0,0.010850694444444444,12.608506944444445,0)" xlink:href="#aF"/><use transform="matrix(0.010850694444444444,0,0,0.010850694444444444,25.56423611111111,0)" xlink:href="#aN"/><use transform="matrix(0.010850694444444444,0,0,0.010850694444444444,37.29383680555556,0)" xlink:href="#aO"/><use transform="matrix(0.010850694444444444,0,0,0.010850694444444444,44.34678819444445,0)" xlink:href="#aN"/></g><use transform="matrix(0.010850694444444444,0,0,0.010850694444444444,0,0)" xlink:href="#bl" id="E"/><g id="F"><use transform="matrix(0.010850694444444444,0,0,0.010850694444444444,0,0)" xlink:href="#aX"/><use transform="matrix(0.010850694444444444,0,0,0.010850694444444444,5.967881944444445,0)" xlink:href="#aU"/><use transform="matrix(0.010850694444444444,0,0,0.010850694444444444,19.09722222222222,0)" xlink:href="#aO"/><use transform="matrix(0.010850694444444444,0,0,0.010850694444444444,26.15017361111111,0)" xlink:href="#aF"/><use transform="matrix(0.010850694444444444,0,0,0.010850694444444444,39.10590277777778,0)" xlink:href="#aM"/><use transform="matrix(0.010850694444444444,0,0,0.010850694444444444,52.734375,0)" xlink:href="#aP"/><use transform="matrix(0.010850694444444444,0,0,0.010850694444444444,61.100260416666664,0)" xlink:href="#ba"/><use transform="matrix(0.010850694444444444,0,0,0.010850694444444444,73.57855902777777,0)" xlink:href="#aO"/><use transform="matrix(0.010850694444444444,0,0,0.010850694444444444,80.84852430555554,0)" xlink:href="#aJ"/><use transform="matrix(0.010850694444444444,0,0,0.010850694444444444,86.23046874999999,0)" xlink:href="#aD"/><use transform="matrix(0.010850694444444444,0,0,0.010850694444444444,99.55512152777776,0)" xlink:href="#aU"/></g><g id="G"><use transform="matrix(0.010850694444444444,0,0,0.010850694444444444,0,0)" xlink:href="#bd"/><use transform="matrix(0.010850694444444444,0,0,0.010850694444444444,12.608506944444445,0)" xlink:href="#aF"/><use transform="matrix(0.010850694444444444,0,0,0.010850694444444444,25.56423611111111,0)" xlink:href="#aN"/><use transform="matrix(0.010850694444444444,0,0,0.010850694444444444,37.29383680555556,0)" xlink:href="#aO"/><use transform="matrix(0.010850694444444444,0,0,0.010850694444444444,44.34678819444445,0)" xlink:href="#aN"/></g><path d="M158 0v-1490h180v865h22l478-493h223L593-638 1096 0H865L456-523 338-412V0H158" id="bn"/><g id="H"><use transform="matrix(0.010850694444444444,0,0,0.010850694444444444,0,0)" xlink:href="#aR"/><use transform="matrix(0.010850694444444444,0,0,0.010850694444444444,16.03732638888889,0)" xlink:href="#aD"/><use transform="matrix(0.010850694444444444,0,0,0.010850694444444444,29.361979166666664,0)" xlink:href="#bk"/><use transform="matrix(0.010850694444444444,0,0,0.010850694444444444,42.057291666666664,0)" xlink:href="#bn"/><use transform="matrix(0.010850694444444444,0,0,0.010850694444444444,53.75434027777778,0)" xlink:href="#aF"/><use transform="matrix(0.010850694444444444,0,0,0.010850694444444444,66.71006944444444,0)" xlink:href="#aP"/></g><g id="I"><use transform="matrix(0.010850694444444444,0,0,0.010850694444444444,0,0)" xlink:href="#aX"/><use transform="matrix(0.010850694444444444,0,0,0.010850694444444444,5.967881944444445,0)" xlink:href="#aT"/><use transform="matrix(0.010850694444444444,0,0,0.010850694444444444,25.43402777777778,0)" xlink:href="#ba"/><use transform="matrix(0.010850694444444444,0,0,0.010850694444444444,37.912326388888886,0)" xlink:href="#aM"/><use transform="matrix(0.010850694444444444,0,0,0.010850694444444444,51.54079861111111,0)" xlink:href="#aF"/></g><g id="J"><use transform="matrix(0.010850694444444444,0,0,0.010850694444444444,0,0)" xlink:href="#aR"/><use transform="matrix(0.010850694444444444,0,0,0.010850694444444444,16.03732638888889,0)" xlink:href="#aD"/><use transform="matrix(0.010850694444444444,0,0,0.010850694444444444,29.361979166666664,0)" xlink:href="#bk"/><use transform="matrix(0.010850694444444444,0,0,0.010850694444444444,42.057291666666664,0)" xlink:href="#bn"/><use transform="matrix(0.010850694444444444,0,0,0.010850694444444444,53.75434027777778,0)" xlink:href="#aF"/><use transform="matrix(0.010850694444444444,0,0,0.010850694444444444,66.71006944444444,0)" xlink:href="#aP"/></g><g id="K"><use transform="matrix(0.010850694444444444,0,0,0.010850694444444444,0,0)" xlink:href="#aL"/><use transform="matrix(0.010850694444444444,0,0,0.010850694444444444,13.975694444444445,0)" xlink:href="#aF"/><use transform="matrix(0.010850694444444444,0,0,0.010850694444444444,26.931423611111104,0)" xlink:href="#aM"/><use transform="matrix(0.010850694444444444,0,0,0.010850694444444444,40.55989583333333,0)" xlink:href="#aJ"/><use transform="matrix(0.010850694444444444,0,0,0.010850694444444444,45.94184027777778,0)" xlink:href="#aN"/><use transform="matrix(0.010850694444444444,0,0,0.010850694444444444,57.67144097222221,0)" xlink:href="#aO"/><use transform="matrix(0.010850694444444444,0,0,0.010850694444444444,64.94140624999999,0)" xlink:href="#aP"/><use transform="matrix(0.010850694444444444,0,0,0.010850694444444444,73.65451388888889,0)" xlink:href="#aQ"/></g><path d="M126 0v-134l627-806v-11H146v-167h839v143L376-178v11h629V0H126" id="bo"/><g id="L"><use transform="matrix(0.010850694444444444,0,0,0.010850694444444444,0,0)" xlink:href="#bf"/><use transform="matrix(0.010850694444444444,0,0,0.010850694444444444,8.10546875,0)" xlink:href="#bc"/><use transform="matrix(0.010850694444444444,0,0,0.010850694444444444,23.4375,0)" xlink:href="#aT"/><use transform="matrix(0.010850694444444444,0,0,0.010850694444444444,42.90364583333333,0)" xlink:href="#ba"/><use transform="matrix(0.010850694444444444,0,0,0.010850694444444444,55.38194444444444,0)" xlink:href="#bo"/><use transform="matrix(0.010850694444444444,0,0,0.010850694444444444,67.32855902777777,0)" xlink:href="#aD"/><use transform="matrix(0.010850694444444444,0,0,0.010850694444444444,80.65321180555554,0)" xlink:href="#aU"/></g><g id="M"><use transform="matrix(0.010850694444444444,0,0,0.010850694444444444,0,0)" xlink:href="#aV"/><use transform="matrix(0.010850694444444444,0,0,0.010850694444444444,13.35720486111111,0)" xlink:href="#aC"/><use transform="matrix(0.010850694444444444,0,0,0.010850694444444444,29.58984375,0)" xlink:href="#aL"/><use transform="matrix(0.010850694444444444,0,0,0.010850694444444444,43.89105902777778,0)" xlink:href="#bj"/></g><g id="N"><use transform="matrix(0.010850694444444444,0,0,0.010850694444444444,0,0)" xlink:href="#aR"/><use transform="matrix(0.010850694444444444,0,0,0.010850694444444444,16.03732638888889,0)" xlink:href="#aF"/><use transform="matrix(0.010850694444444444,0,0,0.010850694444444444,28.99305555555556,0)" xlink:href="#aS"/><use transform="matrix(0.010850694444444444,0,0,0.010850694444444444,42.599826388888886,0)" xlink:href="#aK"/><use transform="matrix(0.010850694444444444,0,0,0.010850694444444444,47.98177083333333,0)" xlink:href="#aD"/><use transform="matrix(0.010850694444444444,0,0,0.010850694444444444,60.87239583333333,0)" xlink:href="#aQ"/><use transform="matrix(0.010850694444444444,0,0,0.010850694444444444,73.36154513888889,0)" xlink:href="#aT"/><use transform="matrix(0.010850694444444444,0,0,0.010850694444444444,92.82769097222221,0)" xlink:href="#aF"/><use transform="matrix(0.010850694444444444,0,0,0.010850694444444444,105.78342013888889,0)" xlink:href="#aU"/><use transform="matrix(0.010850694444444444,0,0,0.010850694444444444,118.91276041666666,0)" xlink:href="#aO"/></g><g id="O"><use transform="matrix(0.010850694444444444,0,0,0.010850694444444444,0,0)" xlink:href="#bf"/><use transform="matrix(0.010850694444444444,0,0,0.010850694444444444,8.10546875,0)" xlink:href="#bc"/><use transform="matrix(0.010850694444444444,0,0,0.010850694444444444,23.4375,0)" xlink:href="#aP"/><use transform="matrix(0.010850694444444444,0,0,0.010850694444444444,31.43446180555556,0)" xlink:href="#aM"/><use transform="matrix(0.010850694444444444,0,0,0.010850694444444444,45.06293402777778,0)" xlink:href="#aD"/></g><g id="P"><use transform="matrix(0.010850694444444444,0,0,0.010850694444444444,0,0)" xlink:href="#aC"/><use transform="matrix(0.010850694444444444,0,0,0.010850694444444444,16.23263888888889,0)" xlink:href="#aR"/></g><g id="Q"><use transform="matrix(0.010850694444444444,0,0,0.010850694444444444,0,0)" xlink:href="#aD"/><use transform="matrix(0.010850694444444444,0,0,0.010850694444444444,13.324652777777777,0)" xlink:href="#aP"/></g><g id="R"><use transform="matrix(0.010850694444444444,0,0,0.010850694444444444,0,0)" xlink:href="#bg"/><use transform="matrix(0.010850694444444444,0,0,0.010850694444444444,16.57986111111111,0)" xlink:href="#aJ"/><use transform="matrix(0.010850694444444444,0,0,0.010850694444444444,21.961805555555557,0)" xlink:href="#aO"/><use transform="matrix(0.010850694444444444,0,0,0.010850694444444444,29.231770833333336,0)" xlink:href="#bh"/><use transform="matrix(0.010850694444444444,0,0,0.010850694444444444,45.74652777777778,0)" xlink:href="#aI"/><use transform="matrix(0.010850694444444444,0,0,0.010850694444444444,58.88671875,0)" xlink:href="#bi"/></g><g id="S"><use transform="matrix(0.010850694444444444,0,0,0.010850694444444444,0,0)" xlink:href="#aL"/><use transform="matrix(0.010850694444444444,0,0,0.010850694444444444,13.975694444444445,0)" xlink:href="#aD"/><use transform="matrix(0.010850694444444444,0,0,0.010850694444444444,27.30034722222222,0)" xlink:href="#aK"/><use transform="matrix(0.010850694444444444,0,0,0.010850694444444444,32.682291666666664,0)" xlink:href="#aK"/><use transform="matrix(0.010850694444444444,0,0,0.010850694444444444,38.06423611111111,0)" xlink:href="#aJ"/><use transform="matrix(0.010850694444444444,0,0,0.010850694444444444,43.44618055555555,0)" xlink:href="#aU"/><use transform="matrix(0.010850694444444444,0,0,0.010850694444444444,56.57552083333333,0)" xlink:href="#aM"/></g><g id="T"><use transform="matrix(0.010850694444444444,0,0,0.010850694444444444,0,0)" xlink:href="#bm"/><use transform="matrix(0.010850694444444444,0,0,0.010850694444444444,16.536458333333332,0)" xlink:href="#aS"/><use transform="matrix(0.010850694444444444,0,0,0.010850694444444444,30.143229166666664,0)" xlink:href="#aE"/><use transform="matrix(0.010850694444444444,0,0,0.010850694444444444,43.75,0)" xlink:href="#ba"/><use transform="matrix(0.010850694444444444,0,0,0.010850694444444444,56.22829861111112,0)" xlink:href="#aO"/><use transform="matrix(0.010850694444444444,0,0,0.010850694444444444,63.28125000000001,0)" xlink:href="#aF"/><use transform="matrix(0.010850694444444444,0,0,0.010850694444444444,76.23697916666667,0)" xlink:href="#aN"/></g><path d="M798-719v166H144v-166h654" id="bp"/><g id="U"><use transform="matrix(0.010850694444444444,0,0,0.010850694444444444,0,0)" xlink:href="#aH"/><use transform="matrix(0.010850694444444444,0,0,0.010850694444444444,14.539930555555555,0)" xlink:href="#aK"/><use transform="matrix(0.010850694444444444,0,0,0.010850694444444444,19.921875,0)" xlink:href="#aI"/><use transform="matrix(0.010850694444444444,0,0,0.010850694444444444,33.06206597222222,0)" xlink:href="#aF"/><use transform="matrix(0.010850694444444444,0,0,0.010850694444444444,46.017795138888886,0)" xlink:href="#bp"/><use transform="matrix(0.010850694444444444,0,0,0.010850694444444444,56.23914930555555,0)" xlink:href="#bg"/><use transform="matrix(0.010850694444444444,0,0,0.010850694444444444,72.81901041666666,0)" xlink:href="#aP"/><use transform="matrix(0.010850694444444444,0,0,0.010850694444444444,80.81597222222221,0)" xlink:href="#aF"/><use transform="matrix(0.010850694444444444,0,0,0.010850694444444444,93.77170138888889,0)" xlink:href="#aF"/><use transform="matrix(0.010850694444444444,0,0,0.010850694444444444,106.72743055555556,0)" xlink:href="#aU"/></g><g id="V"><use transform="matrix(0.010850694444444444,0,0,0.010850694444444444,0,0)" xlink:href="#aR"/><use transform="matrix(0.010850694444444444,0,0,0.010850694444444444,16.03732638888889,0)" xlink:href="#aF"/><use transform="matrix(0.010850694444444444,0,0,0.010850694444444444,28.99305555555556,0)" xlink:href="#aS"/><use transform="matrix(0.010850694444444444,0,0,0.010850694444444444,42.599826388888886,0)" xlink:href="#aK"/><use transform="matrix(0.010850694444444444,0,0,0.010850694444444444,47.98177083333333,0)" xlink:href="#aD"/><use transform="matrix(0.010850694444444444,0,0,0.010850694444444444,60.87239583333333,0)" xlink:href="#aQ"/><use transform="matrix(0.010850694444444444,0,0,0.010850694444444444,73.36154513888889,0)" xlink:href="#aT"/><use transform="matrix(0.010850694444444444,0,0,0.010850694444444444,92.82769097222221,0)" xlink:href="#aF"/><use transform="matrix(0.010850694444444444,0,0,0.010850694444444444,105.78342013888889,0)" xlink:href="#aU"/><use transform="matrix(0.010850694444444444,0,0,0.010850694444444444,118.91276041666666,0)" xlink:href="#aO"/><use transform="matrix(0.010850694444444444,0,0,0.010850694444444444,125.96571180555556,0)" xlink:href="#aN"/></g><g id="W"><use transform="matrix(0.010850694444444444,0,0,0.010850694444444444,0,0)" xlink:href="#be"/><use transform="matrix(0.010850694444444444,0,0,0.010850694444444444,14.2578125,0)" xlink:href="#aO"/><use transform="matrix(0.010850694444444444,0,0,0.010850694444444444,21.63628472222222,0)" xlink:href="#ba"/><use transform="matrix(0.010850694444444444,0,0,0.010850694444444444,34.11458333333333,0)" xlink:href="#aM"/><use transform="matrix(0.010850694444444444,0,0,0.010850694444444444,47.74305555555556,0)" xlink:href="#aJ"/><use transform="matrix(0.010850694444444444,0,0,0.010850694444444444,53.124999999999986,0)" xlink:href="#aU"/><use transform="matrix(0.010850694444444444,0,0,0.010850694444444444,66.25434027777777,0)" xlink:href="#aM"/></g><g id="X"><use transform="matrix(0.010850694444444444,0,0,0.010850694444444444,0,0)" xlink:href="#aV"/><use transform="matrix(0.010850694444444444,0,0,0.010850694444444444,13.35720486111111,0)" xlink:href="#aU"/><use transform="matrix(0.010850694444444444,0,0,0.010850694444444444,26.161024305555554,0)" xlink:href="#aW"/><use transform="matrix(0.010850694444444444,0,0,0.010850694444444444,38.65017361111111,0)" xlink:href="#aJ"/><use transform="matrix(0.010850694444444444,0,0,0.010850694444444444,44.03211805555555,0)" xlink:href="#aP"/><use transform="matrix(0.010850694444444444,0,0,0.010850694444444444,52.0290798611111,0)" xlink:href="#aD"/><use transform="matrix(0.010850694444444444,0,0,0.010850694444444444,65.35373263888887,0)" xlink:href="#aU"/><use transform="matrix(0.010850694444444444,0,0,0.010850694444444444,78.48307291666664,0)" xlink:href="#aT"/><use transform="matrix(0.010850694444444444,0,0,0.010850694444444444,97.94921874999997,0)" xlink:href="#aF"/><use transform="matrix(0.010850694444444444,0,0,0.010850694444444444,110.90494791666664,0)" xlink:href="#aU"/><use transform="matrix(0.010850694444444444,0,0,0.010850694444444444,124.03428819444441,0)" xlink:href="#aO"/></g><path d="M180 0v-1490h510c348 0 508 209 508 474 0 266-160 477-507 477H370V0H180zm190-706h312c236 0 327-133 327-310 0-176-91-307-329-307H370v617" id="bq"/><g id="Y"><use transform="matrix(0.010850694444444444,0,0,0.010850694444444444,0,0)" xlink:href="#bf"/><use transform="matrix(0.010850694444444444,0,0,0.010850694444444444,8.10546875,0)" xlink:href="#bq"/><use transform="matrix(0.010850694444444444,0,0,0.010850694444444444,22.298177083333332,0)" xlink:href="#aP"/><use transform="matrix(0.010850694444444444,0,0,0.010850694444444444,30.29513888888889,0)" xlink:href="#aF"/><use transform="matrix(0.010850694444444444,0,0,0.010850694444444444,43.25086805555555,0)" xlink:href="#bp"/><use transform="matrix(0.010850694444444444,0,0,0.010850694444444444,53.47222222222221,0)" xlink:href="#bq"/><use transform="matrix(0.010850694444444444,0,0,0.010850694444444444,67.66493055555554,0)" xlink:href="#aP"/><use transform="matrix(0.010850694444444444,0,0,0.010850694444444444,75.6618923611111,0)" xlink:href="#aD"/><use transform="matrix(0.010850694444444444,0,0,0.010850694444444444,88.98654513888887,0)" xlink:href="#aE"/><use transform="matrix(0.010850694444444444,0,0,0.010850694444444444,102.5933159722222,0)" xlink:href="#bj"/></g><g id="Z"><use transform="matrix(0.010850694444444444,0,0,0.010850694444444444,0,0)" xlink:href="#aR"/><use transform="matrix(0.010850694444444444,0,0,0.010850694444444444,16.03732638888889,0)" xlink:href="#aF"/><use transform="matrix(0.010850694444444444,0,0,0.010850694444444444,28.99305555555556,0)" xlink:href="#aS"/><use transform="matrix(0.010850694444444444,0,0,0.010850694444444444,42.599826388888886,0)" xlink:href="#aK"/><use transform="matrix(0.010850694444444444,0,0,0.010850694444444444,47.98177083333333,0)" xlink:href="#aD"/><use transform="matrix(0.010850694444444444,0,0,0.010850694444444444,60.87239583333333,0)" xlink:href="#aQ"/><use transform="matrix(0.010850694444444444,0,0,0.010850694444444444,73.36154513888889,0)" xlink:href="#aT"/><use transform="matrix(0.010850694444444444,0,0,0.010850694444444444,92.82769097222221,0)" xlink:href="#aF"/><use transform="matrix(0.010850694444444444,0,0,0.010850694444444444,105.78342013888889,0)" xlink:href="#aU"/><use transform="matrix(0.010850694444444444,0,0,0.010850694444444444,118.91276041666666,0)" xlink:href="#aO"/></g><path d="M600 0L52-1490h200c166 485 304 806 458 1336 156-533 285-846 449-1336h202L819 0H600" id="br"/><g id="aa"><use transform="matrix(0.010850694444444444,0,0,0.010850694444444444,0,0)" xlink:href="#br"/><use transform="matrix(0.010850694444444444,0,0,0.010850694444444444,14.20355902777778,0)" xlink:href="#ba"/><use transform="matrix(0.010850694444444444,0,0,0.010850694444444444,26.68185763888889,0)" xlink:href="#aK"/><use transform="matrix(0.010850694444444444,0,0,0.010850694444444444,32.063802083333336,0)" xlink:href="#aJ"/><use transform="matrix(0.010850694444444444,0,0,0.010850694444444444,37.44574652777778,0)" xlink:href="#aE"/><use transform="matrix(0.010850694444444444,0,0,0.010850694444444444,51.05251736111112,0)" xlink:href="#ba"/><use transform="matrix(0.010850694444444444,0,0,0.010850694444444444,63.53081597222223,0)" xlink:href="#aO"/><use transform="matrix(0.010850694444444444,0,0,0.010850694444444444,70.80078125,0)" xlink:href="#aJ"/><use transform="matrix(0.010850694444444444,0,0,0.010850694444444444,76.18272569444444,0)" xlink:href="#aD"/><use transform="matrix(0.010850694444444444,0,0,0.010850694444444444,89.50737847222221,0)" xlink:href="#aU"/></g><g id="ab"><use transform="matrix(0.010850694444444444,0,0,0.010850694444444444,0,0)" xlink:href="#bq"/><use transform="matrix(0.010850694444444444,0,0,0.010850694444444444,14.192708333333332,0)" xlink:href="#aP"/><use transform="matrix(0.010850694444444444,0,0,0.010850694444444444,22.189670138888886,0)" xlink:href="#aD"/><use transform="matrix(0.010850694444444444,0,0,0.010850694444444444,35.514322916666664,0)" xlink:href="#aE"/><use transform="matrix(0.010850694444444444,0,0,0.010850694444444444,49.12109375,0)" xlink:href="#aI"/><use transform="matrix(0.010850694444444444,0,0,0.010850694444444444,62.26128472222222,0)" xlink:href="#bk"/><use transform="matrix(0.010850694444444444,0,0,0.010850694444444444,74.95659722222223,0)" xlink:href="#aO"/><use transform="matrix(0.010850694444444444,0,0,0.010850694444444444,82.2265625,0)" xlink:href="#aJ"/><use transform="matrix(0.010850694444444444,0,0,0.010850694444444444,87.60850694444444,0)" xlink:href="#aD"/><use transform="matrix(0.010850694444444444,0,0,0.010850694444444444,100.93315972222221,0)" xlink:href="#aU"/></g><g id="ac"><use transform="matrix(0.010850694444444444,0,0,0.010850694444444444,0,0)" xlink:href="#bf"/><use transform="matrix(0.010850694444444444,0,0,0.010850694444444444,8.10546875,0)" xlink:href="#aZ"/><use transform="matrix(0.010850694444444444,0,0,0.010850694444444444,20.670572916666664,0)" xlink:href="#aJ"/><use transform="matrix(0.010850694444444444,0,0,0.010850694444444444,26.052517361111104,0)" xlink:href="#aW"/><use transform="matrix(0.010850694444444444,0,0,0.010850694444444444,38.107638888888886,0)" xlink:href="#aF"/><use transform="matrix(0.010850694444444444,0,0,0.010850694444444444,50.81380208333333,0)" xlink:href="#bj"/></g><path d="M180 0v-1490h270l367 940c28 72 75 218 110 339 35-117 81-264 110-339l362-940h271V0h-187c2-448-5-837 7-1287-157 497-311 829-483 1287H842C666-458 514-784 354-1284c12 438 5 843 7 1284H180" id="bs"/><g id="ad"><use transform="matrix(0.010850694444444444,0,0,0.010850694444444444,0,0)" xlink:href="#bs"/><use transform="matrix(0.010850694444444444,0,0,0.010850694444444444,20.07378472222222,0)" xlink:href="#aD"/><use transform="matrix(0.010850694444444444,0,0,0.010850694444444444,33.3984375,0)" xlink:href="#aU"/><use transform="matrix(0.010850694444444444,0,0,0.010850694444444444,46.52777777777778,0)" xlink:href="#aJ"/><use transform="matrix(0.010850694444444444,0,0,0.010850694444444444,51.90972222222222,0)" xlink:href="#aO"/><use transform="matrix(0.010850694444444444,0,0,0.010850694444444444,58.96267361111112,0)" xlink:href="#aD"/><use transform="matrix(0.010850694444444444,0,0,0.010850694444444444,72.28732638888889,0)" xlink:href="#aP"/><use transform="matrix(0.010850694444444444,0,0,0.010850694444444444,81.00043402777779,0)" xlink:href="#aJ"/><use transform="matrix(0.010850694444444444,0,0,0.010850694444444444,86.38237847222223,0)" xlink:href="#aU"/><use transform="matrix(0.010850694444444444,0,0,0.010850694444444444,99.51171875,0)" xlink:href="#aM"/></g><use transform="matrix(0.010850694444444444,0,0,0.010850694444444444,0,0)" xlink:href="#aG" id="ae"/><g id="af"><use transform="matrix(0.010850694444444444,0,0,0.010850694444444444,0,0)" xlink:href="#bc"/><use transform="matrix(0.010850694444444444,0,0,0.010850694444444444,15.33203125,0)" xlink:href="#aK"/><use transform="matrix(0.010850694444444444,0,0,0.010850694444444444,20.713975694444443,0)" xlink:href="#aF"/><use transform="matrix(0.010850694444444444,0,0,0.010850694444444444,33.66970486111111,0)" xlink:href="#aP"/><use transform="matrix(0.010850694444444444,0,0,0.010850694444444444,42.38281249999999,0)" xlink:href="#aO"/><use transform="matrix(0.010850694444444444,0,0,0.010850694444444444,49.435763888888886,0)" xlink:href="#aN"/></g><g id="ag"><use transform="matrix(0.010850694444444444,0,0,0.010850694444444444,0,0)" xlink:href="#bc"/><use transform="matrix(0.010850694444444444,0,0,0.010850694444444444,15.33203125,0)" xlink:href="#aI"/><use transform="matrix(0.010850694444444444,0,0,0.010850694444444444,28.47222222222222,0)" xlink:href="#aO"/><use transform="matrix(0.010850694444444444,0,0,0.010850694444444444,35.52517361111111,0)" xlink:href="#aD"/><use transform="matrix(0.010850694444444444,0,0,0.010850694444444444,48.849826388888886,0)" xlink:href="#aT"/><use transform="matrix(0.010850694444444444,0,0,0.010850694444444444,68.31597222222221,0)" xlink:href="#ba"/><use transform="matrix(0.010850694444444444,0,0,0.010850694444444444,80.79427083333333,0)" xlink:href="#aO"/><use transform="matrix(0.010850694444444444,0,0,0.010850694444444444,87.84722222222221,0)" xlink:href="#aF"/><use transform="matrix(0.010850694444444444,0,0,0.010850694444444444,100.80295138888889,0)" xlink:href="#aE"/></g><g id="ah"><use transform="matrix(0.010850694444444444,0,0,0.010850694444444444,0,0)" xlink:href="#aL"/><use transform="matrix(0.010850694444444444,0,0,0.010850694444444444,13.975694444444445,0)" xlink:href="#aF"/><use transform="matrix(0.010850694444444444,0,0,0.010850694444444444,26.931423611111104,0)" xlink:href="#aS"/><use transform="matrix(0.010850694444444444,0,0,0.010850694444444444,40.53819444444444,0)" xlink:href="#aF"/><use transform="matrix(0.010850694444444444,0,0,0.010850694444444444,53.710937499999986,0)" xlink:href="#ba"/><use transform="matrix(0.010850694444444444,0,0,0.010850694444444444,66.1892361111111,0)" xlink:href="#aO"/><use transform="matrix(0.010850694444444444,0,0,0.010850694444444444,73.56770833333331,0)" xlink:href="#ba"/><use transform="matrix(0.010850694444444444,0,0,0.010850694444444444,86.04600694444443,0)" xlink:href="#bi"/><use transform="matrix(0.010850694444444444,0,0,0.010850694444444444,99.65277777777776,0)" xlink:href="#aK"/><use transform="matrix(0.010850694444444444,0,0,0.010850694444444444,105.0347222222222,0)" xlink:href="#aF"/></g><path d="M678-1118v154H420V0H240v-964H20v-154h220v-149c0-194 155-293 318-293 85 0 141 18 168 30l-50 154c-19-6-47-17-97-17-111 0-159 58-159 166v109h258" id="bt"/><g id="ai"><use transform="matrix(0.010850694444444444,0,0,0.010850694444444444,0,0)" xlink:href="#be"/><use transform="matrix(0.010850694444444444,0,0,0.010850694444444444,14.2578125,0)" xlink:href="#ba"/><use transform="matrix(0.010850694444444444,0,0,0.010850694444444444,26.73611111111111,0)" xlink:href="#bt"/><use transform="matrix(0.010850694444444444,0,0,0.010850694444444444,34.30989583333333,0)" xlink:href="#aF"/></g></defs></g></svg>